{
.appVersion = "3337";
.formatVersion = 3;
axes = (
{
name = Weight;
tag = wght;
}
);
classes = (
{
automatic = 1;
code = "A Aacute Abreve Abrevedotbelow Acaron Acircumflex Acircumflexdotbelow Adieresis Adieresismacron Adotbelow Agrave Amacron Aogonek Aring Atilde AE AEmacron B Bdotbelow C Cacute Ccaron Ccedilla Ccircumflex Cdotaccent D Dcaron Ddotbelow Eth E Eacute Ecaron Ecircumflex Ecircumflexdotbelow Edieresis Edotaccent Edotbelow Egrave Emacron Eogonek Etilde F G Gbreve Gcaron Gcircumflex Gcommaaccent Gdotaccent Gmacron H Hcircumflex Hdotbelow I Iacute Icaron Icircumflex Idieresis Idieresisacute Idotaccent Idotbelow Igrave Imacron Iogonek Itilde J Jacute Jcircumflex K Kcaron Kcommaaccent L Lacute Lcaron Lcommaaccent Ldotbelow M Macute Mdotaccent Mdotbelow N Nacute Ncaron Ncommaaccent Ndotaccent Ndotbelow Ntilde O Oacute Ocaron Ocircumflex Ocircumflexdotbelow Odieresis Odieresismacron Odotbelow Ograve Ohungarumlaut Omacron Oslash Otilde OE P Thorn Q R Racute Rcaron Rcommaaccent S Sacute Scaron Scedilla Scircumflex Scommaaccent Sdotbelow Germandbls T Tcaron Tcedilla Tcommaaccent Tdotbelow U Uacute Ubreve Ucaron Ucircumflex Udieresis Udieresisacute Udieresiscaron Udieresisgrave Udieresismacron Udotbelow Ugrave Uhungarumlaut Umacron Uogonek Uring Utilde V W Wacute Wcircumflex Wdieresis Wgrave X Y Yacute Ycircumflex Ydieresis Ydotbelow Ygrave Ymacron Ytilde Z Zacute Zcaron Zdotaccent Zdotbelow A.001 C.001 G.001 H.001 I.001 K.001 M.001 N.001 O.001 U.001 Lcommaaccent.loclMAH Ncommaaccent.loclMAH Alpha Beta Gamma Delta Epsilon Zeta Eta Theta Iota Kappa Lambda Mu Nu Xi Omicron Pi Rho Sigma Tau Upsilon Phi Chi Psi Omega Alphatonos Epsilontonos Etatonos Iotatonos Omicrontonos Upsilontonos Omegatonos Iotadieresis Upsilondieresis Alpha.001 Eta.001 Theta.001 Kappa.001 Xi.001 Omicron.001 Omega.001";
name = Uppercase;
}
);
customParameters = (
{
name = fsType;
value = (
);
},
{
name = "Enforce Compatibility Check";
value = 0;
},
{
name = "Variable Font Origin";

glyphs = (
{
glyphname = A;
kernLeft = A;
kernRight = A;
lastChange = "2025-01-17 15:26:41 +0000";
layers = (
{
anchors = (
{
name = bottom;
pos = (567,0);
},
{
name = ogonek;
pos = (1100,0);
},
{
name = top;
pos = (581,1400);
}
);
hints = (
{
horizontal = 1;
place = (0,21);
target = up;
type = BottomGhost;
},
{
horizontal = 1;
place = (479,60);
type = Stem;
},
{
horizontal = 1;
place = (1399,53);
type = Stem;
},
{
horizontal = 1;
place = (1400,-20);
target = down;
type = TopGhost;
},
{
horizontal = 1;
place = (-1,21);
target = up;
type = BottomGhost;
}
);
layerId = "8CC24B71-6632-46E7-AD4C-7A03FCA973DC";
shapes = (
{
closed = 1;
nodes = (
(566,1399,l),
(8,0,l),
(72,0,l),
(280,520,l),
(909,520,l),
(1116,0,l),
(1180,0,l),
(626,1399,l)
);
},
{
closed = 1;
nodes = (
(596,1307,l),
(885,580,l),
(305,580,l)
);
}
);
width = 1188;
},
{
anchors = (
{
name = bottom;
pos = (407,0);
},
{
name = ogonek;
pos = (960,0);
},
{
name = top;
pos = (609,1400);
}
);
associatedMasterId = "8CC24B71-6632-46E7-AD4C-7A03FCA973DC";
hints = (
{
horizontal = 1;
origin = (0,3);
target = up;
type = BottomGhost;
},
{
horizontal = 1;
origin = (0,8);
target = (1,2);
type = Stem;
},
{
horizontal = 1;
origin = (0,21);
target = (1,0);
type = Stem;
}
);
layerId = "65FCF1C4-831F-49C7-9BF6-D3ADA4B58F42";
shapes = (
{
closed = 1;
nodes = (
(-118,36,ls),
(-129,15,o),
(-122,-1,o),
(-99,-1,cs),
(-79,-1,ls),
(-61,-1,o),
(-48,6,o),
(-39,24,cs),
(190,478,l),
(809,478,l),
(913,10,ls),
(915,1,o),
(922,-4,o),
(931,-4,cs),
(946,-4,o),
(958,12,o),
(955,25,cs),
(659,1374,ls),
(655,1392,o),
(644,1399,o),
(626,1399,cs),
(591,1399,ls),
(573,1399,o),
(560,1392,o),
(552,1374,cs)
);
},
{
closed = 1;
nodes = (
(623,1345,l),
(797,538,l),
(221,538,l)
);
}
);
width = 1105;
}
);
unicode = 65;
},
{
glyphname = Aacute;
kernLeft = A;
kernRight = A;
lastChange = "2025-01-17 15:26:41 +0000";
layers = (
{
anchors = (
{
name = bottom;
pos = (567,0);
},
{
name = ogonek;
pos = (1100,0);
},
{
name = top;
pos = (635,1400);
}
);
hints = (
{
horizontal = 1;
place = (0,21);
target = up;
type = BottomGhost;
},
{
horizontal = 1;
place = (479,60);
type = Stem;
},
{
horizontal = 1;
place = (1399,53);
type = Stem;
},
{
horizontal = 1;
place = (1400,-20);
target = down;
type = TopGhost;
},
{
horizontal = 1;
place = (-1,21);
target = up;
type = BottomGhost;
},
{
horizontal = 1;
place = (1791,-20);
target = down;
type = TopGhost;
},
{
place = (1080,228);
type = Stem;
},
{
horizontal = 1;
origin = (1,3);
target = down;
type = TopGhost;
},
{
origin = (1,3);
target = (1,2);
type = Stem;
}
);
layerId = "8CC24B71-6632-46E7-AD4C-7A03FCA973DC";
shapes = (
{
closed = 1;
nodes = (
(566,1399,l),
(8,0,l),
(72,0,l),
(280,520,l),
(909,520,l),
(1116,0,l),
(1180,0,l),
(626,1399,l)
);
},
{
closed = 1;
nodes = (
(751,1798,l),
(668,1798,l),
(586,1510,l),
(625,1510,l)
);
},
{
closed = 1;
nodes = (
(596,1307,l),
(885,580,l),
(305,580,l)
);
}
);
width = 1188;
},
{
associatedMasterId = "8CC24B71-6632-46E7-AD4C-7A03FCA973DC";
layerId = "65FCF1C4-831F-49C7-9BF6-D3ADA4B58F42";
shapes = (
{
pos = (-141,0);
ref = A;
slant = (8,0);
},
{
pos = (453,461);
ref = acutecomb;
slant = (8,0);
}
);
width = 1105;
}
);
metricLeft = A;
metricRight = A;
unicode = 193;
},
{
glyphname = Abreve;
kernLeft = A;
kernRight = A;
lastChange = "2025-01-17 15:26:41 +0000";
layers = (
{
anchors = (
{
name = bottom;
pos = (567,0);
},
{
name = ogonek;
pos = (1100,0);
},
{
name = top;
pos = (581,1400);
}
);
hints = (
{
horizontal = 1;
place = (0,21);
target = up;
type = BottomGhost;
},
{
horizontal = 1;
place = (479,60);
type = Stem;
},
{
horizontal = 1;
place = (1399,53);
type = Stem;
},
{
horizontal = 1;
place = (1400,-20);
target = down;
type = TopGhost;
},
{
horizontal = 1;
place = (-1,21);
target = up;
type = BottomGhost;
},
{
horizontal = 1;
place = (1501,154);
type = Stem;
},
{
place = (377,154);
type = Stem;
},
{
place = (941,154);
type = Stem;
}
);
layerId = "8CC24B71-6632-46E7-AD4C-7A03FCA973DC";
shapes = (
{
closed = 1;
nodes = (
(566,1399,l),
(8,0,l),
(72,0,l),
(280,520,l),
(909,520,l),
(1116,0,l),
(1180,0,l),
(626,1399,l)
);
},
{
closed = 1;
nodes = (
(770,1501,o),
(926,1645,o),
(926,1833,c),
(866,1833,l),
(866,1683,o),
(742,1561,o),
(594,1561,cs),
(452,1561,o),
(322,1679,o),
(322,1833,c),
(262,1833,l),
(262,1651,o),
(412,1501,o),
(594,1501,cs)
);
},
{
closed = 1;
nodes = (
(596,1307,l),
(885,580,l),
(305,580,l)
);
}
);
width = 1188;
},
{
associatedMasterId = "8CC24B71-6632-46E7-AD4C-7A03FCA973DC";
layerId = "65FCF1C4-831F-49C7-9BF6-D3ADA4B58F42";
shapes = (
{
pos = (-141,0);
ref = A;
slant = (8,0);
},
{
pos = (133,486);
ref = breve;
slant = (8,0);
}
);
width = 1105;
}
);
metricLeft = A;
metricRight = A;
unicode = 258;
},
{
glyphname = Abrevedotbelow;
kernLeft = A;
kernRight = A;
lastChange = "2025-01-17 15:26:41 +0000";
layers = (
{
anchors = (
{
name = bottom;
pos = (567,0);
},
{
name = ogonek;
pos = (1100,0);
},
{
name = top;
pos = (581,1400);
}
);
hints = (
{
horizontal = 1;
place = (0,21);
target = up;
type = BottomGhost;
},
{
horizontal = 1;
place = (479,60);
type = Stem;
},
{
horizontal = 1;
place = (1399,53);
type = Stem;
},
{
horizontal = 1;
place = (1400,-20);
target = down;
type = TopGhost;
},
{
horizontal = 1;
place = (-1,21);
target = up;
type = BottomGhost;
},
{
horizontal = 1;
origin = (1,11);
target = (1,5);
type = Stem;
},
{
origin = (1,8);
target = (1,2);
type = Stem;
},
{
horizontal = 1;
place = (1486,154);
type = Stem;
},
{
place = (377,154);
type = Stem;
},
{
place = (941,154);
type = Stem;
}
);
layerId = "8CC24B71-6632-46E7-AD4C-7A03FCA973DC";
shapes = (
{
closed = 1;
nodes = (
(566,1399,l),
(8,0,l),
(72,0,l),
(280,520,l),
(909,520,l),
(1116,0,l),
(1180,0,l),
(626,1399,l)
);
},
{
closed = 1;
nodes = (
(620,-346,o),
(639,-327,o),
(639,-301,cs),
(639,-275,o),
(619,-256,o),
(594,-256,cs),
(569,-256,o),
(549,-275,o),
(549,-301,cs),
(549,-327,o),
(569,-346,o),
(594,-346,cs)
);
},
{
closed = 1;
nodes = (
(770,1486,o),
(926,1630,o),
(926,1818,c),
(866,1818,l),
(866,1668,o),
(742,1546,o),
(594,1546,cs),
(452,1546,o),
(322,1664,o),
(322,1818,c),
(262,1818,l),
(262,1636,o),
(412,1486,o),
(594,1486,cs)
);
},
{
closed = 1;
nodes = (
(596,1307,l),
(885,580,l),
(305,580,l)
);
}
);
width = 1188;
},
{
associatedMasterId = "8CC24B71-6632-46E7-AD4C-7A03FCA973DC";
layerId = "65FCF1C4-831F-49C7-9BF6-D3ADA4B58F42";
shapes = (
{
pos = (-141,0);
ref = A;
slant = (8,0);
},
{
pos = (351,0);
ref = dotbelowcomb;
slant = (8,0);
},
{
pos = (133,486);
ref = breve;
slant = (8,0);
}
);
width = 1105;
}
);
metricLeft = A;
metricRight = A;
unicode = 7862;
},
{
glyphname = Acaron;
kernLeft = A;
kernRight = A;
lastChange = "2025-01-17 15:26:41 +0000";
layers = (
{
anchors = (
{
name = bottom;
pos = (543,1562);
},
{
name = ogonek;
pos = (1100,0);
},
{
name = top;
pos = (581,1400);
}
);
hints = (
{
horizontal = 1;
place = (1345,-20);
target = down;
type = TopGhost;
},
{
horizontal = 1;
place = (0,21);
target = up;
type = BottomGhost;
},
{
horizontal = 1;
place = (479,60);
type = Stem;
},
{
horizontal = 1;
place = (1399,53);
type = Stem;
},
{
horizontal = 1;
place = (1400,-20);
target = down;
type = TopGhost;
},
{
horizontal = 1;
place = (-1,21);
target = up;
type = BottomGhost;
},
{
horizontal = 1;
place = (1995,21);
target = up;
type = BottomGhost;
},
{
horizontal = 1;
place = (1521,-8);
type = Stem;
}
);
layerId = "8CC24B71-6632-46E7-AD4C-7A03FCA973DC";
shapes = (
{
closed = 1;
nodes = (
(566,1399,l),
(8,0,l),
(72,0,l),
(280,520,l),
(909,520,l),
(1116,0,l),
(1180,0,l),
(626,1399,l)
);
},
{
closed = 1;
nodes = (
(776,1799,l),
(596,1590,l),
(413,1799,l),
(373,1799,l),
(565,1511,l),
(625,1511,l),
(816,1799,l)
);
},
{
closed = 1;
nodes = (
(596,1307,l),
(885,580,l),
(305,580,l)
);
}
);
width = 1188;
},
{
associatedMasterId = "8CC24B71-6632-46E7-AD4C-7A03FCA973DC";
hints = (
{
horizontal = 1;
place = (1204,-20);
target = down;
type = TopGhost;
}
);
layerId = "65FCF1C4-831F-49C7-9BF6-D3ADA4B58F42";
shapes = (
{
pos = (-141,0);
ref = A;
slant = (8,0);
},
{
alignment = -1;
angle = 180;
pos = (1059,2971);
ref = circumflexcomb;
slant = (8,0);
}
);
width = 1105;
}
);
metricLeft = A;
metricRight = A;
unicode = 461;
},
{
glyphname = Acircumflex;
kernLeft = A;
kernRight = A;
lastChange = "2025-01-17 15:26:41 +0000";
layers = (
{
anchors = (
{
name = bottom;
pos = (567,0);
},
{
name = ogonek;
pos = (1100,0);
},
{
name = top;
pos = (646,1668);
}
);
hints = (
{
horizontal = 1;
place = (0,21);
target = up;
type = BottomGhost;
},
{
horizontal = 1;
place = (479,60);
type = Stem;
},
{
horizontal = 1;
place = (1399,53);
type = Stem;
},
{
horizontal = 1;
place = (1400,-20);
target = down;
type = TopGhost;
},
{
horizontal = 1;
place = (-1,21);
target = up;
type = BottomGhost;
},
{
horizontal = 1;
place = (1235,-20);
target = down;
type = TopGhost;
},
{
horizontal = 1;
place = (1709,8);
type = Stem;
}
);
layerId = "8CC24B71-6632-46E7-AD4C-7A03FCA973DC";
shapes = (
{
closed = 1;
nodes = (
(566,1399,l),
(8,0,l),
(72,0,l),
(280,520,l),
(909,520,l),
(1116,0,l),
(1180,0,l),
(626,1399,l)
);
},
{
closed = 1;
nodes = (
(413,1431,l),
(593,1640,l),
(776,1431,l),
(816,1431,l),
(624,1719,l),
(564,1719,l),
(373,1431,l)
);
},
{
closed = 1;
nodes = (
(596,1307,l),
(885,580,l),
(305,580,l)
);
}
);
width = 1188;
},
{
associatedMasterId = "8CC24B71-6632-46E7-AD4C-7A03FCA973DC";
layerId = "65FCF1C4-831F-49C7-9BF6-D3ADA4B58F42";
shapes = (
{
pos = (-141,0);
ref = A;
slant = (8,0);
},
{
pos = (240,465);
ref = circumflexcomb;
slant = (8,0);
}
);
width = 1105;
}
);
metricLeft = A;
metricRight = A;
unicode = 194;
},
{
glyphname = Acircumflexdotbelow;
kernLeft = A;
kernRight = A;
lastChange = "2025-01-17 15:26:41 +0000";
layers = (
{
anchors = (
{
name = bottom;
pos = (567,0);
},
{
name = ogonek;
pos = (1100,0);
},
{
name = top;
pos = (646,1668);
}
);
hints = (
{
horizontal = 1;
place = (0,21);
target = up;
type = BottomGhost;
},
{
horizontal = 1;
place = (479,60);
type = Stem;
},
{
horizontal = 1;
place = (1399,53);
type = Stem;
},
{
horizontal = 1;
place = (1400,-20);
target = down;
type = TopGhost;
},
{
horizontal = 1;
place = (-1,21);
target = up;
type = BottomGhost;
},
{
horizontal = 1;
origin = (1,11);
target = (1,5);
type = Stem;
},
{
origin = (1,8);
target = (1,2);
type = Stem;
},
{
horizontal = 1;
place = (1235,-20);
target = down;
type = TopGhost;
},
{
horizontal = 1;
place = (1709,8);
type = Stem;
}
);
layerId = "8CC24B71-6632-46E7-AD4C-7A03FCA973DC";
shapes = (
{
closed = 1;
nodes = (
(566,1399,l),
(8,0,l),
(72,0,l),
(280,520,l),
(909,520,l),
(1116,0,l),
(1180,0,l),
(626,1399,l)
);
},
{
closed = 1;
nodes = (
(620,-346,o),
(639,-327,o),
(639,-301,cs),
(639,-275,o),
(619,-256,o),
(594,-256,cs),
(569,-256,o),
(549,-275,o),
(549,-301,cs),
(549,-327,o),
(569,-346,o),
(594,-346,cs)
);
},
{
closed = 1;
nodes = (
(413,1431,l),
(593,1640,l),
(776,1431,l),
(816,1431,l),
(624,1719,l),
(564,1719,l),
(373,1431,l)
);
},
{
closed = 1;
nodes = (
(596,1307,l),
(885,580,l),
(305,580,l)
);
}
);
width = 1188;
},
{
associatedMasterId = "8CC24B71-6632-46E7-AD4C-7A03FCA973DC";
layerId = "65FCF1C4-831F-49C7-9BF6-D3ADA4B58F42";
shapes = (
{
pos = (-141,0);
ref = A;
slant = (8,0);
},
{
pos = (351,0);
ref = dotbelowcomb;
slant = (8,0);
},
{
pos = (240,465);
ref = circumflexcomb;
slant = (8,0);
}
);
width = 1105;
}
);
metricLeft = A;
metricRight = A;
unicode = 7852;
},
{
glyphname = Adieresis;
kernLeft = A;
kernRight = A;
lastChange = "2025-01-17 15:26:41 +0000";
layers = (
{
anchors = (
{
name = bottom;
pos = (567,0);
},
{
name = ogonek;
pos = (1100,0);
},
{
name = top;
pos = (640,1307);
}
);
hints = (
{
horizontal = 1;
place = (0,21);
target = up;
type = BottomGhost;
},
{
horizontal = 1;
place = (479,60);
type = Stem;
},
{
horizontal = 1;
place = (1399,53);
type = Stem;
},
{
horizontal = 1;
place = (1400,-20);
target = down;
type = TopGhost;
},
{
horizontal = 1;
place = (-1,21);
target = up;
type = BottomGhost;
},
{
horizontal = 1;
place = (1483,90);
type = Stem;
},
{
place = (550,90);
type = Stem;
},
{
place = (550,90);
type = Stem;
},
{
horizontal = 1;
origin = (1,11);
target = (1,5);
type = Stem;
},
{
origin = (1,8);
target = (1,2);
type = Stem;
},
{
horizontal = 1;
origin = (2,11);
target = (2,5);
type = Stem;
},
{
origin = (2,8);
target = (2,2);
type = Stem;
}
);
layerId = "8CC24B71-6632-46E7-AD4C-7A03FCA973DC";
shapes = (
{
closed = 1;
nodes = (
(566,1399,l),
(8,0,l),
(72,0,l),
(280,520,l),
(909,520,l),
(1116,0,l),
(1180,0,l),
(626,1399,l)
);
},
{
closed = 1;
nodes = (
(792,1537,o),
(811,1556,o),
(811,1582,cs),
(811,1608,o),
(791,1627,o),
(766,1627,cs),
(741,1627,o),
(721,1608,o),
(721,1582,cs),
(721,1556,o),
(741,1537,o),
(766,1537,cs)
);
},
{
closed = 1;
nodes = (
(448,1537,o),
(467,1556,o),
(467,1582,cs),
(467,1608,o),
(447,1627,o),
(422,1627,cs),
(397,1627,o),
(377,1608,o),
(377,1582,cs),
(377,1556,o),
(397,1537,o),
(422,1537,cs)
);
},
{
closed = 1;
nodes = (
(596,1307,l),
(885,580,l),
(305,580,l)
);
}
);
width = 1188;
},
{
associatedMasterId = "8CC24B71-6632-46E7-AD4C-7A03FCA973DC";
layerId = "65FCF1C4-831F-49C7-9BF6-D3ADA4B58F42";
shapes = (
{
pos = (-141,0);
ref = A;
slant = (8,0);
},
{
pos = (240,317);
ref = dieresis;
slant = (8,0);
}
);
width = 1105;
}
);
metricLeft = A;
metricRight = A;
unicode = 196;
},
{
glyphname = Adieresismacron;
kernLeft = A;
kernRight = A;
lastChange = "2025-01-17 15:26:41 +0000";
layers = (
{
anchors = (
{
name = bottom;
pos = (567,0);
},
{
name = ogonek;
pos = (1100,0);
},
{
name = top;
pos = (640,1307);
}
);
hints = (
{
horizontal = 1;
place = (0,21);
target = up;
type = BottomGhost;
},
{
horizontal = 1;
place = (479,60);
type = Stem;
},
{
horizontal = 1;
place = (1399,53);
type = Stem;
},
{
horizontal = 1;
place = (1400,-20);
target = down;
type = TopGhost;
},
{
horizontal = 1;
place = (-1,21);
target = up;
type = BottomGhost;
},
{
horizontal = 1;
origin = (1,3);
target = (1,2);
type = Stem;
},
{
horizontal = 1;
place = (1483,90);
type = Stem;
},
{
place = (550,90);
type = Stem;
},
{
place = (550,90);
type = Stem;
},
{
horizontal = 1;
origin = (2,11);
target = (2,5);
type = Stem;
},
{
origin = (2,8);
target = (2,2);
type = Stem;
},
{
horizontal = 1;
origin = (3,11);
target = (3,5);
type = Stem;
},
{
origin = (3,8);
target = (3,2);
type = Stem;
}
);
layerId = "8CC24B71-6632-46E7-AD4C-7A03FCA973DC";
shapes = (
{
closed = 1;
nodes = (
(566,1399,l),
(8,0,l),
(72,0,l),
(280,520,l),
(909,520,l),
(1116,0,l),
(1180,0,l),
(626,1399,l)
);
},
{
closed = 1;
nodes = (
(932,1695,l),
(932,1755,l),
(256,1755,l),
(256,1695,l)
);
},
{
closed = 1;
nodes = (
(792,1537,o),
(811,1556,o),
(811,1582,cs),
(811,1608,o),
(791,1627,o),
(766,1627,cs),
(741,1627,o),
(721,1608,o),
(721,1582,cs),
(721,1556,o),
(741,1537,o),
(766,1537,cs)
);
},
{
closed = 1;
nodes = (
(448,1537,o),
(467,1556,o),
(467,1582,cs),
(467,1608,o),
(447,1627,o),
(422,1627,cs),
(397,1627,o),
(377,1608,o),
(377,1582,cs),
(377,1556,o),
(397,1537,o),
(422,1537,cs)
);
},
{
closed = 1;
nodes = (
(596,1307,l),
(885,580,l),
(305,580,l)
);
}
);
width = 1188;
},
{
associatedMasterId = "8CC24B71-6632-46E7-AD4C-7A03FCA973DC";
layerId = "65FCF1C4-831F-49C7-9BF6-D3ADA4B58F42";
shapes = (
{
pos = (-141,0);
ref = A;
slant = (8,0);
},
{
pos = (141,589);
ref = macron;
slant = (8,0);
},
{
pos = (228,234);
ref = dieresis;
slant = (8,0);
}
);
width = 1105;
}
);
metricLeft = A;
metricRight = A;
unicode = 478;
},
{
glyphname = Adotbelow;
kernLeft = A;
kernRight = A;
lastChange = "2025-01-17 15:26:41 +0000";
layers = (
{
anchors = (
{
name = bottom;
pos = (567,0);
},
{
name = ogonek;
pos = (1100,0);
},
{
name = top;
pos = (581,1400);
}
);
hints = (
{
horizontal = 1;
place = (0,21);
target = up;
type = BottomGhost;
},
{
horizontal = 1;
place = (479,60);
type = Stem;
},
{
horizontal = 1;
place = (1399,53);
type = Stem;
},
{
horizontal = 1;
place = (1400,-20);
target = down;
type = TopGhost;
},
{
horizontal = 1;
place = (-1,21);
target = up;
type = BottomGhost;
},
{
horizontal = 1;
origin = (1,11);
target = (1,5);
type = Stem;
},
{
origin = (1,8);
target = (1,2);
type = Stem;
}
);
layerId = "8CC24B71-6632-46E7-AD4C-7A03FCA973DC";
shapes = (
{
closed = 1;
nodes = (
(566,1399,l),
(8,0,l),
(72,0,l),
(280,520,l),
(909,520,l),
(1116,0,l),
(1180,0,l),
(626,1399,l)
);
},
{
closed = 1;
nodes = (
(620,-346,o),
(639,-327,o),
(639,-301,cs),
(639,-275,o),
(619,-256,o),
(594,-256,cs),
(569,-256,o),
(549,-275,o),
(549,-301,cs),
(549,-327,o),
(569,-346,o),
(594,-346,cs)
);
},
{
closed = 1;
nodes = (
(596,1307,l),
(885,580,l),
(305,580,l)
);
}
);
width = 1188;
},
{
associatedMasterId = "8CC24B71-6632-46E7-AD4C-7A03FCA973DC";
layerId = "65FCF1C4-831F-49C7-9BF6-D3ADA4B58F42";
shapes = (
{
pos = (-141,0);
ref = A;
slant = (8,0);
},
{
pos = (351,0);
ref = dotbelowcomb;
slant = (8,0);
}
);
width = 1105;
}
);
metricLeft = A;
metricRight = A;
unicode = 7840;
},
{
glyphname = Agrave;
kernLeft = A;
kernRight = A;
lastChange = "2025-01-17 15:26:41 +0000";
layers = (
{
anchors = (
{
name = bottom;
pos = (567,0);
},
{
name = ogonek;
pos = (1100,0);
},
{
name = top;
pos = (594,1754);
}
);
hints = (
{
horizontal = 1;
place = (0,21);
target = up;
type = BottomGhost;
},
{
horizontal = 1;
place = (479,60);
type = Stem;
},
{
horizontal = 1;
place = (1399,53);
type = Stem;
},
{
horizontal = 1;
place = (1400,-20);
target = down;
type = TopGhost;
},
{
horizontal = 1;
place = (-1,21);
target = up;
type = BottomGhost;
},
{
horizontal = 1;
origin = (1,2);
target = down;
type = TopGhost;
},
{
origin = (1,2);
target = (1,0);
type = Stem;
}
);
layerId = "8CC24B71-6632-46E7-AD4C-7A03FCA973DC";
shapes = (
{
closed = 1;
nodes = (
(566,1399,l),
(8,0,l),
(72,0,l),
(280,520,l),
(909,520,l),
(1116,0,l),
(1180,0,l),
(626,1399,l)
);
},
{
closed = 1;
nodes = (
(595,1517,l),
(513,1805,l),
(430,1805,l),
(556,1517,l)
);
},
{
closed = 1;
nodes = (
(596,1307,l),
(885,580,l),
(305,580,l)
);
}
);
width = 1188;
},
{
associatedMasterId = "8CC24B71-6632-46E7-AD4C-7A03FCA973DC";
layerId = "65FCF1C4-831F-49C7-9BF6-D3ADA4B58F42";
shapes = (
{
pos = (-141,0);
ref = A;
slant = (8,0);
},
{
pos = (325,463);
ref = gravecomb;
slant = (8,0);
}
);
width = 1105;
}
);
metricLeft = A;
metricRight = A;
unicode = 192;
},
{
glyphname = Amacron;
kernLeft = A;
kernRight = A;
lastChange = "2025-01-17 15:26:41 +0000";
layers = (
{
anchors = (
{
name = bottom;
pos = (567,0);
},
{
name = ogonek;
pos = (1100,0);
},
{
name = top;
pos = (581,1400);
}
);
hints = (
{
horizontal = 1;
place = (0,21);
target = up;
type = BottomGhost;
},
{
horizontal = 1;
place = (479,60);
type = Stem;
},
{
horizontal = 1;
place = (1399,53);
type = Stem;
},
{
horizontal = 1;
place = (1400,-20);
target = down;
type = TopGhost;
},
{
horizontal = 1;
place = (-1,21);
target = up;
type = BottomGhost;
},
{
horizontal = 1;
origin = (1,3);
target = (1,2);
type = Stem;
}
);
layerId = "8CC24B71-6632-46E7-AD4C-7A03FCA973DC";
shapes = (
{
closed = 1;
nodes = (
(566,1399,l),
(8,0,l),
(72,0,l),
(280,520,l),
(909,520,l),
(1116,0,l),
(1180,0,l),
(626,1399,l)
);
},
{
closed = 1;
nodes = (
(932,1540,l),
(932,1600,l),
(256,1600,l),
(256,1540,l)
);
},
{
closed = 1;
nodes = (
(596,1307,l),
(885,580,l),
(305,580,l)
);
}
);
width = 1188;
},
{
associatedMasterId = "8CC24B71-6632-46E7-AD4C-7A03FCA973DC";
layerId = "65FCF1C4-831F-49C7-9BF6-D3ADA4B58F42";
shapes = (
{
pos = (-141,0);
ref = A;
slant = (8,0);
},
{
pos = (115,400);
ref = macron;
slant = (8,0);
}
);
width = 1105;
}
);
metricLeft = A;
metricRight = A;
unicode = 256;
},
{
glyphname = Aogonek;
kernLeft = A;
kernRight = A;
lastChange = "2025-01-17 15:26:41 +0000";
layers = (
{
anchors = (
{
name = bottom;
pos = (567,0);
},
{
name = ogonek;
pos = (1100,0);
},
{
name = top;
pos = (581,1400);
}
);
hints = (
{
horizontal = 1;
place = (0,21);
target = up;
type = BottomGhost;
},
{
horizontal = 1;
place = (479,60);
type = Stem;
},
{
horizontal = 1;
place = (1399,53);
type = Stem;
},
{
horizontal = 1;
place = (1400,-20);
target = down;
type = TopGhost;
},
{
horizontal = 1;
place = (-1,21);
target = up;
type = BottomGhost;
},
{
horizontal = 1;
place = (-377,113);
type = Stem;
},
{
place = (1177,113);
type = Stem;
}
);
layerId = "8CC24B71-6632-46E7-AD4C-7A03FCA973DC";
shapes = (
{
closed = 1;
nodes = (
(566,1399,l),
(8,0,l),
(72,0,l),
(280,520,l),
(909,520,l),
(1110,15,l),
(969,-126,ls),
(942,-153,o),
(927,-191,o),
(927,-227,cs),
(927,-300,o),
(983,-370,o),
(1067,-371,cs),
(1159,-371,o),
(1237,-302,o),
(1237,-204,c),
(1177,-204,l),
(1177,-272,o),
(1120,-311,o),
(1068,-311,cs),
(1017,-308,o),
(987,-268,o),
(987,-227,cs),
(987,-187,o),
(993,-186,o),
(1179,0,c),
(1180,0,l),
(626,1399,l)
);
},
{
closed = 1;
nodes = (
(596,1307,l),
(885,580,l),
(305,580,l)
);
}
);
width = 1245;
},
{
associatedMasterId = "8CC24B71-6632-46E7-AD4C-7A03FCA973DC";
layerId = "65FCF1C4-831F-49C7-9BF6-D3ADA4B58F42";
shapes = (
{
pos = (-141,0);
ref = A;
slant = (8,0);
},
{
pos = (725,0);
ref = ogonek;
slant = (8,0);
}
);
width = 1192;
}
);
metricLeft = A;
metricRight = A;
unicode = 260;
},
{
glyphname = Aring;
kernLeft = A;
kernRight = A;
lastChange = "2025-01-17 15:26:41 +0000";
layers = (
{
anchors = (
{
name = bottom;
pos = (567,0);
},
{
name = ogonek;
pos = (1100,0);
},
{
name = top;
pos = (733,1800);
}
);
hints = (
{
horizontal = 1;
place = (0,21);
target = up;
type = BottomGhost;
},
{
horizontal = 1;
place = (479,60);
type = Stem;
},
{
horizontal = 1;
place = (1399,53);
type = Stem;
},
{
horizontal = 1;
place = (1400,-20);
target = down;
type = TopGhost;
},
{
horizontal = 1;
place = (-1,21);
target = up;
type = BottomGhost;
},
{
horizontal = 1;
place = (1495,92);
type = Stem;
},
{
horizontal = 1;
place = (1719,94);
type = Stem;
},
{
place = (1164,93);
type = Stem;
},
{
place = (1389,92);
type = Stem;
}
);
layerId = "8CC24B71-6632-46E7-AD4C-7A03FCA973DC";
shapes = (
{
closed = 1;
nodes = (
(566,1399,l),
(8,0,l),
(72,0,l),
(280,520,l),
(909,520,l),
(1116,0,l),
(1180,0,l),
(626,1399,l)
);
},
{
closed = 1;
nodes = (
(670,1515,o),
(732,1577,o),
(732,1655,cs),
(732,1729,o),
(670,1793,o),
(594,1793,cs),
(518,1793,o),
(456,1729,o),
(456,1655,cs),
(456,1579,o),
(518,1515,o),
(594,1515,cs)
);
},
{
closed = 1;
nodes = (
(544,1563,o),
(504,1603,o),
(504,1655,cs),
(504,1703,o),
(544,1743,o),
(594,1743,cs),
(644,1743,o),
(684,1703,o),
(684,1655,cs),
(684,1603,o),
(644,1563,o),
(594,1563,cs)
);
},
{
closed = 1;
nodes = (
(596,1307,l),
(885,580,l),
(305,580,l)
);
}
);
width = 1188;
},
{
associatedMasterId = "8CC24B71-6632-46E7-AD4C-7A03FCA973DC";
layerId = "65FCF1C4-831F-49C7-9BF6-D3ADA4B58F42";
shapes = (
{
pos = (-141,0);
ref = A;
slant = (8,0);
},
{
pos = (315,400);
ref = ringcomb;
slant = (8,0);
}
);
width = 1105;
}
);
metricLeft = A;
metricRight = A;
unicode = 197;
},
{
glyphname = Atilde;
kernLeft = A;
kernRight = A;
lastChange = "2025-01-17 15:26:41 +0000";
layers = (
{
anchors = (
{
name = bottom;
pos = (567,0);
},
{
name = ogonek;
pos = (1100,0);
},
{
name = top;
pos = (795,1668);
}
);
hints = (
{
horizontal = 1;
place = (0,21);
target = up;
type = BottomGhost;
},
{
horizontal = 1;
place = (479,60);
type = Stem;
},
{
horizontal = 1;
place = (1399,53);
type = Stem;
},
{
horizontal = 1;
place = (1400,-20);
target = down;
type = TopGhost;
},
{
horizontal = 1;
place = (-1,21);
target = up;
type = BottomGhost;
},
{
horizontal = 1;
place = (1429,139);
type = Stem;
},
{
horizontal = 1;
place = (1602,130);
type = Stem;
},
{
place = (759,99);
type = Stem;
},
{
place = (1170,48);
type = Stem;
}
);
layerId = "8CC24B71-6632-46E7-AD4C-7A03FCA973DC";
shapes = (
{
closed = 1;
nodes = (
(566,1399,l),
(8,0,l),
(72,0,l),
(280,520,l),
(909,520,l),
(1116,0,l),
(1180,0,l),
(626,1399,l)
);
},
{
closed = 1;
nodes = (
(847,1476,o),
(917,1574,o),
(889,1660,c),
(833,1642,l),
(845,1610,o),
(813,1536,o),
(765,1536,cs),
(679,1536,o),
(539,1682,o),
(437,1682,cs),
(341,1682,o),
(271,1582,o),
(299,1500,c),
(357,1516,l),
(343,1572,o),
(383,1622,o),
(431,1622,cs),
(523,1622,o),
(651,1476,o),
(749,1476,cs)
);
},
{
closed = 1;
nodes = (
(596,1307,l),
(885,580,l),
(305,580,l)
);
}
);
width = 1188;
},
{
associatedMasterId = "8CC24B71-6632-46E7-AD4C-7A03FCA973DC";
layerId = "65FCF1C4-831F-49C7-9BF6-D3ADA4B58F42";
shapes = (
{
pos = (-141,0);
ref = A;
slant = (8,0);
},
{
pos = (152,400);
ref = tildecomb;
slant = (8,0);
}
);
width = 1105;
}
);
metricLeft = A;
metricRight = A;
unicode = 195;
},
{
glyphname = AE;
kernLeft = A;
kernRight = E;
lastChange = "2025-01-17 15:26:41 +0000";
layers = (
{
anchors = (
{
name = bottom;
pos = (660,0);
},
{
name = top;
pos = (904,1400);
}
);
hints = (
{
horizontal = 1;
place = (22,176);
type = Stem;
},
{
horizontal = 1;
place = (322,162);
type = Stem;
},
{
horizontal = 1;
place = (645,176);
type = Stem;
},
{
horizontal = 1;
place = (1422,176);
type = Stem;
},
{
place = (744,176);
type = Stem;
}
);
layerId = "8CC24B71-6632-46E7-AD4C-7A03FCA973DC";
shapes = (
{
closed = 1;
nodes = (
(72,0,l),
(196,340,l),
(710,340,l),
(710,0,l),
(1402,0,l),
(1402,60,l),
(770,60,l),
(770,670,l),
(1306,670,l),
(1306,730,l),
(770,730,l),
(770,1340,l),
(1402,1340,l),
(1402,1400,l),
(518,1400,l),
(8,0,l)
);
},
{
closed = 1;
nodes = (
(562,1340,l),
(710,1340,l),
(710,400,l),
(218,400,l)
);
}
);
width = 1522;
},
{
anchors = (
{
name = bottom;
pos = (515,0);
},
{
name = top;
pos = (956,1400);
}
);
associatedMasterId = "8CC24B71-6632-46E7-AD4C-7A03FCA973DC";
hints = (
{
horizontal = 1;
place = (-119,35);
type = Stem;
},
{
horizontal = 1;
place = (181,21);
type = Stem;
},
{
horizontal = 1;
place = (504,35);
type = Stem;
},
{
horizontal = 1;
place = (1281,35);
type = Stem;
},
{
place = (603,35);
type = Stem;
}
);
layerId = "65FCF1C4-831F-49C7-9BF6-D3ADA4B58F42";
shapes = (
{
closed = 1;
nodes = (
(-64,17,cs),
(99,340,l),
(613,340,l),
(570,32,ls),
(567,12,o),
(577,0,o),
(597,0,cs),
(1230,0,ls),
(1246,0,o),
(1262,13,o),
(1265,30,cs),
(1267,47,o),
(1255,60,o),
(1239,60,cs),
(634,60,l),
(720,670,l),
(1229,670,ls),
(1245,670,o),
(1260,683,o),
(1263,700,cs),
(1265,717,o),
(1253,730,o),
(1237,730,cs),
(728,730,l),
(814,1340,l),
(1419,1340,ls),
(1435,1340,o),
(1451,1353,o),
(1453,1370,cs),
(1455,1387,o),
(1443,1400,o),
(1427,1400,cs),
(597,1400,ls),
(579,1400,o),
(566,1393,o),
(558,1375,cs),
(-118,37,ls),
(-119,33,o),
(-120,31,o),
(-121,27,cs),
(-123,10,o),
(-112,-3,o),
(-95,-3,cs),
(-82,-3,o),
(-70,6,o)
);
},
{
closed = 1;
nodes = (
(606,1340,l),
(754,1340,l),
(622,400,l),
(130,400,l)
);
}
);
width = 1455;
}
);
metricLeft = A;
metricRight = E;
unicode = 198;
},
{
glyphname = AEmacron;
kernLeft = A;
kernRight = E;
lastChange = "2025-01-17 15:26:41 +0000";
layers = (
{
anchors = (
{
name = bottom;
pos = (660,0);
},
{
name = top;
pos = (904,1400);
}
);
hints = (
{
horizontal = 1;
place = (22,176);
type = Stem;
},
{
horizontal = 1;
place = (322,162);
type = Stem;
},
{
horizontal = 1;
place = (645,176);
type = Stem;
},
{
horizontal = 1;
place = (1422,176);
type = Stem;
},
{
place = (744,176);
type = Stem;
},
{
horizontal = 1;
origin = (2,3);
target = (2,2);
type = Stem;
}
);
layerId = "8CC24B71-6632-46E7-AD4C-7A03FCA973DC";
shapes = (
{
closed = 1;
nodes = (
(72,0,l),
(196,340,l),
(710,340,l),
(710,0,l),
(1402,0,l),
(1402,60,l),
(770,60,l),
(770,670,l),
(1306,670,l),
(1306,730,l),
(770,730,l),
(770,1340,l),
(1402,1340,l),
(1402,1400,l),
(518,1400,l),
(8,0,l)
);
},
{
closed = 1;
nodes = (
(562,1340,l),
(710,1340,l),
(710,400,l),
(218,400,l)
);
},
{
closed = 1;
nodes = (
(1057,1617,l),
(1057,1677,l),
(381,1677,l),
(381,1617,l)
);
}
);
width = 1522;
},
{
associatedMasterId = "8CC24B71-6632-46E7-AD4C-7A03FCA973DC";
layerId = "65FCF1C4-831F-49C7-9BF6-D3ADA4B58F42";
shapes = (
{
pos = (-141,0);
ref = AE;
slant = (8,0);
},
{
pos = (303,400);
ref = macroncomb;
slant = (8,0);
}
);
width = 1455;
}
);
metricLeft = A;
metricRight = E;
unicode = 482;
},
{
glyphname = B;
kernLeft = H;
kernRight = B;
lastChange = "2025-01-17 15:26:41 +0000";
layers = (
{
anchors = (
{
name = bottom;
pos = (594,0);
},
{
name = top;
pos = (612,1401);
}
);
hints = (
{
horizontal = 1;
place = (-16,110);
type = Stem;
},
{
horizontal = 1;
place = (687,108);
type = Stem;
},
{
horizontal = 1;
place = (1345,110);
type = Stem;
},
{
place = (105,125);
type = Stem;
},
{
place = (892,114);
type = Stem;
},
{
place = (806,125);
type = Stem;
}
);
layerId = "8CC24B71-6632-46E7-AD4C-7A03FCA973DC";
shapes = (
{
closed = 1;
nodes = (
(590,-1,ls),
(811,-1,o),
(990,178,o),
(990,399,cs),
(990,571,o),
(882,717,o),
(730,774,c),
(838,828,o),
(912,940,o),
(912,1069,cs),
(912,1251,o),
(764,1399,o),
(582,1399,cs),
(120,1399,l),
(120,-1,l)
);
},
{
closed = 1;
nodes = (
(180,739,l),
(590,739,ls),
(773,739,o),
(930,593,o),
(930,399,cs),
(930,204,o),
(772,59,o),
(590,59,cs),
(180,59,l)
);
},
{
closed = 1;
nodes = (
(180,1339,l),
(582,1339,ls),
(732,1339,o),
(852,1218,o),
(852,1069,cs),
(852,917,o),
(729,799,o),
(582,799,cs),
(180,799,l)
);
}
);
width = 1070;
},
{
anchors = (
{
name = bottom;
pos = (402,0);
},
{
name = top;
pos = (617,1401);
}
);
associatedMasterId = "8CC24B71-6632-46E7-AD4C-7A03FCA973DC";
hints = (
{
horizontal = 1;
place = (-157,-31);
type = Stem;
},
{
horizontal = 1;
place = (546,-33);
type = Stem;
},
{
horizontal = 1;
place = (1204,-31);
type = Stem;
},
{
place = (-36,-16);
type = Stem;
},
{
place = (751,-27);
type = Stem;
},
{
place = (665,-16);
type = Stem;
}
);
layerId = "65FCF1C4-831F-49C7-9BF6-D3ADA4B58F42";
shapes = (
{
closed = 1;
nodes = (
(398,-1,ls),
(619,-1,o),
(823,178,o),
(855,399,cs),
(879,571,o),
(791,717,o),
(647,774,c),
(763,828,o),
(853,940,o),
(871,1069,cs),
(896,1251,o),
(769,1399,o),
(587,1399,cs),
(157,1399,ls),
(137,1399,o),
(123,1387,o),
(121,1367,cs),
(-67,31,ls),
(-70,11,o),
(-60,-1,o),
(-40,-1,cs)
);
},
{
closed = 1;
nodes = (
(110,739,l),
(520,739,ls),
(703,739,o),
(840,593,o),
(813,399,cs),
(785,204,o),
(607,59,o),
(425,59,cs),
(15,59,l)
);
},
{
closed = 1;
nodes = (
(195,1339,l),
(597,1339,ls),
(747,1339,o),
(850,1218,o),
(829,1069,cs),
(807,917,o),
(668,799,o),
(521,799,cs),
(119,799,l)
);
}
);
width = 993;
}
);
metricLeft = I;
metricRight = O;
unicode = 66;
},
{
glyphname = Bdotbelow;
kernLeft = H;
kernRight = B;
lastChange = "2025-01-17 15:26:41 +0000";
layers = (
{
anchors = (
{
name = bottom;
pos = (594,0);
},
{
name = top;
pos = (612,1401);
}
);
hints = (
{
horizontal = 1;
place = (-16,110);
type = Stem;
},
{
horizontal = 1;
place = (687,108);
type = Stem;
},
{
horizontal = 1;
place = (1345,110);
type = Stem;
},
{
place = (105,125);
type = Stem;
},
{
place = (892,114);
type = Stem;
},
{
place = (806,125);
type = Stem;
},
{
horizontal = 1;
origin = (3,11);
target = (3,5);
type = Stem;
},
{
origin = (3,8);
target = (3,2);
type = Stem;
}
);
layerId = "8CC24B71-6632-46E7-AD4C-7A03FCA973DC";
shapes = (
{
closed = 1;
nodes = (
(590,-1,ls),
(811,-1,o),
(990,178,o),
(990,399,cs),
(990,571,o),
(882,717,o),
(730,774,c),
(838,828,o),
(912,940,o),
(912,1069,cs),
(912,1251,o),
(764,1399,o),
(582,1399,cs),
(120,1399,l),
(120,-1,l)
);
},
{
closed = 1;
nodes = (
(180,739,l),
(590,739,ls),
(773,739,o),
(930,593,o),
(930,399,cs),
(930,204,o),
(772,59,o),
(590,59,cs),
(180,59,l)
);
},
{
closed = 1;
nodes = (
(180,1339,l),
(582,1339,ls),
(732,1339,o),
(852,1218,o),
(852,1069,cs),
(852,917,o),
(729,799,o),
(582,799,cs),
(180,799,l)
);
},
{
closed = 1;
nodes = (
(460,-346,o),
(479,-327,o),
(479,-301,cs),
(479,-275,o),
(459,-256,o),
(434,-256,cs),
(409,-256,o),
(389,-275,o),
(389,-301,cs),
(389,-327,o),
(409,-346,o),
(434,-346,cs)
);
}
);
width = 1070;
},
{
associatedMasterId = "8CC24B71-6632-46E7-AD4C-7A03FCA973DC";
layerId = "65FCF1C4-831F-49C7-9BF6-D3ADA4B58F42";
shapes = (
{
pos = (-141,0);
ref = B;
slant = (8,0);
},
{
alignment = -1;
pos = (236,0);
ref = dotbelowcomb;
slant = (8,0);
}
);
width = 1006;
}
);
metricLeft = I;
metricRight = O;
unicode = 7684;
},
{
glyphname = C;
kernLeft = O;
kernRight = O;
lastChange = "2025-01-17 15:26:41 +0000";
layers = (
{
anchors = (
{
name = bottom;
pos = (779,-28);
},
{
name = top;
pos = (779,1426);
}
);
hints = (
{
horizontal = 1;
place = (-31,136);
type = Stem;
},
{
horizontal = 1;
place = (1422,136);
type = Stem;
},
{
place = (76,136);
type = Stem;
}
);
layerId = "8CC24B71-6632-46E7-AD4C-7A03FCA973DC";
shapes = (
{
closed = 1;
nodes = (
(994,-26,o),
(1192,86,o),
(1318,262,c),
(1266,290,l),
(1156,138,o),
(972,34,o),
(768,34,cs),
(422,34,o),
(140,332,o),
(140,700,cs),
(140,1058,o),
(416,1366,o),
(768,1366,cs),
(962,1366,o),
(1152,1266,o),
(1266,1108,c),
(1318,1136,l),
(1192,1312,o),
(994,1426,o),
(768,1426,cs),
(388,1426,o),
(80,1100,o),
(80,700,cs),
(80,298,o),
(388,-26,o),
(768,-26,cs)
);
}
);
width = 1398;
},
{
anchors = (
{
name = bottom;
pos = (587,-28);
},
{
name = top;
pos = (791,1426);
}
);
associatedMasterId = "8CC24B71-6632-46E7-AD4C-7A03FCA973DC";
hints = (
{
horizontal = 1;
place = (-172,-5);
type = Stem;
},
{
horizontal = 1;
place = (1281,-5);
type = Stem;
},
{
place = (-65,-5);
type = Stem;
}
);
layerId = "65FCF1C4-831F-49C7-9BF6-D3ADA4B58F42";
shapes = (
{
closed = 1;
nodes = (
(795,-26,o),
(1003,79,o),
(1155,248,cs),
(1157,251,o),
(1159,256,o),
(1160,261,cs),
(1162,273,o),
(1154,282,o),
(1142,282,cs),
(1135,282,o),
(1129,279,o),
(1124,274,cs),
(991,130,o),
(800,34,o),
(604,34,cs),
(258,34,o),
(18,332,o),
(70,700,cs),
(120,1058,o),
(439,1366,o),
(791,1366,cs),
(978,1366,o),
(1148,1273,o),
(1244,1124,cs),
(1247,1119,o),
(1252,1116,o),
(1259,1116,cs),
(1271,1116,o),
(1283,1125,o),
(1284,1137,cs),
(1285,1142,o),
(1283,1147,o),
(1281,1150,cs),
(1177,1319,o),
(999,1426,o),
(780,1426,cs),
(400,1426,o),
(46,1100,o),
(-10,700,cs),
(-67,298,o),
(196,-26,o),
(576,-26,cs)
);
}
);
width = 1297;
}
);
metricLeft = O;
metricRight = O;
unicode = 67;
},
{
glyphname = Cacute;
kernLeft = O;
kernRight = O;
lastChange = "2025-01-17 15:26:41 +0000";
layers = (
{
anchors = (
{
name = bottom;
pos = (779,-28);
},
{
name = top;
pos = (732,1492);
}
);
hints = (
{
horizontal = 1;
place = (-31,136);
type = Stem;
},
{
horizontal = 1;
place = (1422,136);
type = Stem;
},
{
place = (76,136);
type = Stem;
},
{
horizontal = 1;
place = (1883,-20);
target = down;
type = TopGhost;
},
{
place = (1177,228);
type = Stem;
},
{
horizontal = 1;
origin = (1,3);
target = down;
type = TopGhost;
},
{
origin = (1,3);
target = (1,2);
type = Stem;
}
);
layerId = "8CC24B71-6632-46E7-AD4C-7A03FCA973DC";
shapes = (
{
closed = 1;
nodes = (
(994,-26,o),
(1192,86,o),
(1318,262,c),
(1266,290,l),
(1156,138,o),
(972,34,o),
(768,34,cs),
(422,34,o),
(140,332,o),
(140,700,cs),
(140,1058,o),
(416,1366,o),
(768,1366,cs),
(962,1366,o),
(1152,1266,o),
(1266,1108,c),
(1318,1136,l),
(1192,1312,o),
(994,1426,o),
(768,1426,cs),
(388,1426,o),
(80,1100,o),
(80,700,cs),
(80,298,o),
(388,-26,o),
(768,-26,cs)
);
},
{
closed = 1;
nodes = (
(848,1890,l),
(765,1890,l),
(683,1602,l),
(722,1602,l)
);
}
);
width = 1398;
},
{
associatedMasterId = "8CC24B71-6632-46E7-AD4C-7A03FCA973DC";
layerId = "65FCF1C4-831F-49C7-9BF6-D3ADA4B58F42";
shapes = (
{
pos = (-141,0);
ref = C;
slant = (8,0);
},
{
pos = (600,492);
ref = acutecomb;
slant = (8,0);
}
);
width = 1297;
}
);
metricLeft = C;
metricRight = C;
unicode = 262;
},
{
glyphname = Ccaron;
kernLeft = O;
kernRight = O;
lastChange = "2025-01-17 15:26:41 +0000";
layers = (
{
anchors = (
{
name = bottom;
pos = (779,-28);
},
{
name = top;
pos = (779,1426);
}
);
hints = (
{
horizontal = 1;
place = (-31,136);
type = Stem;
},
{
horizontal = 1;
place = (1422,136);
type = Stem;
},
{
place = (76,136);
type = Stem;
},
{
horizontal = 1;
place = (2083,21);
target = up;
type = BottomGhost;
},
{
horizontal = 1;
place = (1609,-8);
type = Stem;
}
);
layerId = "8CC24B71-6632-46E7-AD4C-7A03FCA973DC";
shapes = (
{
closed = 1;
nodes = (
(994,-26,o),
(1192,86,o),
(1318,262,c),
(1266,290,l),
(1156,138,o),
(972,34,o),
(768,34,cs),
(422,34,o),
(140,332,o),
(140,700,cs),
(140,1058,o),
(416,1366,o),
(768,1366,cs),
(962,1366,o),
(1152,1266,o),
(1266,1108,c),
(1318,1136,l),
(1192,1312,o),
(994,1426,o),
(768,1426,cs),
(388,1426,o),
(80,1100,o),
(80,700,cs),
(80,298,o),
(388,-26,o),
(768,-26,cs)
);
},
{
closed = 1;
nodes = (
(789,1599,l),
(980,1887,l),
(940,1887,l),
(760,1677,l),
(577,1887,l),
(537,1887,l),
(729,1599,l)
);
}
);
width = 1398;
},
{
associatedMasterId = "8CC24B71-6632-46E7-AD4C-7A03FCA973DC";
hints = (
{
horizontal = 1;
place = (1226,-20);
target = down;
type = TopGhost;
}
);
layerId = "65FCF1C4-831F-49C7-9BF6-D3ADA4B58F42";
shapes = (
{
pos = (-141,0);
ref = C;
slant = (8,0);
},
{
alignment = -1;
angle = 180;
pos = (1166,2997);
ref = circumflexcomb;
slant = (8,0);
}
);
width = 1297;
}
);
metricLeft = C;
metricRight = C;
unicode = 268;
},
{
glyphname = Ccedilla;
kernLeft = O;
kernRight = O;
lastChange = "2025-01-17 15:26:41 +0000";
layers = (
{
anchors = (
{
name = bottom;
pos = (771,-20);
},
{
name = top;
pos = (779,1426);
}
);
hints = (
{
horizontal = 1;
place = (-31,136);
type = Stem;
},
{
horizontal = 1;
place = (1422,136);
type = Stem;
},
{
place = (76,136);
type = Stem;
},
{
horizontal = 1;
place = (-326,113);
type = Stem;
},
{
place = (1304,113);
type = Stem;
}
);
layerId = "8CC24B71-6632-46E7-AD4C-7A03FCA973DC";
shapes = (
{
closed = 1;
nodes = (
(862,-360,o),
(908,-280,o),
(887,-203,cs),
(872,-147,o),
(826,-107,o),
(772,-98,c),
(814,-24,l),
(1020,-10,o),
(1201,99,o),
(1318,262,c),
(1266,290,l),
(1156,138,o),
(972,34,o),
(768,34,cs),
(422,34,o),
(140,332,o),
(140,700,cs),
(140,1058,o),
(416,1366,o),
(768,1366,cs),
(962,1366,o),
(1152,1266,o),
(1266,1108,c),
(1318,1136,l),
(1192,1312,o),
(994,1426,o),
(768,1426,cs),
(388,1426,o),
(80,1100,o),
(80,700,cs),
(80,306,o),
(376,-13,o),
(744,-26,c),
(656,-178,l),
(726,-159,ls),
(771,-147,o),
(817,-174,o),
(829,-219,cs),
(842,-264,o),
(815,-310,o),
(770,-322,cs),
(725,-334,o),
(679,-307,o),
(667,-263,c),
(609,-278,l),
(629,-355,o),
(709,-401,o),
(785,-380,cs)
);
}
);
width = 1398;
},
{
associatedMasterId = "8CC24B71-6632-46E7-AD4C-7A03FCA973DC";
layerId = "65FCF1C4-831F-49C7-9BF6-D3ADA4B58F42";
shapes = (
{
pos = (-141,0);
ref = C;
slant = (8,0);
},
{
pos = (350,-20);
ref = cedillacomb;
slant = (8,0);
}
);
width = 1297;
}
);
metricLeft = C;
metricRight = C;
unicode = 199;
},
{
glyphname = Ccircumflex;
kernLeft = O;
kernRight = O;
lastChange = "2025-01-17 15:26:41 +0000";
layers = (
{
anchors = (
{
name = bottom;
pos = (779,-28);
},
{
name = top;
pos = (826,1838);
}
);
hints = (
{
horizontal = 1;
place = (-31,136);
type = Stem;
},
{
horizontal = 1;
place = (1422,136);
type = Stem;
},
{
place = (76,136);
type = Stem;
},
{
horizontal = 1;
place = (1405,-20);
target = down;
type = TopGhost;
},
{
horizontal = 1;
place = (1879,8);
type = Stem;
}
);
layerId = "8CC24B71-6632-46E7-AD4C-7A03FCA973DC";
shapes = (
{
closed = 1;
nodes = (
(994,-26,o),
(1192,86,o),
(1318,262,c),
(1266,290,l),
(1156,138,o),
(972,34,o),
(768,34,cs),
(422,34,o),
(140,332,o),
(140,700,cs),
(140,1058,o),
(416,1366,o),
(768,1366,cs),
(962,1366,o),
(1152,1266,o),
(1266,1108,c),
(1318,1136,l),
(1192,1312,o),
(994,1426,o),
(768,1426,cs),
(388,1426,o),
(80,1100,o),
(80,700,cs),
(80,298,o),
(388,-26,o),
(768,-26,cs)
);
},
{
closed = 1;
nodes = (
(593,1601,l),
(773,1810,l),
(956,1601,l),
(996,1601,l),
(804,1889,l),
(744,1889,l),
(553,1601,l)
);
}
);
width = 1398;
},
{
associatedMasterId = "8CC24B71-6632-46E7-AD4C-7A03FCA973DC";
layerId = "65FCF1C4-831F-49C7-9BF6-D3ADA4B58F42";
shapes = (
{
pos = (-141,0);
ref = C;
slant = (8,0);
},
{
pos = (346,491);
ref = circumflexcomb;
slant = (8,0);
}
);
width = 1297;
}
);
metricLeft = C;
metricRight = C;
unicode = 264;
},
{
glyphname = Cdotaccent;
kernLeft = O;
kernRight = O;
lastChange = "2025-01-17 15:26:41 +0000";
layers = (
{
anchors = (
{
name = bottom;
pos = (779,-28);
},
{
name = top;
pos = (699,1456);
}
);
hints = (
{
horizontal = 1;
place = (-31,136);
type = Stem;
},
{
horizontal = 1;
place = (1422,136);
type = Stem;
},
{
place = (76,136);
type = Stem;
},
{
horizontal = 1;
origin = (1,11);
target = (1,5);
type = Stem;
},
{
origin = (1,8);
target = (1,2);
type = Stem;
}
);
layerId = "8CC24B71-6632-46E7-AD4C-7A03FCA973DC";
shapes = (
{
closed = 1;
nodes = (
(994,-26,o),
(1192,86,o),
(1318,262,c),
(1266,290,l),
(1156,138,o),
(972,34,o),
(768,34,cs),
(422,34,o),
(140,332,o),
(140,700,cs),
(140,1058,o),
(416,1366,o),
(768,1366,cs),
(962,1366,o),
(1152,1266,o),
(1266,1108,c),
(1318,1136,l),
(1192,1312,o),
(994,1426,o),
(768,1426,cs),
(388,1426,o),
(80,1100,o),
(80,700,cs),
(80,298,o),
(388,-26,o),
(768,-26,cs)
);
},
{
closed = 1;
nodes = (
(725,1653,o),
(744,1672,o),
(744,1698,cs),
(744,1724,o),
(724,1743,o),
(699,1743,cs),
(674,1743,o),
(654,1724,o),
(654,1698,cs),
(654,1672,o),
(674,1653,o),
(699,1653,cs)
);
}
);
width = 1398;
},
{
associatedMasterId = "8CC24B71-6632-46E7-AD4C-7A03FCA973DC";
layerId = "65FCF1C4-831F-49C7-9BF6-D3ADA4B58F42";
shapes = (
{
pos = (-141,0);
ref = C;
slant = (8,0);
},
{
pos = (513,423);
ref = dotaccentcomb;
slant = (8,0);
}
);
width = 1297;
}
);
metricLeft = C;
metricRight = C;
unicode = 266;
},
{
glyphname = D;
kernLeft = O;
kernRight = O;
lastChange = "2025-01-17 15:26:41 +0000";
layers = (
{
anchors = (
{
name = bottom;
pos = (526,0);
},
{
name = center;
pos = (572,761);
},
{
name = top;
pos = (526,1401);
}
);
hints = (
{
horizontal = 1;
place = (-19,121);
type = Stem;
},
{
horizontal = 1;
place = (1381,121);
type = Stem;
},
{
place = (101,121);
type = Stem;
},
{
place = (1124,121);
type = Stem;
}
);
layerId = "8CC24B71-6632-46E7-AD4C-7A03FCA973DC";
shapes = (
{
closed = 1;
nodes = (
(526,0,ls),
(889,0,o),
(1143,288,o),
(1143,700,cs),
(1143,1039,o),
(981,1401,o),
(526,1401,cs),
(120,1401,l),
(120,0,l)
);
},
{
closed = 1;
nodes = (
(180,1340,l),
(542,1340,ls),
(842,1340,o),
(1083,1112,o),
(1083,701,cs),
(1083,318,o),
(842,61,o),
(542,61,cs),
(180,61,l)
);
}
);
width = 1223;
},
{
anchors = (
{
name = bottom;
pos = (334,0);
},
{
name = center;
pos = (487,761);
},
{
name = top;
pos = (531,1401);
}
);
associatedMasterId = "8CC24B71-6632-46E7-AD4C-7A03FCA973DC";
hints = (
{
horizontal = 1;
place = (-160,-20);
type = Stem;
},
{
horizontal = 1;
place = (1240,-20);
type = Stem;
},
{
place = (-40,-20);
type = Stem;
},
{
place = (983,-20);
type = Stem;
}
);
layerId = "65FCF1C4-831F-49C7-9BF6-D3ADA4B58F42";
shapes = (
{
closed = 1;
nodes = (
(334,0,ls),
(697,0,o),
(992,288,o),
(1050,700,cs),
(1097,1039,o),
(986,1401,o),
(531,1401,cs),
(157,1401,ls),
(137,1401,o),
(124,1389,o),
(121,1369,cs),
(-67,32,ls),
(-70,12,o),
(-60,0,o),
(-40,0,cs)
);
},
{
closed = 1;
nodes = (
(197,1340,l),
(559,1340,ls),
(859,1340,o),
(1068,1112,o),
(1010,701,cs),
(956,318,o),
(679,61,o),
(379,61,cs),
(17,61,l)
);
}
);
width = 1124;
}
);
metricLeft = I;
metricRight = O;
unicode = 68;
},
{
glyphname = Dcaron;
kernLeft = H;
kernRight = O;
lastChange = "2025-01-17 15:26:41 +0000";
layers = (
{
anchors = (
{
name = bottom;
pos = (350,1621);
},
{
name = center;
pos = (559,761);
},
{
name = top;
pos = (513,1401);
}
);
hints = (
{
horizontal = 1;
place = (1375,-20);
target = down;
type = TopGhost;
},
{
horizontal = 1;
place = (-19,121);
type = Stem;
},
{
horizontal = 1;
place = (1381,121);
type = Stem;
},
{
place = (88,121);
type = Stem;
},
{
place = (1111,121);
type = Stem;
},
{
horizontal = 1;
place = (2054,21);
target = up;
type = BottomGhost;
},
{
horizontal = 1;
place = (1580,-8);
type = Stem;
}
);
layerId = "8CC24B71-6632-46E7-AD4C-7A03FCA973DC";
shapes = (
{
closed = 1;
nodes = (
(513,0,ls),
(876,0,o),
(1130,288,o),
(1130,700,cs),
(1130,1039,o),
(968,1401,o),
(513,1401,cs),
(107,1401,l),
(107,0,l)
);
},
{
closed = 1;
nodes = (
(167,1340,l),
(529,1340,ls),
(829,1340,o),
(1070,1112,o),
(1070,701,cs),
(1070,318,o),
(829,61,o),
(529,61,cs),
(167,61,l)
);
},
{
closed = 1;
nodes = (
(583,1858,l),
(403,1649,l),
(220,1858,l),
(180,1858,l),
(372,1570,l),
(432,1570,l),
(623,1858,l)
);
}
);
width = 1137;
},
{
associatedMasterId = "8CC24B71-6632-46E7-AD4C-7A03FCA973DC";
hints = (
{
horizontal = 1;
place = (1234,-20);
target = down;
type = TopGhost;
}
);
layerId = "65FCF1C4-831F-49C7-9BF6-D3ADA4B58F42";
shapes = (
{
pos = (-154,0);
ref = D;
slant = (8,0);
},
{
alignment = -1;
angle = 180;
pos = (912,2968);
ref = circumflexcomb;
slant = (8,0);
}
);
width = 1137;
}
);
unicode = 270;
},
{
glyphname = Ddotbelow;
kernLeft = H;
kernRight = O;
lastChange = "2025-01-17 15:26:41 +0000";
layers = (
{
anchors = (
{
name = bottom;
pos = (513,0);
},
{
name = center;
pos = (559,761);
},
{
name = top;
pos = (413,-548);
}
);
hints = (
{
horizontal = 1;
place = (-19,121);
type = Stem;
},
{
horizontal = 1;
place = (1381,121);
type = Stem;
},
{
place = (88,121);
type = Stem;
},
{
place = (1111,121);
type = Stem;
},
{
horizontal = 1;
origin = (2,11);
target = (2,5);
type = Stem;
},
{
origin = (2,8);
target = (2,2);
type = Stem;
}
);
layerId = "8CC24B71-6632-46E7-AD4C-7A03FCA973DC";
shapes = (
{
closed = 1;
nodes = (
(513,0,ls),
(876,0,o),
(1130,288,o),
(1130,700,cs),
(1130,1039,o),
(968,1401,o),
(513,1401,cs),
(107,1401,l),
(107,0,l)
);
},
{
closed = 1;
nodes = (
(167,1340,l),
(529,1340,ls),
(829,1340,o),
(1070,1112,o),
(1070,701,cs),
(1070,318,o),
(829,61,o),
(529,61,cs),
(167,61,l)
);
},
{
closed = 1;
nodes = (
(439,-351,o),
(458,-332,o),
(458,-306,cs),
(458,-280,o),
(438,-261,o),
(413,-261,cs),
(388,-261,o),
(368,-280,o),
(368,-306,cs),
(368,-332,o),
(388,-351,o),
(413,-351,cs)
);
}
);
width = 1137;
},
{
associatedMasterId = "8CC24B71-6632-46E7-AD4C-7A03FCA973DC";
layerId = "65FCF1C4-831F-49C7-9BF6-D3ADA4B58F42";
shapes = (
{
pos = (-154,0);
ref = D;
slant = (8,0);
},
{
alignment = -1;
pos = (-7,-1581);
ref = dotaccentcomb;
slant = (8,0);
}
);
width = 1137;
}
);
unicode = 7692;
},
{
glyphname = Eth;
kernLeft = H;
kernRight = O;
lastChange = "2025-01-17 15:26:41 +0000";
layers = (
{
anchors = (
{
name = bottom;
pos = (586,0);
},
{
name = center;
pos = (632,761);
},
{
name = top;
pos = (586,1401);
}
);
hints = (
{
horizontal = 1;
place = (-9,131);
type = Stem;
},
{
horizontal = 1;
origin = (0,12);
target = (0,11);
type = Stem;
},
{
horizontal = 1;
place = (1391,-149);
type = Stem;
},
{
origin = (0,12);
place = (0,264);
type = Stem;
},
{
place = (1246,131);
type = Stem;
},
{
horizontal = 1;
place = (-19,121);
type = Stem;
},
{
horizontal = 1;
place = (1381,121);
type = Stem;
},
{
place = (161,121);
type = Stem;
},
{
place = (1184,121);
type = Stem;
}
);
layerId = "8CC24B71-6632-46E7-AD4C-7A03FCA973DC";
shapes = (
{
closed = 1;
nodes = (
(180,714,l),
(180,0,l),
(586,0,ls),
(949,0,o),
(1203,288,o),
(1203,700,cs),
(1203,1039,o),
(1041,1401,o),
(586,1401,cs),
(180,1401,l),
(180,774,l),
(0,774,l),
(0,714,l)
);
},
{
closed = 1;
nodes = (
(240,714,l),
(618,714,l),
(618,774,l),
(240,774,l),
(240,1340,l),
(602,1340,ls),
(902,1340,o),
(1143,1112,o),
(1143,701,cs),
(1143,318,o),
(902,61,o),
(602,61,cs),
(240,61,l)
);
}
);
width = 1283;
},
{
associatedMasterId = "8CC24B71-6632-46E7-AD4C-7A03FCA973DC";
hints = (
{
horizontal = 1;
place = (-150,-10);
type = Stem;
},
{
horizontal = 1;
origin = (1,0);
target = (1,8);
type = Stem;
},
{
horizontal = 1;
place = (1250,-290);
type = Stem;
},
{
origin = (1,0);
place = (-13,123);
type = Stem;
},
{
place = (1105,-10);
type = Stem;
}
);
layerId = "65FCF1C4-831F-49C7-9BF6-D3ADA4B58F42";
shapes = (
{
pos = (-81,0);
ref = D;
slant = (8,0);
},
{
closed = 1;
nodes = (
(-13,714,cs),
(551,714,ls),
(567,714,o),
(583,727,o),
(585,744,cs),
(587,761,o),
(575,774,o),
(559,774,cs),
(-5,774,ls),
(-21,774,o),
(-37,761,o),
(-39,744,cs),
(-41,727,o),
(-29,714,o)
);
}
);
width = 1185;
}
);
metricRight = D;
unicode = 208;
},
{
glyphname = E;
kernLeft = H;
kernRight = E;
lastChange = "2025-01-17 15:26:41 +0000";
layers = (
{
anchors = (
{
name = bottom;
pos = (589,0);
},
{
name = ogonek;
pos = (988,0);
},
{
name = top;
pos = (542,1400);
},
{
name = topleft;
pos = (120,1399);
}
);
hints = (
{
horizontal = 1;
place = (-14,127);
type = Stem;
},
{
horizontal = 1;
place = (667,127);
type = Stem;
},
{
horizontal = 1;
place = (1387,127);
type = Stem;
},
{
place = (107,127);
type = Stem;
}
);
layerId = "8CC24B71-6632-46E7-AD4C-7A03FCA973DC";
shapes = (
{
closed = 1;
nodes = (
(1011,0,l),
(1011,60,l),
(180,60,l),
(180,688,l),
(892,688,l),
(892,748,l),
(180,748,l),
(180,1339,l),
(984,1339,l),
(984,1399,l),
(120,1399,l),
(120,0,l)
);
}
);
width = 1131;
},
{
anchors = (
{
name = bottom;
pos = (397,0);
},
{
name = ogonek;
pos = (796,0);
},
{
name = top;
pos = (547,1400);
},
{
name = topleft;
pos = (125,1399);
}
);
associatedMasterId = "8CC24B71-6632-46E7-AD4C-7A03FCA973DC";
hints = (
{
horizontal = 1;
place = (-155,-14);
type = Stem;
},
{
horizontal = 1;
place = (526,-14);
type = Stem;
},
{
horizontal = 1;
place = (1246,-14);
type = Stem;
},
{
place = (-34,-14);
type = Stem;
}
);
layerId = "65FCF1C4-831F-49C7-9BF6-D3ADA4B58F42";
shapes = (
{
closed = 1;
nodes = (
(769,0,ls),
(785,0,o),
(801,13,o),
(804,30,cs),
(806,47,o),
(794,60,o),
(778,60,cs),
(15,60,l),
(103,688,l),
(688,688,ls),
(704,688,o),
(720,701,o),
(722,718,cs),
(725,735,o),
(713,748,o),
(697,748,cs),
(112,748,l),
(195,1339,l),
(901,1339,ls),
(917,1339,o),
(932,1352,o),
(935,1369,cs),
(937,1386,o),
(925,1399,o),
(909,1399,cs),
(157,1399,ls),
(137,1399,o),
(123,1387,o),
(121,1367,cs),
(-67,32,ls),
(-70,12,o),
(-60,0,o),
(-40,0,cs)
);
}
);
width = 994;
}
);
metricLeft = I;
metricRight = H;
unicode = 69;
},
{
glyphname = Eacute;
kernLeft = H;
kernRight = E;
lastChange = "2025-01-17 15:26:41 +0000";
layers = (
{
anchors = (
{
name = bottom;
pos = (589,0);
},
{
name = ogonek;
pos = (988,0);
},
{
name = top;
pos = (535,1461);
},
{
name = topleft;
pos = (120,1399);
}
);
hints = (
{
horizontal = 1;
place = (-14,127);
type = Stem;
},
{
horizontal = 1;
place = (667,127);
type = Stem;
},
{
horizontal = 1;
place = (1387,127);
type = Stem;
},
{
place = (107,127);
type = Stem;
},
{
horizontal = 1;
place = (1852,-20);
target = down;
type = TopGhost;
},
{
place = (980,228);
type = Stem;
},
{
horizontal = 1;
origin = (1,3);
target = down;
type = TopGhost;
},
{
origin = (1,3);
target = (1,2);
type = Stem;
}
);
layerId = "8CC24B71-6632-46E7-AD4C-7A03FCA973DC";
shapes = (
{
closed = 1;
nodes = (
(1011,0,l),
(1011,60,l),
(180,60,l),
(180,688,l),
(892,688,l),
(892,748,l),
(180,748,l),
(180,1339,l),
(984,1339,l),
(984,1399,l),
(120,1399,l),
(120,0,l)
);
},
{
closed = 1;
nodes = (
(651,1859,l),
(568,1859,l),
(486,1571,l),
(525,1571,l)
);
}
);
width = 1131;
},
{
associatedMasterId = "8CC24B71-6632-46E7-AD4C-7A03FCA973DC";
layerId = "65FCF1C4-831F-49C7-9BF6-D3ADA4B58F42";
shapes = (
{
pos = (-141,0);
ref = E;
slant = (8,0);
},
{
pos = (398,461);
ref = acutecomb;
slant = (8,0);
}
);
width = 994;
}
);
metricLeft = I;
metricRight = E;
unicode = 201;
},
{
glyphname = Ecaron;
kernLeft = H;
kernRight = E;
lastChange = "2025-01-17 15:26:41 +0000";
layers = (
{
anchors = (
{
name = bottom;
pos = (410,1621);
},
{
name = ogonek;
pos = (975,0);
},
{
name = top;
pos = (529,1400);
},
{
name = topleft;
pos = (107,1399);
}
);
hints = (
{
horizontal = 1;
place = (1374,-20);
target = down;
type = TopGhost;
},
{
horizontal = 1;
place = (-14,127);
type = Stem;
},
{
horizontal = 1;
place = (667,127);
type = Stem;
},
{
horizontal = 1;
place = (1387,127);
type = Stem;
},
{
place = (94,127);
type = Stem;
},
{
horizontal = 1;
place = (2054,21);
target = up;
type = BottomGhost;
},
{
horizontal = 1;
place = (1580,-8);
type = Stem;
}
);
layerId = "8CC24B71-6632-46E7-AD4C-7A03FCA973DC";
shapes = (
{
closed = 1;
nodes = (
(998,0,l),
(998,60,l),
(167,60,l),
(167,688,l),
(879,688,l),
(879,748,l),
(167,748,l),
(167,1339,l),
(971,1339,l),
(971,1399,l),
(107,1399,l),
(107,0,l)
);
},
{
closed = 1;
nodes = (
(643,1858,l),
(463,1649,l),
(280,1858,l),
(240,1858,l),
(432,1570,l),
(492,1570,l),
(683,1858,l)
);
}
);
width = 981;
},
{
associatedMasterId = "8CC24B71-6632-46E7-AD4C-7A03FCA973DC";
hints = (
{
horizontal = 1;
place = (1233,-20);
target = down;
type = TopGhost;
}
);
layerId = "65FCF1C4-831F-49C7-9BF6-D3ADA4B58F42";
shapes = (
{
pos = (-154,0);
ref = E;
slant = (8,0);
},
{
alignment = -1;
angle = 180;
pos = (1002,2968);
ref = circumflexcomb;
slant = (8,0);
}
);
width = 981;
}
);
unicode = 282;
},
{
glyphname = Ecircumflex;
kernLeft = H;
kernRight = E;
lastChange = "2025-01-17 15:26:41 +0000";
layers = (
{
anchors = (
{
name = bottom;
pos = (589,0);
},
{
name = ogonek;
pos = (988,0);
},
{
name = top;
pos = (617,1808);
},
{
name = topleft;
pos = (120,1399);
}
);
hints = (
{
horizontal = 1;
place = (-14,127);
type = Stem;
},
{
horizontal = 1;
place = (667,127);
type = Stem;
},
{
horizontal = 1;
place = (1387,127);
type = Stem;
},
{
place = (107,127);
type = Stem;
},
{
horizontal = 1;
place = (1375,-20);
target = down;
type = TopGhost;
},
{
horizontal = 1;
place = (1849,8);
type = Stem;
}
);
layerId = "8CC24B71-6632-46E7-AD4C-7A03FCA973DC";
shapes = (
{
closed = 1;
nodes = (
(1011,0,l),
(1011,60,l),
(180,60,l),
(180,688,l),
(892,688,l),
(892,748,l),
(180,748,l),
(180,1339,l),
(984,1339,l),
(984,1399,l),
(120,1399,l),
(120,0,l)
);
},
{
closed = 1;
nodes = (
(384,1571,l),
(564,1780,l),
(747,1571,l),
(787,1571,l),
(595,1859,l),
(535,1859,l),
(344,1571,l)
);
}
);
width = 1131;
},
{
associatedMasterId = "8CC24B71-6632-46E7-AD4C-7A03FCA973DC";
layerId = "65FCF1C4-831F-49C7-9BF6-D3ADA4B58F42";
shapes = (
{
pos = (-141,0);
ref = E;
slant = (8,0);
},
{
pos = (195,461);
ref = circumflexcomb;
slant = (8,0);
}
);
width = 994;
}
);
metricLeft = E;
metricRight = E;
unicode = 202;
},
{
glyphname = Ecircumflexdotbelow;
kernLeft = H;
kernRight = E;
lastChange = "2025-01-17 15:26:41 +0000";
layers = (
{
anchors = (
{
name = bottom;
pos = (589,0);
},
{
name = ogonek;
pos = (988,0);
},
{
name = top;
pos = (617,1807);
},
{
name = topleft;
pos = (120,1399);
}
);
hints = (
{
horizontal = 1;
place = (-14,127);
type = Stem;
},
{
horizontal = 1;
place = (667,127);
type = Stem;
},
{
horizontal = 1;
place = (1387,127);
type = Stem;
},
{
place = (107,127);
type = Stem;
},
{
horizontal = 1;
origin = (1,11);
target = (1,5);
type = Stem;
},
{
origin = (1,8);
target = (1,2);
type = Stem;
},
{
horizontal = 1;
place = (1374,-20);
target = down;
type = TopGhost;
},
{
horizontal = 1;
place = (1848,8);
type = Stem;
}
);
layerId = "8CC24B71-6632-46E7-AD4C-7A03FCA973DC";
shapes = (
{
closed = 1;
nodes = (
(1011,0,l),
(1011,60,l),
(180,60,l),
(180,688,l),
(892,688,l),
(892,748,l),
(180,748,l),
(180,1339,l),
(984,1339,l),
(984,1399,l),
(120,1399,l),
(120,0,l)
);
},
{
closed = 1;
nodes = (
(592,-346,o),
(611,-327,o),
(611,-301,cs),
(611,-275,o),
(591,-256,o),
(566,-256,cs),
(541,-256,o),
(521,-275,o),
(521,-301,cs),
(521,-327,o),
(541,-346,o),
(566,-346,cs)
);
},
{
closed = 1;
nodes = (
(384,1570,l),
(564,1779,l),
(747,1570,l),
(787,1570,l),
(595,1858,l),
(535,1858,l),
(344,1570,l)
);
}
);
width = 1131;
},
{
associatedMasterId = "8CC24B71-6632-46E7-AD4C-7A03FCA973DC";
layerId = "65FCF1C4-831F-49C7-9BF6-D3ADA4B58F42";
shapes = (
{
pos = (-141,0);
ref = E;
slant = (8,0);
},
{
pos = (306,0);
ref = dotbelowcomb;
slant = (8,0);
},
{
pos = (195,460);
ref = circumflexcomb;
slant = (8,0);
}
);
width = 994;
}
);
metricLeft = E;
metricRight = E;
unicode = 7878;
},
{
glyphname = Edieresis;
kernLeft = H;
kernRight = E;
lastChange = "2025-01-17 15:26:41 +0000";
layers = (
{
anchors = (
{
name = bottom;
pos = (589,0);
},
{
name = ogonek;
pos = (988,0);
},
{
name = top;
pos = (612,1307);
},
{
name = topleft;
pos = (120,1399);
}
);
hints = (
{
horizontal = 1;
place = (-14,127);
type = Stem;
},
{
horizontal = 1;
place = (667,127);
type = Stem;
},
{
horizontal = 1;
place = (1387,127);
type = Stem;
},
{
place = (107,127);
type = Stem;
},
{
horizontal = 1;
place = (1483,90);
type = Stem;
},
{
place = (522,90);
type = Stem;
},
{
place = (522,90);
type = Stem;
},
{
horizontal = 1;
origin = (1,11);
target = (1,5);
type = Stem;
},
{
origin = (1,8);
target = (1,2);
type = Stem;
},
{
horizontal = 1;
origin = (2,11);
target = (2,5);
type = Stem;
},
{
origin = (2,8);
target = (2,2);
type = Stem;
}
);
layerId = "8CC24B71-6632-46E7-AD4C-7A03FCA973DC";
shapes = (
{
closed = 1;
nodes = (
(1011,0,l),
(1011,60,l),
(180,60,l),
(180,688,l),
(892,688,l),
(892,748,l),
(180,748,l),
(180,1339,l),
(984,1339,l),
(984,1399,l),
(120,1399,l),
(120,0,l)
);
},
{
closed = 1;
nodes = (
(764,1537,o),
(783,1556,o),
(783,1582,cs),
(783,1608,o),
(763,1627,o),
(738,1627,cs),
(713,1627,o),
(693,1608,o),
(693,1582,cs),
(693,1556,o),
(713,1537,o),
(738,1537,cs)
);
},
{
closed = 1;
nodes = (
(420,1537,o),
(439,1556,o),
(439,1582,cs),
(439,1608,o),
(419,1627,o),
(394,1627,cs),
(369,1627,o),
(349,1608,o),
(349,1582,cs),
(349,1556,o),
(369,1537,o),
(394,1537,cs)
);
}
);
width = 1131;
},
{
associatedMasterId = "8CC24B71-6632-46E7-AD4C-7A03FCA973DC";
layerId = "65FCF1C4-831F-49C7-9BF6-D3ADA4B58F42";
shapes = (
{
pos = (-141,0);
ref = E;
slant = (8,0);
},
{
pos = (204,371);
ref = dieresis;
slant = (8,0);
}
);
width = 994;
}
);
metricLeft = E;
metricRight = E;
unicode = 203;
},
{
glyphname = Edotaccent;
kernLeft = H;
kernRight = E;
lastChange = "2025-01-17 15:26:41 +0000";
layers = (
{
anchors = (
{
name = bottom;
pos = (589,0);
},
{
name = ogonek;
pos = (988,0);
},
{
name = top;
pos = (566,1358);
},
{
name = topleft;
pos = (120,1399);
}
);
hints = (
{
horizontal = 1;
place = (-14,127);
type = Stem;
},
{
horizontal = 1;
place = (667,127);
type = Stem;
},
{
horizontal = 1;
place = (1387,127);
type = Stem;
},
{
place = (107,127);
type = Stem;
},
{
horizontal = 1;
origin = (1,11);
target = (1,5);
type = Stem;
},
{
origin = (1,8);
target = (1,2);
type = Stem;
}
);
layerId = "8CC24B71-6632-46E7-AD4C-7A03FCA973DC";
shapes = (
{
closed = 1;
nodes = (
(1011,0,l),
(1011,60,l),
(180,60,l),
(180,688,l),
(892,688,l),
(892,748,l),
(180,748,l),
(180,1339,l),
(984,1339,l),
(984,1399,l),
(120,1399,l),
(120,0,l)
);
},
{
closed = 1;
nodes = (
(592,1555,o),
(611,1574,o),
(611,1600,cs),
(611,1626,o),
(591,1645,o),
(566,1645,cs),
(541,1645,o),
(521,1626,o),
(521,1600,cs),
(521,1574,o),
(541,1555,o),
(566,1555,cs)
);
}
);
width = 1131;
},
{
associatedMasterId = "8CC24B71-6632-46E7-AD4C-7A03FCA973DC";
layerId = "65FCF1C4-831F-49C7-9BF6-D3ADA4B58F42";
shapes = (
{
pos = (-141,0);
ref = E;
slant = (8,0);
},
{
pos = (358,369);
ref = dotaccentcomb;
slant = (8,0);
}
);
width = 994;
}
);
metricLeft = E;
metricRight = E;
unicode = 278;
},
{
glyphname = Edotbelow;
kernLeft = H;
kernRight = E;
lastChange = "2025-01-17 15:26:41 +0000";
layers = (
{
anchors = (
{
name = bottom;
pos = (589,0);
},
{
name = ogonek;
pos = (988,0);
},
{
name = top;
pos = (566,-548);
},
{
name = topleft;
pos = (120,1399);
}
);
hints = (
{
horizontal = 1;
place = (-14,127);
type = Stem;
},
{
horizontal = 1;
place = (667,127);
type = Stem;
},
{
horizontal = 1;
place = (1387,127);
type = Stem;
},
{
place = (107,127);
type = Stem;
},
{
horizontal = 1;
origin = (1,11);
target = (1,5);
type = Stem;
},
{
origin = (1,8);
target = (1,2);
type = Stem;
}
);
layerId = "8CC24B71-6632-46E7-AD4C-7A03FCA973DC";
shapes = (
{
closed = 1;
nodes = (
(1011,0,l),
(1011,60,l),
(180,60,l),
(180,688,l),
(892,688,l),
(892,748,l),
(180,748,l),
(180,1339,l),
(984,1339,l),
(984,1399,l),
(120,1399,l),
(120,0,l)
);
},
{
closed = 1;
nodes = (
(592,-351,o),
(611,-332,o),
(611,-306,cs),
(611,-280,o),
(591,-261,o),
(566,-261,cs),
(541,-261,o),
(521,-280,o),
(521,-306,cs),
(521,-332,o),
(541,-351,o),
(566,-351,cs)
);
}
);
width = 1131;
},
{
associatedMasterId = "8CC24B71-6632-46E7-AD4C-7A03FCA973DC";
layerId = "65FCF1C4-831F-49C7-9BF6-D3ADA4B58F42";
shapes = (
{
pos = (-141,0);
ref = E;
slant = (8,0);
},
{
alignment = -1;
pos = (84,-1581);
ref = dotaccentcomb;
slant = (8,0);
}
);
width = 994;
}
);
metricLeft = E;
metricRight = E;
unicode = 7864;
},
{
glyphname = Egrave;
kernLeft = H;
kernRight = E;
lastChange = "2025-01-17 15:26:41 +0000";
layers = (
{
anchors = (
{
name = bottom;
pos = (589,0);
},
{
name = ogonek;
pos = (988,0);
},
{
name = top;
pos = (514,1767);
},
{
name = topleft;
pos = (120,1399);
}
);
hints = (
{
horizontal = 1;
place = (-14,127);
type = Stem;
},
{
horizontal = 1;
place = (667,127);
type = Stem;
},
{
horizontal = 1;
place = (1387,127);
type = Stem;
},
{
place = (107,127);
type = Stem;
},
{
horizontal = 1;
origin = (1,2);
target = down;
type = TopGhost;
},
{
origin = (1,2);
target = (1,0);
type = Stem;
}
);
layerId = "8CC24B71-6632-46E7-AD4C-7A03FCA973DC";
shapes = (
{
closed = 1;
nodes = (
(1011,0,l),
(1011,60,l),
(180,60,l),
(180,688,l),
(892,688,l),
(892,748,l),
(180,748,l),
(180,1339,l),
(984,1339,l),
(984,1399,l),
(120,1399,l),
(120,0,l)
);
},
{
closed = 1;
nodes = (
(515,1530,l),
(433,1818,l),
(350,1818,l),
(476,1530,l)
);
}
);
width = 1131;
},
{
associatedMasterId = "8CC24B71-6632-46E7-AD4C-7A03FCA973DC";
layerId = "65FCF1C4-831F-49C7-9BF6-D3ADA4B58F42";
shapes = (
{
pos = (-141,0);
ref = E;
slant = (8,0);
},
{
pos = (262,458);
ref = gravecomb;
slant = (8,0);
}
);
width = 994;
}
);
metricLeft = E;
metricRight = E;
unicode = 200;
},
{
glyphname = Emacron;
kernLeft = H;
kernRight = E;
lastChange = "2025-01-17 15:26:41 +0000";
layers = (
{
anchors = (
{
name = bottom;
pos = (589,0);
},
{
name = ogonek;
pos = (988,0);
},
{
name = top;
pos = (542,1400);
},
{
name = topleft;
pos = (120,1399);
}
);
hints = (
{
horizontal = 1;
place = (-14,127);
type = Stem;
},
{
horizontal = 1;
place = (667,127);
type = Stem;
},
{
horizontal = 1;
place = (1387,127);
type = Stem;
},
{
place = (107,127);
type = Stem;
},
{
horizontal = 1;
origin = (1,3);
target = (1,2);
type = Stem;
}
);
layerId = "8CC24B71-6632-46E7-AD4C-7A03FCA973DC";
shapes = (
{
closed = 1;
nodes = (
(1011,0,l),
(1011,60,l),
(180,60,l),
(180,688,l),
(892,688,l),
(892,748,l),
(180,748,l),
(180,1339,l),
(984,1339,l),
(984,1399,l),
(120,1399,l),
(120,0,l)
);
},
{
closed = 1;
nodes = (
(904,1617,l),
(904,1677,l),
(228,1677,l),
(228,1617,l)
);
}
);
width = 1131;
},
{
associatedMasterId = "8CC24B71-6632-46E7-AD4C-7A03FCA973DC";
layerId = "65FCF1C4-831F-49C7-9BF6-D3ADA4B58F42";
shapes = (
{
pos = (-141,0);
ref = E;
slant = (8,0);
},
{
pos = (70,400);
ref = macron;
slant = (8,0);
}
);
width = 994;
}
);
metricLeft = E;
metricRight = E;
unicode = 274;
},
{
glyphname = Eogonek;
kernLeft = H;
kernRight = E;
lastChange = "2025-01-17 15:26:41 +0000";
layers = (
{
anchors = (
{
name = bottom;
pos = (589,0);
},
{
name = ogonek;
pos = (988,0);
},
{
name = top;
pos = (542,1400);
},
{
name = topleft;
pos = (120,1399);
}
);
hints = (
{
horizontal = 1;
place = (-14,127);
type = Stem;
},
{
horizontal = 1;
place = (667,127);
type = Stem;
},
{
horizontal = 1;
place = (1387,127);
type = Stem;
},
{
place = (107,127);
type = Stem;
},
{
horizontal = 1;
place = (-379,113);
type = Stem;
},
{
place = (1010,113);
type = Stem;
}
);
layerId = "8CC24B71-6632-46E7-AD4C-7A03FCA973DC";
shapes = (
{
closed = 1;
nodes = (
(930,0,l),
(802,-128,ls),
(775,-155,o),
(760,-193,o),
(760,-229,cs),
(760,-302,o),
(816,-372,o),
(900,-373,cs),
(992,-373,o),
(1070,-304,o),
(1070,-206,c),
(1010,-206,l),
(1010,-274,o),
(953,-313,o),
(901,-313,cs),
(850,-310,o),
(820,-270,o),
(820,-229,cs),
(820,-189,o),
(826,-188,o),
(1012,-2,c),
(1010,0,l),
(1011,0,l),
(1011,60,l),
(180,60,l),
(180,688,l),
(892,688,l),
(892,748,l),
(180,748,l),
(180,1339,l),
(984,1339,l),
(984,1399,l),
(120,1399,l),
(120,0,l)
);
}
);
width = 1190;
},
{
associatedMasterId = "8CC24B71-6632-46E7-AD4C-7A03FCA973DC";
layerId = "65FCF1C4-831F-49C7-9BF6-D3ADA4B58F42";
shapes = (
{
pos = (-141,0);
ref = E;
slant = (8,0);
},
{
pos = (182,0);
ref = ogonek;
slant = (8,0);
}
);
width = 994;
}
);
metricLeft = E;
metricRight = E;
unicode = 280;
},
{
glyphname = Etilde;
kernLeft = H;
kernRight = E;
lastChange = "2025-01-17 15:26:41 +0000";
layers = (
{
anchors = (
{
name = bottom;
pos = (589,0);
},
{
name = ogonek;
pos = (988,0);
},
{
name = top;
pos = (767,1689);
},
{
name = topleft;
pos = (120,1399);
}
);
hints = (
{
horizontal = 1;
place = (-14,127);
type = Stem;
},
{
horizontal = 1;
place = (667,127);
type = Stem;
},
{
horizontal = 1;
place = (1387,127);
type = Stem;
},
{
place = (107,127);
type = Stem;
},
{
horizontal = 1;
place = (1450,139);
type = Stem;
},
{
horizontal = 1;
place = (1623,130);
type = Stem;
},
{
place = (731,99);
type = Stem;
},
{
place = (1142,48);
type = Stem;
}
);
layerId = "8CC24B71-6632-46E7-AD4C-7A03FCA973DC";
shapes = (
{
closed = 1;
nodes = (
(1011,0,l),
(1011,60,l),
(180,60,l),
(180,688,l),
(892,688,l),
(892,748,l),
(180,748,l),
(180,1339,l),
(984,1339,l),
(984,1399,l),
(120,1399,l),
(120,0,l)
);
},
{
closed = 1;
nodes = (
(819,1497,o),
(889,1595,o),
(861,1681,c),
(805,1663,l),
(817,1631,o),
(785,1557,o),
(737,1557,cs),
(651,1557,o),
(511,1703,o),
(409,1703,cs),
(313,1703,o),
(243,1603,o),
(271,1521,c),
(329,1537,l),
(315,1593,o),
(355,1643,o),
(403,1643,cs),
(495,1643,o),
(623,1497,o),
(721,1497,cs)
);
}
);
width = 1131;
},
{
associatedMasterId = "8CC24B71-6632-46E7-AD4C-7A03FCA973DC";
layerId = "65FCF1C4-831F-49C7-9BF6-D3ADA4B58F42";
shapes = (
{
pos = (-141,0);
ref = E;
slant = (8,0);
},
{
pos = (107,400);
ref = tildecomb;
slant = (8,0);
}
);
width = 994;
}
);
metricLeft = E;
metricRight = E;
unicode = 7868;
},
{
glyphname = F;
kernLeft = H;
kernRight = F;
lastChange = "2025-01-17 15:26:41 +0000";
layers = (
{
anchors = (
{
name = bottom;
pos = (559,0);
},
{
name = ogonek;
pos = (988,0);
},
{
name = top;
pos = (559,1400);
},
{
name = topleft;
pos = (120,1399);
}
);
hints = (
{
horizontal = 1;
place = (-27,21);
target = up;
type = BottomGhost;
},
{
horizontal = 1;
place = (654,114);
type = Stem;
},
{
horizontal = 1;
place = (1374,114);
type = Stem;
},
{
place = (94,114);
type = Stem;
},
{
horizontal = 1;
place = (-14,127);
type = Stem;
},
{
horizontal = 1;
place = (667,127);
type = Stem;
},
{
horizontal = 1;
place = (1387,127);
type = Stem;
},
{
place = (107,127);
type = Stem;
}
);
layerId = "8CC24B71-6632-46E7-AD4C-7A03FCA973DC";
shapes = (
{
closed = 1;
nodes = (
(180,0,l),
(180,688,l),
(892,688,l),
(892,748,l),
(180,748,l),
(180,1339,l),
(984,1339,l),
(984,1399,l),
(120,1399,l),
(120,0,l)
);
}
);
width = 1044;
},
{
anchors = (
{
name = bottom;
pos = (367,0);
},
{
name = top;
pos = (564,1400);
}
);
associatedMasterId = "8CC24B71-6632-46E7-AD4C-7A03FCA973DC";
hints = (
{
horizontal = 1;
place = (-168,21);
target = up;
type = BottomGhost;
},
{
horizontal = 1;
place = (513,-27);
type = Stem;
},
{
horizontal = 1;
place = (1233,-27);
type = Stem;
},
{
place = (-47,-27);
type = Stem;
}
);
layerId = "65FCF1C4-831F-49C7-9BF6-D3ADA4B58F42";
shapes = (
{
closed = 1;
nodes = (
(10,35,cs),
(99,655,l),
(682,655,ls),
(698,655,o),
(713,668,o),
(716,685,cs),
(718,702,o),
(706,715,o),
(690,715,cs),
(107,715,l),
(195,1338,l),
(930,1338,ls),
(946,1338,o),
(961,1351,o),
(964,1368,cs),
(966,1385,o),
(954,1398,o),
(938,1398,cs),
(157,1398,ls),
(137,1398,o),
(123,1386,o),
(120,1366,cs),
(-67,36,ls),
(-69,15,o),
(-55,-3,o),
(-33,-3,cs),
(-12,-3,o),
(7,14,o)
);
}
);
width = 953;
}
);
metricLeft = I;
unicode = 70;
},
{
glyphname = G;
kernLeft = O;
kernRight = O;
lastChange = "2025-01-17 15:26:41 +0000";
layers = (
{
anchors = (
{
name = bottom;
pos = (733,-25);
},
{
name = top;
pos = (749,1428);
}
);
hints = (
{
horizontal = 1;
place = (-20,72);
type = Stem;
},
{
horizontal = 1;
place = (658,60);
type = Stem;
},
{
horizontal = 1;
place = (1382,72);
type = Stem;
},
{
place = (60,60);
type = Stem;
},
{
place = (1311,60);
type = Stem;
}
);
layerId = "8CC24B71-6632-46E7-AD4C-7A03FCA973DC";
shapes = (
{
closed = 1;
nodes = (
(349,-31,o),
(80,267,o),
(80,695,cs),
(80,1451,o),
(857,1612,o),
(1208,1239,c),
(1157,1192,l),
(882,1527,o),
(139,1407,o),
(140,695,cs),
(141,-194,o),
(1288,-171,o),
(1330,641,c),
(1391,718,l),
(1391,688,ls),
(1391,259,o),
(1122,-31,o),
(733,-31,cs)
);
}
);
width = 1471;
},
{
anchors = (
{
name = bottom;
pos = (541,-25);
},
{
name = top;
pos = (761,1428);
}
);
associatedMasterId = "8CC24B71-6632-46E7-AD4C-7A03FCA973DC";
hints = (
{
horizontal = 1;
place = (-161,-69);
type = Stem;
},
{
horizontal = 1;
origin = (0,12);
target = (0,6);
type = Stem;
},
{
horizontal = 1;
place = (1241,-69);
type = Stem;
},
{
origin = (0,31);
target = (0,16);
type = Stem;
},
{
origin = (0,13);
target = (0,2);
type = Stem;
}
);
layerId = "65FCF1C4-831F-49C7-9BF6-D3ADA4B58F42";
shapes = (
{
closed = 1;
nodes = (
(929,-31,o),
(1239,259,o),
(1302,688,cs),
(1304,704,o),
(1292,718,o),
(1276,718,cs),
(830,718,ls),
(814,718,o),
(799,705,o),
(796,688,cs),
(794,671,o),
(806,658,o),
(822,658,cs),
(1255,658,l),
(1111,-171,o),
(-56,-200,o),
(69,695,cs),
(166,1389,o),
(889,1520,o),
(1139,1216,cs),
(1144,1211,o),
(1150,1207,o),
(1157,1207,cs),
(1172,1207,o),
(1186,1219,o),
(1188,1234,cs),
(1189,1242,o),
(1187,1248,o),
(1183,1253,cs),
(872,1607,o),
(94,1440,o),
(-11,695,cs),
(-71,267,o),
(156,-31,o),
(540,-31,cs)
);
}
);
width = 1386;
}
);
metricLeft = O;
metricRight = O;
unicode = 71;
},
{
glyphname = Gbreve;
kernLeft = O;
kernRight = O;
lastChange = "2025-01-17 15:26:41 +0000";
layers = (
{
anchors = (
{
name = bottom;
pos = (733,-25);
},
{
name = top;
pos = (749,1428);
}
);
hints = (
{
horizontal = 1;
place = (-20,72);
type = Stem;
},
{
horizontal = 1;
place = (658,60);
type = Stem;
},
{
horizontal = 1;
place = (1382,72);
type = Stem;
},
{
place = (60,60);
type = Stem;
},
{
place = (1311,60);
type = Stem;
},
{
horizontal = 1;
place = (1513,154);
type = Stem;
},
{
place = (519,154);
type = Stem;
},
{
place = (1083,154);
type = Stem;
}
);
layerId = "8CC24B71-6632-46E7-AD4C-7A03FCA973DC";
shapes = (
{
closed = 1;
nodes = (
(349,-31,o),
(80,267,o),
(80,695,cs),
(80,1451,o),
(857,1612,o),
(1208,1239,c),
(1157,1192,l),
(882,1527,o),
(139,1407,o),
(140,695,cs),
(141,-194,o),
(1288,-171,o),
(1330,641,c),
(1391,718,l),
(1391,688,ls),
(1391,259,o),
(1122,-31,o),
(733,-31,cs)
);
},
{
closed = 1;
nodes = (
(912,1513,o),
(1068,1657,o),
(1068,1845,c),
(1008,1845,l),
(1008,1695,o),
(884,1573,o),
(736,1573,cs),
(594,1573,o),
(464,1691,o),
(464,1845,c),
(404,1845,l),
(404,1663,o),
(554,1513,o),
(736,1513,cs)
);
}
);
width = 1471;
},
{
associatedMasterId = "8CC24B71-6632-46E7-AD4C-7A03FCA973DC";
layerId = "65FCF1C4-831F-49C7-9BF6-D3ADA4B58F42";
shapes = (
{
pos = (-136,0);
ref = G;
slant = (8,0);
},
{
pos = (281,513);
ref = breve;
slant = (8,0);
}
);
width = 1409;
}
);
metricLeft = G;
metricRight = G;
unicode = 286;
},
{
glyphname = Gcaron;
kernLeft = O;
kernRight = O;
lastChange = "2025-01-17 15:26:41 +0000";
layers = (
{
anchors = (
{
name = bottom;
pos = (684,1592);
},
{
name = top;
pos = (749,1428);
}
);
hints = (
{
horizontal = 1;
place = (1404,-20);
target = down;
type = TopGhost;
},
{
horizontal = 1;
place = (-20,72);
type = Stem;
},
{
horizontal = 1;
place = (658,60);
type = Stem;
},
{
horizontal = 1;
place = (1382,72);
type = Stem;
},
{
place = (60,60);
type = Stem;
},
{
place = (1311,60);
type = Stem;
},
{
horizontal = 1;
place = (2025,21);
target = up;
type = BottomGhost;
},
{
horizontal = 1;
place = (1551,-8);
type = Stem;
}
);
layerId = "8CC24B71-6632-46E7-AD4C-7A03FCA973DC";
shapes = (
{
closed = 1;
nodes = (
(349,-31,o),
(80,267,o),
(80,695,cs),
(80,1451,o),
(857,1612,o),
(1208,1239,c),
(1157,1192,l),
(882,1527,o),
(139,1407,o),
(140,695,cs),
(141,-194,o),
(1288,-171,o),
(1330,641,c),
(1391,718,l),
(1391,688,ls),
(1391,259,o),
(1122,-31,o),
(733,-31,cs)
);
},
{
closed = 1;
nodes = (
(917,1829,l),
(737,1620,l),
(554,1829,l),
(514,1829,l),
(706,1541,l),
(766,1541,l),
(957,1829,l)
);
}
);
width = 1471;
},
{
associatedMasterId = "8CC24B71-6632-46E7-AD4C-7A03FCA973DC";
hints = (
{
horizontal = 1;
place = (1263,-20);
target = down;
type = TopGhost;
}
);
layerId = "65FCF1C4-831F-49C7-9BF6-D3ADA4B58F42";
shapes = (
{
pos = (-136,0);
ref = G;
slant = (8,0);
},
{
alignment = -1;
angle = 180;
pos = (1207,2999);
ref = circumflexcomb;
slant = (8,0);
}
);
width = 1409;
}
);
metricLeft = G;
metricRight = G;
unicode = 486;
},
{
glyphname = Gcircumflex;
kernLeft = O;
kernRight = O;
lastChange = "2025-01-17 15:26:41 +0000";
layers = (
{
anchors = (
{
name = bottom;
pos = (733,-25);
},
{
name = top;
pos = (787,1730);
}
);
hints = (
{
horizontal = 1;
place = (-20,72);
type = Stem;
},
{
horizontal = 1;
place = (658,60);
type = Stem;
},
{
horizontal = 1;
place = (1382,72);
type = Stem;
},
{
place = (60,60);
type = Stem;
},
{
place = (1311,60);
type = Stem;
},
{
horizontal = 1;
place = (1297,-20);
target = down;
type = TopGhost;
},
{
horizontal = 1;
place = (1771,8);
type = Stem;
}
);
layerId = "8CC24B71-6632-46E7-AD4C-7A03FCA973DC";
shapes = (
{
closed = 1;
nodes = (
(349,-31,o),
(80,267,o),
(80,695,cs),
(80,1451,o),
(857,1612,o),
(1208,1239,c),
(1157,1192,l),
(882,1527,o),
(139,1407,o),
(140,695,cs),
(141,-194,o),
(1288,-171,o),
(1330,641,c),
(1391,718,l),
(1391,688,ls),
(1391,259,o),
(1122,-31,o),
(733,-31,cs)
);
},
{
closed = 1;
nodes = (
(554,1493,l),
(734,1702,l),
(917,1493,l),
(957,1493,l),
(765,1781,l),
(705,1781,l),
(514,1493,l)
);
}
);
width = 1471;
},
{
associatedMasterId = "8CC24B71-6632-46E7-AD4C-7A03FCA973DC";
layerId = "65FCF1C4-831F-49C7-9BF6-D3ADA4B58F42";
shapes = (
{
pos = (-136,0);
ref = G;
slant = (8,0);
},
{
pos = (399,495);
ref = circumflexcomb;
slant = (8,0);
}
);
width = 1409;
}
);
metricLeft = G;
metricRight = G;
unicode = 284;
},
{
glyphname = Gcommaaccent;
kernLeft = O;
kernRight = O;
lastChange = "2025-01-17 15:26:41 +0000";
layers = (
{
anchors = (
{
name = bottom;
pos = (733,-25);
},
{
name = top;
pos = (749,1428);
}
);
hints = (
{
horizontal = 1;
place = (-20,72);
type = Stem;
},
{
horizontal = 1;
place = (658,60);
type = Stem;
},
{
horizontal = 1;
place = (1382,72);
type = Stem;
},
{
place = (60,60);
type = Stem;
},
{
place = (1311,60);
type = Stem;
}
);
layerId = "8CC24B71-6632-46E7-AD4C-7A03FCA973DC";
shapes = (
{
closed = 1;
nodes = (
(349,-31,o),
(80,267,o),
(80,695,cs),
(80,1451,o),
(857,1612,o),
(1208,1239,c),
(1157,1192,l),
(882,1527,o),
(139,1407,o),
(140,695,cs),
(141,-194,o),
(1288,-171,o),
(1330,641,c),
(1391,718,l),
(1391,688,ls),
(1391,259,o),
(1122,-31,o),
(733,-31,cs)
);
},
{
closed = 1;
nodes = (
(666,-428,l),
(765,-90,l),
(705,-90,l),
(633,-428,l)
);
}
);
width = 1471;
},
{
associatedMasterId = "8CC24B71-6632-46E7-AD4C-7A03FCA973DC";
layerId = "65FCF1C4-831F-49C7-9BF6-D3ADA4B58F42";
shapes = (
{
pos = (-136,0);
ref = G;
slant = (8,0);
},
{
pos = (487,13);
ref = commaaccentcomb;
slant = (8,0);
}
);
width = 1409;
}
);
metricLeft = G;
metricRight = G;
unicode = (290,291);
},
{
glyphname = Gdotaccent;
kernLeft = O;
kernRight = O;
lastChange = "2025-01-17 15:26:41 +0000";
layers = (
{
anchors = (
{
name = bottom;
pos = (733,-25);
},
{
name = top;
pos = (716,1338);
}
);
hints = (
{
horizontal = 1;
place = (-20,72);
type = Stem;
},
{
horizontal = 1;
place = (658,60);
type = Stem;
},
{
horizontal = 1;
place = (1382,72);
type = Stem;
},
{
place = (60,60);
type = Stem;
},
{
place = (1311,60);
type = Stem;
},
{
horizontal = 1;
origin = (1,11);
target = (1,5);
type = Stem;
},
{
origin = (1,8);
target = (1,2);
type = Stem;
}
);
layerId = "8CC24B71-6632-46E7-AD4C-7A03FCA973DC";
shapes = (
{
closed = 1;
nodes = (
(349,-31,o),
(80,267,o),
(80,695,cs),
(80,1451,o),
(857,1612,o),
(1208,1239,c),
(1157,1192,l),
(882,1527,o),
(139,1407,o),
(140,695,cs),
(141,-194,o),
(1288,-171,o),
(1330,641,c),
(1391,718,l),
(1391,688,ls),
(1391,259,o),
(1122,-31,o),
(733,-31,cs)
);
},
{
closed = 1;
nodes = (
(742,1535,o),
(761,1554,o),
(761,1580,cs),
(761,1606,o),
(741,1625,o),
(716,1625,cs),
(691,1625,o),
(671,1606,o),
(671,1580,cs),
(671,1554,o),
(691,1535,o),
(716,1535,cs)
);
}
);
width = 1471;
},
{
associatedMasterId = "8CC24B71-6632-46E7-AD4C-7A03FCA973DC";
layerId = "65FCF1C4-831F-49C7-9BF6-D3ADA4B58F42";
shapes = (
{
pos = (-136,0);
ref = G;
slant = (8,0);
},
{
pos = (562,397);
ref = dotaccentcomb;
slant = (8,0);
}
);
width = 1409;
}
);
metricLeft = G;
metricRight = G;
unicode = 288;
},
{
glyphname = Gmacron;
kernLeft = O;
kernRight = O;
lastChange = "2025-01-17 15:26:41 +0000";
layers = (
{
anchors = (
{
name = bottom;
pos = (733,-25);
},
{
name = top;
pos = (749,1428);
}
);
hints = (
{
horizontal = 1;
place = (-20,72);
type = Stem;
},
{
horizontal = 1;
place = (658,60);
type = Stem;
},
{
horizontal = 1;
place = (1382,72);
type = Stem;
},
{
place = (60,60);
type = Stem;
},
{
place = (1311,60);
type = Stem;
},
{
horizontal = 1;
origin = (1,3);
target = (1,2);
type = Stem;
}
);
layerId = "8CC24B71-6632-46E7-AD4C-7A03FCA973DC";
shapes = (
{
closed = 1;
nodes = (
(349,-31,o),
(80,267,o),
(80,695,cs),
(80,1451,o),
(857,1612,o),
(1208,1239,c),
(1157,1192,l),
(882,1527,o),
(139,1407,o),
(140,695,cs),
(141,-194,o),
(1288,-171,o),
(1330,641,c),
(1391,718,l),
(1391,688,ls),
(1391,259,o),
(1122,-31,o),
(733,-31,cs)
);
},
{
closed = 1;
nodes = (
(1054,1645,l),
(1054,1705,l),
(378,1705,l),
(378,1645,l)
);
}
);
width = 1471;
},
{
associatedMasterId = "8CC24B71-6632-46E7-AD4C-7A03FCA973DC";
layerId = "65FCF1C4-831F-49C7-9BF6-D3ADA4B58F42";
shapes = (
{
pos = (-136,0);
ref = G;
slant = (8,0);
},
{
pos = (274,428);
ref = macron;
slant = (8,0);
}
);
width = 1409;
}
);
metricLeft = G;
metricRight = G;
unicode = 7712;
},
{
glyphname = H;
kernLeft = H;
kernRight = H;
lastChange = "2025-01-17 15:26:41 +0000";
layers = (
{
anchors = (
{
name = bottom;
pos = (627,0);
},
{
name = center;
pos = (627,750);
},
{
name = top;
pos = (627,1400);
},
{
name = topleft;
pos = (120,1400);
}
);
hints = (
{
horizontal = 1;
origin = (0,11);
target = up;
type = BottomGhost;
},
{
horizontal = 1;
origin = (0,1);
target = (0,8);
type = Stem;
},
{
horizontal = 1;
origin = (0,10);
target = down;
type = TopGhost;
},
{
origin = (0,11);
target = (0,0);
type = Stem;
},
{
origin = (0,3);
target = (0,4);
type = Stem;
}
);
layerId = "8CC24B71-6632-46E7-AD4C-7A03FCA973DC";
shapes = (
{
closed = 1;
nodes = (
(180,0,l),
(180,723,l),
(1075,723,l),
(1075,0,l),
(1135,0,l),
(1135,1400,l),
(1075,1400,l),
(1075,783,l),
(180,783,l),
(180,1400,l),
(120,1400,l),
(120,0,l)
);
}
);
width = 1255;
},
{
anchors = (
{
name = bottom;
pos = (436,0);
},
{
name = center;
pos = (541,750);
},
{
name = top;
pos = (633,1400);
},
{
name = topleft;
pos = (126,1400);
}
);
associatedMasterId = "8CC24B71-6632-46E7-AD4C-7A03FCA973DC";
hints = (
{
horizontal = 1;
origin = (0,9);
target = up;
type = BottomGhost;
},
{
horizontal = 1;
origin = (0,16);
target = (0,1);
type = Stem;
},
{
horizontal = 1;
origin = (0,8);
target = down;
type = TopGhost;
},
{
origin = (0,9);
target = (0,15);
type = Stem;
},
{
origin = (0,18);
target = (0,24);
type = Stem;
}
);
layerId = "65FCF1C4-831F-49C7-9BF6-D3ADA4B58F42";
shapes = (
{
closed = 1;
nodes = (
(994,783,l),
(117,783,l),
(198,1364,ls),
(201,1385,o),
(187,1403,o),
(165,1403,cs),
(143,1403,o),
(123,1385,o),
(120,1364,cs),
(-66,36,ls),
(-69,15,o),
(-55,-3,o),
(-33,-3,cs),
(-11,-3,o),
(9,15,o),
(12,36,cs),
(109,723,l),
(986,723,l),
(888,27,ls),
(886,11,o),
(897,-3,o),
(914,-3,cs),
(931,-3,o),
(946,11,o),
(948,27,cs),
(1137,1373,ls),
(1140,1389,o),
(1129,1403,o),
(1112,1403,cs),
(1095,1403,o),
(1080,1389,o),
(1077,1373,cs)
);
}
);
width = 1154;
}
);
metricLeft = I;
metricRight = I;
unicode = 72;
},
{
glyphname = Hcircumflex;
kernLeft = H;
kernRight = H;
lastChange = "2025-01-17 15:26:41 +0000";
layers = (
{
anchors = (
{
name = bottom;
pos = (627,0);
},
{
name = center;
pos = (627,750);
},
{
name = top;
pos = (679,1809);
},
{
name = topleft;
pos = (120,1400);
}
);
hints = (
{
horizontal = 1;
origin = (0,11);
target = up;
type = BottomGhost;
},
{
horizontal = 1;
origin = (0,1);
target = (0,8);
type = Stem;
},
{
horizontal = 1;
origin = (0,10);
target = down;
type = TopGhost;
},
{
origin = (0,11);
target = (0,0);
type = Stem;
},
{
origin = (0,3);
target = (0,4);
type = Stem;
},
{
horizontal = 1;
place = (1376,-20);
target = down;
type = TopGhost;
},
{
horizontal = 1;
place = (1850,8);
type = Stem;
}
);
layerId = "8CC24B71-6632-46E7-AD4C-7A03FCA973DC";
shapes = (
{
closed = 1;
nodes = (
(180,0,l),
(180,723,l),
(1075,723,l),
(1075,0,l),
(1135,0,l),
(1135,1400,l),
(1075,1400,l),
(1075,783,l),
(180,783,l),
(180,1400,l),
(120,1400,l),
(120,0,l)
);
},
{
closed = 1;
nodes = (
(446,1572,l),
(626,1781,l),
(809,1572,l),
(849,1572,l),
(657,1860,l),
(597,1860,l),
(406,1572,l)
);
}
);
width = 1155;
},
{
associatedMasterId = "8CC24B71-6632-46E7-AD4C-7A03FCA973DC";
layerId = "65FCF1C4-831F-49C7-9BF6-D3ADA4B58F42";
shapes = (
{
pos = (-141,0);
ref = H;
slant = (8,0);
},
{
pos = (268,462);
ref = circumflexcomb;
slant = (8,0);
}
);
width = 1155;
}
);
unicode = 292;
},
{
glyphname = Hdotbelow;
kernLeft = H;
kernRight = H;
lastChange = "2025-01-17 15:26:41 +0000";
layers = (
{
anchors = (
{
name = bottom;
pos = (627,0);
},
{
name = center;
pos = (627,750);
},
{
name = top;
pos = (627,1400);
},
{
name = topleft;
pos = (120,1400);
}
);
hints = (
{
horizontal = 1;
origin = (0,11);
target = up;
type = BottomGhost;
},
{
horizontal = 1;
origin = (0,1);
target = (0,8);
type = Stem;
},
{
horizontal = 1;
origin = (0,10);
target = down;
type = TopGhost;
},
{
origin = (0,11);
target = (0,0);
type = Stem;
},
{
origin = (0,3);
target = (0,4);
type = Stem;
},
{
horizontal = 1;
origin = (1,11);
target = (1,5);
type = Stem;
},
{
origin = (1,8);
target = (1,2);
type = Stem;
}
);
layerId = "8CC24B71-6632-46E7-AD4C-7A03FCA973DC";
shapes = (
{
closed = 1;
nodes = (
(180,0,l),
(180,723,l),
(1075,723,l),
(1075,0,l),
(1135,0,l),
(1135,1400,l),
(1075,1400,l),
(1075,783,l),
(180,783,l),
(180,1400,l),
(120,1400,l),
(120,0,l)
);
},
{
closed = 1;
nodes = (
(654,-355,o),
(673,-336,o),
(673,-310,cs),
(673,-284,o),
(653,-265,o),
(628,-265,cs),
(603,-265,o),
(583,-284,o),
(583,-310,cs),
(583,-336,o),
(603,-355,o),
(628,-355,cs)
);
}
);
width = 1155;
},
{
associatedMasterId = "8CC24B71-6632-46E7-AD4C-7A03FCA973DC";
layerId = "65FCF1C4-831F-49C7-9BF6-D3ADA4B58F42";
shapes = (
{
pos = (-141,0);
ref = H;
slant = (8,0);
},
{
pos = (379,-9);
ref = dotbelowcomb;
slant = (8,0);
}
);
width = 1155;
}
);
unicode = 7716;
},
{
glyphname = I;
kernLeft = I;
kernRight = I;
lastChange = "2025-01-17 15:26:41 +0000";
layers = (
{
anchors = (
{
name = bottom;
pos = (150,0);
},
{
name = ogonek;
pos = (227,0);
},
{
name = top;
pos = (150,1400);
},
{
name = topleft;
pos = (73,1400);
}
);
hints = (
{
horizontal = 1;
origin = (0,3);
target = up;
type = BottomGhost;
},
{
horizontal = 1;
origin = (0,2);
target = down;
type = TopGhost;
},
{
origin = (0,3);
target = (0,0);
type = Stem;
}
);
layerId = "8CC24B71-6632-46E7-AD4C-7A03FCA973DC";
shapes = (
{
closed = 1;
nodes = (
(180,0,l),
(180,1400,l),
(120,1400,l),
(120,0,l)
);
}
);
width = 300;
},
{
anchors = (
{
name = bottom;
pos = (-33,0);
},
{
name = ogonek;
pos = (44,0);
},
{
name = top;
pos = (164,1400);
},
{
name = topleft;
pos = (87,1400);
}
);
associatedMasterId = "8CC24B71-6632-46E7-AD4C-7A03FCA973DC";
hints = (
{
horizontal = 1;
origin = (0,8);
target = up;
type = BottomGhost;
},
{
horizontal = 1;
origin = (0,7);
target = down;
type = TopGhost;
},
{
origin = (0,8);
target = (0,0);
type = Stem;
}
);
layerId = "65FCF1C4-831F-49C7-9BF6-D3ADA4B58F42";
shapes = (
{
closed = 1;
nodes = (
(12,36,cs),
(198,1364,ls),
(201,1385,o),
(187,1403,o),
(165,1403,cs),
(143,1403,o),
(123,1385,o),
(120,1364,cs),
(-66,36,ls),
(-69,15,o),
(-55,-3,o),
(-33,-3,cs),
(-11,-3,o),
(9,15,o)
);
}
);
width = 216;
}
);
unicode = 73;
},
{
glyphname = Iacute;
kernLeft = I;
kernRight = I;
lastChange = "2025-01-17 15:26:41 +0000";
layers = (
{
anchors = (
{
name = bottom;
pos = (150,0);
},
{
name = ogonek;
pos = (227,0);
},
{
name = top;
pos = (175,1371);
},
{
name = topleft;
pos = (73,1400);
}
);
hints = (
{
horizontal = 1;
origin = (0,3);
target = up;
type = BottomGhost;
},
{
horizontal = 1;
origin = (0,2);
target = down;
type = TopGhost;
},
{
origin = (0,3);
target = (0,0);
type = Stem;
},
{
horizontal = 1;
place = (1762,-20);
target = down;
type = TopGhost;
},
{
place = (620,228);
type = Stem;
},
{
horizontal = 1;
origin = (1,3);
target = down;
type = TopGhost;
},
{
origin = (1,3);
target = (1,2);
type = Stem;
}
);
layerId = "8CC24B71-6632-46E7-AD4C-7A03FCA973DC";
shapes = (
{
closed = 1;
nodes = (
(180,0,l),
(180,1400,l),
(120,1400,l),
(120,0,l)
);
},
{
closed = 1;
nodes = (
(291,1769,l),
(208,1769,l),
(126,1481,l),
(165,1481,l)
);
}
);
width = 411;
},
{
associatedMasterId = "8CC24B71-6632-46E7-AD4C-7A03FCA973DC";
layerId = "65FCF1C4-831F-49C7-9BF6-D3ADA4B58F42";
shapes = (
{
pos = (-141,0);
ref = I;
slant = (8,0);
},
{
alignment = -1;
pos = (-18,456);
ref = acutecomb;
slant = (8,0);
}
);
width = 195;
}
);
metricLeft = I;
metricRight = I;
unicode = 205;
},
{
glyphname = Icaron;
kernLeft = I;
kernRight = I;
lastChange = "2025-01-17 15:26:41 +0000";
layers = (
{
anchors = (
{
name = bottom;
pos = (170,1525);
},
{
name = ogonek;
pos = (299,0);
},
{
name = top;
pos = (222,1747);
},
{
name = topleft;
pos = (145,1400);
}
);
hints = (
{
horizontal = 1;
place = (1345,-20);
target = down;
type = TopGhost;
},
{
horizontal = 1;
origin = (0,3);
target = up;
type = BottomGhost;
},
{
horizontal = 1;
origin = (0,2);
target = down;
type = TopGhost;
},
{
origin = (0,3);
target = (0,0);
type = Stem;
},
{
horizontal = 1;
place = (1958,21);
target = up;
type = BottomGhost;
},
{
horizontal = 1;
place = (1484,-8);
type = Stem;
}
);
layerId = "8CC24B71-6632-46E7-AD4C-7A03FCA973DC";
shapes = (
{
closed = 1;
nodes = (
(252,0,l),
(252,1400,l),
(192,1400,l),
(192,0,l)
);
},
{
closed = 1;
nodes = (
(403,1762,l),
(223,1553,l),
(40,1762,l),
(0,1762,l),
(192,1474,l),
(252,1474,l),
(443,1762,l)
);
}
);
width = 443;
},
{
anchors = (
{
name = top;
pos = (309,1747);
}
);
associatedMasterId = "8CC24B71-6632-46E7-AD4C-7A03FCA973DC";
hints = (
{
horizontal = 1;
place = (1204,-20);
target = down;
type = TopGhost;
}
);
layerId = "65FCF1C4-831F-49C7-9BF6-D3ADA4B58F42";
shapes = (
{
pos = (-19,0);
ref = I;
slant = (8,0);
},
{
alignment = -1;
angle = 180;
pos = (731,2964);
ref = circumflexcomb;
slant = (8,0);
}
);
width = 443;
}
);
unicode = 463;
},
{
glyphname = Icircumflex;
kernLeft = I;
kernRight = I;
lastChange = "2025-01-17 15:26:41 +0000";
layers = (
{
anchors = (
{
name = bottom;
pos = (222,0);
},
{
name = ogonek;
pos = (299,0);
},
{
name = top;
pos = (273,1670);
},
{
name = topleft;
pos = (145,1400);
}
);
hints = (
{
horizontal = 1;
origin = (0,3);
target = up;
type = BottomGhost;
},
{
horizontal = 1;
origin = (0,2);
target = down;
type = TopGhost;
},
{
origin = (0,3);
target = (0,0);
type = Stem;
},
{
horizontal = 1;
place = (1237,-20);
target = down;
type = TopGhost;
},
{
horizontal = 1;
place = (1711,8);
type = Stem;
}
);
layerId = "8CC24B71-6632-46E7-AD4C-7A03FCA973DC";
shapes = (
{
closed = 1;
nodes = (
(252,0,l),
(252,1400,l),
(192,1400,l),
(192,0,l)
);
},
{
closed = 1;
nodes = (
(40,1433,l),
(220,1642,l),
(403,1433,l),
(443,1433,l),
(251,1721,l),
(191,1721,l),
(0,1433,l)
);
}
);
width = 443;
},
{
associatedMasterId = "8CC24B71-6632-46E7-AD4C-7A03FCA973DC";
layerId = "65FCF1C4-831F-49C7-9BF6-D3ADA4B58F42";
shapes = (
{
pos = (-19,0);
ref = I;
slant = (8,0);
},
{
pos = (-88,459);
ref = circumflexcomb;
slant = (8,0);
}
);
width = 443;
}
);
unicode = 206;
},
{
glyphname = Idieresis;
kernLeft = I;
kernRight = I;
lastChange = "2025-01-17 15:26:41 +0000";
layers = (
{
anchors = (
{
name = bottom;
pos = (217,0);
},
{
name = ogonek;
pos = (294,0);
},
{
name = top;
pos = (263,1307);
},
{
name = topleft;
pos = (140,1400);
}
);
hints = (
{
horizontal = 1;
origin = (0,3);
target = up;
type = BottomGhost;
},
{
horizontal = 1;
origin = (0,2);
target = down;
type = TopGhost;
},
{
origin = (0,3);
target = (0,0);
type = Stem;
},
{
horizontal = 1;
place = (1483,90);
type = Stem;
},
{
place = (173,90);
type = Stem;
},
{
place = (173,90);
type = Stem;
},
{
horizontal = 1;
origin = (1,11);
target = (1,5);
type = Stem;
},
{
origin = (1,8);
target = (1,2);
type = Stem;
},
{
horizontal = 1;
origin = (2,11);
target = (2,5);
type = Stem;
},
{
origin = (2,8);
target = (2,2);
type = Stem;
}
);
layerId = "8CC24B71-6632-46E7-AD4C-7A03FCA973DC";
shapes = (
{
closed = 1;
nodes = (
(247,0,l),
(247,1400,l),
(187,1400,l),
(187,0,l)
);
},
{
closed = 1;
nodes = (
(415,1537,o),
(434,1556,o),
(434,1582,cs),
(434,1608,o),
(414,1627,o),
(389,1627,cs),
(364,1627,o),
(344,1608,o),
(344,1582,cs),
(344,1556,o),
(364,1537,o),
(389,1537,cs)
);
},
{
closed = 1;
nodes = (
(71,1537,o),
(90,1556,o),
(90,1582,cs),
(90,1608,o),
(70,1627,o),
(45,1627,cs),
(20,1627,o),
(0,1608,o),
(0,1582,cs),
(0,1556,o),
(20,1537,o),
(45,1537,cs)
);
}
);
width = 434;
},
{
associatedMasterId = "8CC24B71-6632-46E7-AD4C-7A03FCA973DC";
layerId = "65FCF1C4-831F-49C7-9BF6-D3ADA4B58F42";
shapes = (
{
pos = (-10,0);
ref = I;
slant = (8,0);
},
{
pos = (-99,166);
ref = dieresis;
slant = (8,0);
}
);
width = 461;
}
);
unicode = 207;
},
{
glyphname = Idieresisacute;
kernLeft = I;
kernRight = I;
lastChange = "2025-01-17 15:26:41 +0000";
layers = (
{
anchors = (
{
name = bottom;
pos = (217,0);
},
{
name = ogonek;
pos = (294,0);
},
{
name = top;
pos = (78,1527);
},
{
name = topleft;
pos = (140,1400);
}
);
hints = (
{
horizontal = 1;
origin = (0,3);
target = up;
type = BottomGhost;
},
{
horizontal = 1;
origin = (0,2);
target = down;
type = TopGhost;
},
{
origin = (0,3);
target = (0,0);
type = Stem;
},
{
horizontal = 1;
place = (1445,90);
type = Stem;
},
{
place = (12,90);
type = Stem;
},
{
place = (467,90);
type = Stem;
},
{
horizontal = 1;
place = (1755,-20);
target = down;
type = TopGhost;
},
{
place = (674,228);
type = Stem;
},
{
horizontal = 1;
origin = (1,3);
target = down;
type = TopGhost;
},
{
origin = (1,3);
target = (1,2);
type = Stem;
},
{
horizontal = 1;
place = (1404,90);
type = Stem;
},
{
place = (173,90);
type = Stem;
},
{
place = (173,90);
type = Stem;
},
{
horizontal = 1;
origin = (2,11);
target = (2,5);
type = Stem;
},
{
origin = (2,8);
target = (2,2);
type = Stem;
},
{
horizontal = 1;
origin = (3,11);
target = (3,5);
type = Stem;
},
{
origin = (3,8);
target = (3,2);
type = Stem;
}
);
layerId = "8CC24B71-6632-46E7-AD4C-7A03FCA973DC";
shapes = (
{
closed = 1;
nodes = (
(247,0,l),
(247,1400,l),
(187,1400,l),
(187,0,l)
);
},
{
closed = 1;
nodes = (
(345,1762,l),
(262,1762,l),
(180,1474,l),
(219,1474,l)
);
},
{
closed = 1;
nodes = (
(415,1458,o),
(434,1477,o),
(434,1503,cs),
(434,1529,o),
(414,1548,o),
(389,1548,cs),
(364,1548,o),
(344,1529,o),
(344,1503,cs),
(344,1477,o),
(364,1458,o),
(389,1458,cs)
);
},
{
closed = 1;
nodes = (
(71,1458,o),
(90,1477,o),
(90,1503,cs),
(90,1529,o),
(70,1548,o),
(45,1548,cs),
(20,1548,o),
(0,1529,o),
(0,1503,cs),
(0,1477,o),
(20,1458,o),
(45,1458,cs)
);
}
);
width = 434;
},
{
associatedMasterId = "8CC24B71-6632-46E7-AD4C-7A03FCA973DC";
layerId = "65FCF1C4-831F-49C7-9BF6-D3ADA4B58F42";
shapes = (
{
ref = I;
slant = (8,0);
},
{
pos = (-115,267);
ref = dieresistonos;
slant = (8,0);
}
);
width = 545;
}
);
unicode = 7726;
},
{
glyphname = Idotaccent;
kernLeft = I;
kernRight = I;
lastChange = "2025-01-17 15:26:41 +0000";
layers = (
{
anchors = (
{
name = bottom;
pos = (165,0);
},
{
name = ogonek;
pos = (242,0);
},
{
name = top;
pos = (165,1261);
},
{
name = topleft;
pos = (88,1400);
}
);
hints = (
{
horizontal = 1;
origin = (0,3);
target = up;
type = BottomGhost;
},
{
horizontal = 1;
origin = (0,2);
target = down;
type = TopGhost;
},
{
origin = (0,3);
target = (0,0);
type = Stem;
},
{
horizontal = 1;
origin = (1,11);
target = (1,5);
type = Stem;
},
{
origin = (1,8);
target = (1,2);
type = Stem;
}
);
layerId = "8CC24B71-6632-46E7-AD4C-7A03FCA973DC";
shapes = (
{
closed = 1;
nodes = (
(195,0,l),
(195,1400,l),
(135,1400,l),
(135,0,l)
);
},
{
closed = 1;
nodes = (
(191,1458,o),
(210,1477,o),
(210,1503,cs),
(210,1529,o),
(190,1548,o),
(165,1548,cs),
(140,1548,o),
(120,1529,o),
(120,1503,cs),
(120,1477,o),
(140,1458,o),
(165,1458,cs)
);
}
);
width = 330;
},
{
associatedMasterId = "8CC24B71-6632-46E7-AD4C-7A03FCA973DC";
layerId = "65FCF1C4-831F-49C7-9BF6-D3ADA4B58F42";
shapes = (
{
pos = (-127,0);
ref = I;
slant = (8,0);
},
{
pos = (-28,396);
ref = dotaccentcomb;
slant = (8,0);
}
);
width = 230;
}
);
metricLeft = I;
metricRight = I;
unicode = 304;
},
{
glyphname = Idotbelow;
kernLeft = I;
kernRight = I;
lastChange = "2025-01-17 15:26:41 +0000";
layers = (
{
anchors = (
{
name = bottom;
pos = (165,0);
},
{
name = ogonek;
pos = (242,0);
},
{
name = top;
pos = (165,-544);
},
{
name = topleft;
pos = (88,1400);
}
);
hints = (
{
horizontal = 1;
origin = (0,3);
target = up;
type = BottomGhost;
},
{
horizontal = 1;
origin = (0,2);
target = down;
type = TopGhost;
},
{
origin = (0,3);
target = (0,0);
type = Stem;
},
{
horizontal = 1;
origin = (1,11);
target = (1,5);
type = Stem;
},
{
origin = (1,8);
target = (1,2);
type = Stem;
}
);
layerId = "8CC24B71-6632-46E7-AD4C-7A03FCA973DC";
shapes = (
{
closed = 1;
nodes = (
(195,0,l),
(195,1400,l),
(135,1400,l),
(135,0,l)
);
},
{
closed = 1;
nodes = (
(191,-347,o),
(210,-328,o),
(210,-302,cs),
(210,-276,o),
(190,-257,o),
(165,-257,cs),
(140,-257,o),
(120,-276,o),
(120,-302,cs),
(120,-328,o),
(140,-347,o),
(165,-347,cs)
);
}
);
width = 330;
},
{
associatedMasterId = "8CC24B71-6632-46E7-AD4C-7A03FCA973DC";
layerId = "65FCF1C4-831F-49C7-9BF6-D3ADA4B58F42";
shapes = (
{
pos = (-127,0);
ref = I;
slant = (8,0);
},
{
alignment = -1;
pos = (-305,-1577);
ref = dotaccentcomb;
slant = (8,0);
}
);
width = 230;
}
);
metricLeft = I;
metricRight = I;
unicode = 7882;
},
{
glyphname = Igrave;
kernLeft = I;
kernRight = I;
lastChange = "2025-01-17 15:26:41 +0000";
layers = (
{
anchors = (
{
name = bottom;
pos = (145,0);
},
{
name = ogonek;
pos = (222,0);
},
{
name = top;
pos = (124,1808);
},
{
name = topleft;
pos = (68,1400);
}
);
hints = (
{
horizontal = 1;
origin = (0,3);
target = up;
type = BottomGhost;
},
{
horizontal = 1;
origin = (0,2);
target = down;
type = TopGhost;
},
{
origin = (0,3);
target = (0,0);
type = Stem;
},
{
horizontal = 1;
origin = (1,2);
target = down;
type = TopGhost;
},
{
origin = (1,2);
target = (1,0);
type = Stem;
}
);
layerId = "8CC24B71-6632-46E7-AD4C-7A03FCA973DC";
shapes = (
{
closed = 1;
nodes = (
(175,0,l),
(175,1400,l),
(115,1400,l),
(115,0,l)
);
},
{
closed = 1;
nodes = (
(125,1571,l),
(43,1859,l),
(-40,1859,l),
(86,1571,l)
);
}
);
width = 295;
},
{
associatedMasterId = "8CC24B71-6632-46E7-AD4C-7A03FCA973DC";
layerId = "65FCF1C4-831F-49C7-9BF6-D3ADA4B58F42";
shapes = (
{
pos = (-146,0);
ref = I;
slant = (8,0);
},
{
pos = (-128,461);
ref = gravecomb;
slant = (8,0);
}
);
width = 194;
}
);
metricRight = I;
unicode = 204;
},
{
glyphname = Imacron;
kernLeft = I;
kernRight = I;
lastChange = "2025-01-17 15:26:41 +0000";
layers = (
{
anchors = (
{
name = bottom;
pos = (338,0);
},
{
name = ogonek;
pos = (415,0);
},
{
name = top;
pos = (338,1400);
},
{
name = topleft;
pos = (261,1400);
}
);
hints = (
{
horizontal = 1;
origin = (0,3);
target = up;
type = BottomGhost;
},
{
horizontal = 1;
origin = (0,2);
target = down;
type = TopGhost;
},
{
origin = (0,3);
target = (0,0);
type = Stem;
},
{
horizontal = 1;
origin = (1,3);
target = (1,2);
type = Stem;
}
);
layerId = "8CC24B71-6632-46E7-AD4C-7A03FCA973DC";
shapes = (
{
closed = 1;
nodes = (
(368,0,l),
(368,1400,l),
(308,1400,l),
(308,0,l)
);
},
{
closed = 1;
nodes = (
(676,1617,l),
(676,1677,l),
(0,1677,l),
(0,1617,l)
);
}
);
width = 676;
},
{
associatedMasterId = "8CC24B71-6632-46E7-AD4C-7A03FCA973DC";
layerId = "65FCF1C4-831F-49C7-9BF6-D3ADA4B58F42";
shapes = (
{
pos = (97,0);
ref = I;
slant = (8,0);
},
{
pos = (-96,400);
ref = macron;
slant = (8,0);
}
);
width = 676;
}
);
unicode = 298;
},
{
glyphname = Iogonek;
kernLeft = I;
kernRight = I;
lastChange = "2025-01-17 15:26:41 +0000";
layers = (
{
anchors = (
{
name = bottom;
pos = (272,0);
},
{
name = ogonek;
pos = (349,0);
},
{
name = top;
pos = (272,1400);
},
{
name = topleft;
pos = (195,1400);
}
);
hints = (
{
horizontal = 1;
origin = (0,12);
target = up;
type = BottomGhost;
},
{
horizontal = 1;
origin = (0,18);
target = down;
type = TopGhost;
},
{
origin = (0,19);
target = (0,13);
type = Stem;
},
{
horizontal = 1;
place = (-367,113);
type = Stem;
},
{
place = (302,113);
type = Stem;
}
);
layerId = "8CC24B71-6632-46E7-AD4C-7A03FCA973DC";
shapes = (
{
closed = 1;
nodes = (
(284,-361,o),
(362,-292,o),
(362,-194,c),
(302,-194,l),
(302,-262,o),
(245,-301,o),
(193,-301,cs),
(142,-298,o),
(112,-258,o),
(112,-217,cs),
(112,-178,o),
(118,-176,o),
(294,0,c),
(302,0,l),
(302,8,l),
(304,10,l),
(302,12,l),
(302,1400,l),
(242,1400,l),
(242,32,l),
(94,-116,ls),
(67,-143,o),
(52,-181,o),
(52,-217,cs),
(52,-290,o),
(108,-360,o),
(192,-361,cs)
);
}
);
width = 482;
},
{
associatedMasterId = "8CC24B71-6632-46E7-AD4C-7A03FCA973DC";
layerId = "65FCF1C4-831F-49C7-9BF6-D3ADA4B58F42";
shapes = (
{
pos = (-19,0);
ref = I;
slant = (8,0);
},
{
alignment = -1;
pos = (-151,9);
ref = ogonek;
slant = (8,0);
}
);
width = 379;
}
);
metricRight = I;
unicode = 302;
},
{
glyphname = Itilde;
kernLeft = I;
kernRight = I;
lastChange = "2025-01-17 15:26:41 +0000";
layers = (
{
anchors = (
{
name = bottom;
pos = (301,0);
},
{
name = ogonek;
pos = (378,0);
},
{
name = top;
pos = (502,1743);
},
{
name = topleft;
pos = (224,1400);
}
);
hints = (
{
horizontal = 1;
origin = (0,3);
target = up;
type = BottomGhost;
},
{
horizontal = 1;
origin = (0,2);
target = down;
type = TopGhost;
},
{
origin = (0,3);
target = (0,0);
type = Stem;
},
{
horizontal = 1;
place = (1504,139);
type = Stem;
},
{
horizontal = 1;
place = (1677,130);
type = Stem;
},
{
place = (466,99);
type = Stem;
},
{
place = (877,48);
type = Stem;
}
);
layerId = "8CC24B71-6632-46E7-AD4C-7A03FCA973DC";
shapes = (
{
closed = 1;
nodes = (
(331,0,l),
(331,1400,l),
(271,1400,l),
(271,0,l)
);
},
{
closed = 1;
nodes = (
(554,1551,o),
(624,1649,o),
(596,1735,c),
(540,1717,l),
(552,1685,o),
(520,1611,o),
(472,1611,cs),
(386,1611,o),
(246,1757,o),
(144,1757,cs),
(48,1757,o),
(-22,1657,o),
(6,1575,c),
(64,1591,l),
(50,1647,o),
(90,1697,o),
(138,1697,cs),
(230,1697,o),
(358,1551,o),
(456,1551,cs)
);
}
);
width = 602;
},
{
associatedMasterId = "8CC24B71-6632-46E7-AD4C-7A03FCA973DC";
layerId = "65FCF1C4-831F-49C7-9BF6-D3ADA4B58F42";
shapes = (
{
pos = (60,0);
ref = I;
slant = (8,0);
},
{
alignment = -1;
pos = (-96,400);
ref = tildecomb;
slant = (8,0);
}
);
width = 602;
}
);
unicode = 296;
},
{
glyphname = J;
kernLeft = J;
kernRight = H;
lastChange = "2025-01-17 15:26:41 +0000";
layers = (
{
anchors = (
{
name = bottom;
pos = (410,0);
},
{
name = top;
pos = (439,1400);
}
);
hints = (
{
horizontal = 1;
place = (-30,137);
type = Stem;
},
{
horizontal = 1;
place = (1397,-20);
target = down;
type = TopGhost;
},
{
place = (540,137);
type = Stem;
}
);
layerId = "8CC24B71-6632-46E7-AD4C-7A03FCA973DC";
shapes = (
{
closed = 1;
nodes = (
(244,0,ls),
(436,0,o),
(518,118,o),
(518,288,cs),
(518,1401,l),
(458,1401,l),
(458,267,ls),
(458,152,o),
(384,59,o),
(238,59,cs),
(8,59,l),
(8,0,l)
);
}
);
width = 638;
},
{
anchors = (
{
name = bottom;
pos = (261,0);
},
{
name = top;
pos = (487,1400);
}
);
associatedMasterId = "8CC24B71-6632-46E7-AD4C-7A03FCA973DC";
hints = (
{
horizontal = 1;
place = (-171,-4);
type = Stem;
},
{
horizontal = 1;
place = (1256,-20);
target = down;
type = TopGhost;
},
{
place = (399,-4);
type = Stem;
}
);
layerId = "65FCF1C4-831F-49C7-9BF6-D3ADA4B58F42";
shapes = (
{
closed = 1;
nodes = (
(95,0,ls),
(287,0,o),
(404,118,o),
(428,288,cs),
(579,1365,ls),
(582,1386,o),
(568,1404,o),
(546,1404,cs),
(524,1404,o),
(504,1386,o),
(501,1365,cs),
(347,267,ls),
(331,152,o),
(244,59,o),
(98,59,cs),
(-86,59,ls),
(-112,59,o),
(-123,43,o),
(-113,21,cs),
(-112,20,ls),
(-105,6,o),
(-94,0,o),
(-77,0,cs)
);
}
);
width = 576;
}
);
metricRight = I;
unicode = 74;
},
{
glyphname = Jacute;
kernLeft = J;
kernRight = J;
lastChange = "2025-01-17 15:26:41 +0000";
layers = (
{
anchors = (
{
name = bottom;
pos = (410,0);
},
{
name = top;
pos = (502,1394);
}
);
hints = (
{
horizontal = 1;
place = (-30,137);
type = Stem;
},
{
horizontal = 1;
place = (1397,-20);
target = down;
type = TopGhost;
},
{
place = (540,137);
type = Stem;
},
{
horizontal = 1;
place = (1785,-20);
target = down;
type = TopGhost;
},
{
place = (947,228);
type = Stem;
},
{
horizontal = 1;
origin = (1,3);
target = down;
type = TopGhost;
},
{
origin = (1,3);
target = (1,2);
type = Stem;
}
);
layerId = "8CC24B71-6632-46E7-AD4C-7A03FCA973DC";
shapes = (
{
closed = 1;
nodes = (
(244,0,ls),
(436,0,o),
(518,118,o),
(518,288,cs),
(518,1401,l),
(458,1401,l),
(458,267,ls),
(458,152,o),
(384,59,o),
(238,59,cs),
(8,59,l),
(8,0,l)
);
},
{
closed = 1;
nodes = (
(618,1792,l),
(535,1792,l),
(453,1504,l),
(492,1504,l)
);
}
);
width = 588;
},
{
associatedMasterId = "8CC24B71-6632-46E7-AD4C-7A03FCA973DC";
layerId = "65FCF1C4-831F-49C7-9BF6-D3ADA4B58F42";
shapes = (
{
pos = (-141,0);
ref = J;
slant = (8,0);
},
{
alignment = -1;
pos = (356,394);
ref = acutecomb;
slant = (8,0);
}
);
width = 588;
}
);
},
{
glyphname = Jcircumflex;
kernLeft = J;
kernRight = J;
lastChange = "2025-01-17 15:26:41 +0000";
layers = (
{
anchors = (
{
name = bottom;
pos = (410,0);
},
{
name = top;
pos = (526,1671);
}
);
hints = (
{
horizontal = 1;
place = (-30,137);
type = Stem;
},
{
horizontal = 1;
place = (1397,-20);
target = down;
type = TopGhost;
},
{
place = (540,137);
type = Stem;
},
{
horizontal = 1;
place = (1238,-20);
target = down;
type = TopGhost;
},
{
horizontal = 1;
place = (1712,8);
type = Stem;
}
);
layerId = "8CC24B71-6632-46E7-AD4C-7A03FCA973DC";
shapes = (
{
closed = 1;
nodes = (
(244,0,ls),
(436,0,o),
(518,118,o),
(518,288,cs),
(518,1401,l),
(458,1401,l),
(458,267,ls),
(458,152,o),
(384,59,o),
(238,59,cs),
(8,59,l),
(8,0,l)
);
},
{
closed = 1;
nodes = (
(293,1434,l),
(473,1643,l),
(656,1434,l),
(696,1434,l),
(504,1722,l),
(444,1722,l),
(253,1434,l)
);
}
);
width = 674;
},
{
associatedMasterId = "8CC24B71-6632-46E7-AD4C-7A03FCA973DC";
layerId = "65FCF1C4-831F-49C7-9BF6-D3ADA4B58F42";
shapes = (
{
pos = (-193,0);
ref = J;
slant = (8,0);
},
{
pos = (94,324);
ref = circumflexcomb;
slant = (8,0);
}
);
width = 622;
}
);
metricLeft = J;
unicode = 308;
},
{
glyphname = K;
kernLeft = H;
kernRight = K;
lastChange = "2025-01-17 15:26:41 +0000";
layers = (
{
anchors = (
{
name = bottom;
pos = (497,0);
},
{
name = ogonek;
pos = (-396,1132);
},
{
name = top;
pos = (457,1000);
},
{
name = topleft;
pos = (1004,1286);
}
);
hints = (
{
horizontal = 1;
place = (-27,21);
target = up;
type = BottomGhost;
},
{
horizontal = 1;
place = (1374,-20);
target = down;
type = TopGhost;
},
{
place = (94,114);
type = Stem;
},
{
horizontal = 1;
place = (763,21);
target = up;
type = BottomGhost;
},
{
horizontal = 1;
place = (769,-20);
target = down;
type = TopGhost;
},
{
place = (115,0);
type = Stem;
}
);
layerId = "8CC24B71-6632-46E7-AD4C-7A03FCA973DC";
shapes = (
{
closed = 1;
nodes = (
(1093,0,l),
(1093,60,l),
(233,60,l),
(1069,1400,l),
(999,1400,l),
(180,89,l),
(180,1400,l),
(120,1400,l),
(120,0,l)
);
}
);
width = 1213;
},
{
anchors = (
{
name = bottom;
pos = (367,0);
},
{
name = ogonek;
pos = (-417,1132);
},
{
name = top;
pos = (535,1400);
},
{
name = topleft;
pos = (1004,1286);
}
);
associatedMasterId = "8CC24B71-6632-46E7-AD4C-7A03FCA973DC";
hints = (
{
horizontal = 1;
place = (-168,21);
target = up;
type = BottomGhost;
},
{
horizontal = 1;
place = (1233,-20);
target = down;
type = TopGhost;
},
{
place = (-47,-27);
type = Stem;
},
{
horizontal = 1;
place = (622,21);
target = up;
type = BottomGhost;
},
{
horizontal = 1;
place = (628,-20);
target = down;
type = TopGhost;
},
{
place = (-26,-141);
type = Stem;
}
);
layerId = "65FCF1C4-831F-49C7-9BF6-D3ADA4B58F42";
shapes = (
{
closed = 1;
nodes = (
(583,701,l),
(1027,1359,l),
(1030,1364,o),
(1033,1368,o),
(1033,1373,cs),
(1036,1390,o),
(1024,1403,o),
(1008,1403,cs),
(996,1403,o),
(985,1397,o),
(979,1387,cs),
(535,730,l),
(104,730,ls),
(88,730,o),
(72,717,o),
(70,700,cs),
(67,683,o),
(80,670,o),
(96,670,cs),
(526,670,l),
(868,10,ls),
(873,3,o),
(880,-3,o),
(890,-3,cs),
(906,-3,o),
(921,10,o),
(923,26,cs),
(924,31,o),
(923,36,o),
(920,41,cs)
);
},
{
pos = (-141,0);
ref = I;
slant = (8,0);
}
);
width = 1102;
}
);
metricLeft = I;
metricRight = I;
unicode = 75;
},
{
glyphname = Kcaron;
kernLeft = H;
kernRight = K;
lastChange = "2025-01-17 15:26:41 +0000";
layers = (
{
anchors = (
{
name = bottom;
pos = (460,1485);
},
{
name = ogonek;
pos = (-396,1132);
},
{
name = top;
pos = (766,1747);
},
{
name = topleft;
pos = (1004,1286);
}
);
hints = (
{
horizontal = 1;
place = (1360,-20);
target = down;
type = TopGhost;
},
{
horizontal = 1;
place = (-27,21);
target = up;
type = BottomGhost;
},
{
horizontal = 1;
place = (1374,-20);
target = down;
type = TopGhost;
},
{
place = (94,114);
type = Stem;
},
{
horizontal = 1;
place = (763,21);
target = up;
type = BottomGhost;
},
{
horizontal = 1;
place = (769,-20);
target = down;
type = TopGhost;
},
{
place = (115,0);
type = Stem;
},
{
horizontal = 1;
place = (1918,21);
target = up;
type = BottomGhost;
},
{
horizontal = 1;
place = (1444,-8);
type = Stem;
}
);
layerId = "8CC24B71-6632-46E7-AD4C-7A03FCA973DC";
shapes = (
{
closed = 1;
nodes = (
(1093,0,l),
(1093,60,l),
(233,60,l),
(1069,1400,l),
(999,1400,l),
(180,89,l),
(180,1400,l),
(120,1400,l),
(120,0,l)
);
},
{
closed = 1;
nodes = (
(693,1722,l),
(513,1513,l),
(330,1722,l),
(290,1722,l),
(482,1434,l),
(542,1434,l),
(733,1722,l)
);
}
);
width = 1213;
},
{
anchors = (
{
name = top;
pos = (844,1747);
}
);
associatedMasterId = "8CC24B71-6632-46E7-AD4C-7A03FCA973DC";
hints = (
{
horizontal = 1;
place = (1219,-20);
target = down;
type = TopGhost;
}
);
layerId = "65FCF1C4-831F-49C7-9BF6-D3ADA4B58F42";
shapes = (
{
pos = (-168,0);
ref = K;
slant = (8,0);
},
{
alignment = -1;
angle = 180;
pos = (975,2832);
ref = circumflexcomb;
slant = (8,0);
}
);
width = 1148;
}
);
metricLeft = I;
metricRight = I;
unicode = 488;
},
{
glyphname = Kcommaaccent;
kernLeft = H;
kernRight = K;
lastChange = "2025-01-17 15:26:41 +0000";
layers = (
{
anchors = (
{
name = bottom;
pos = (497,0);
},
{
name = ogonek;
pos = (-396,1132);
},
{
name = top;
pos = (457,1000);
},
{
name = topleft;
pos = (1004,1286);
}
);
hints = (
{
horizontal = 1;
place = (-27,21);
target = up;
type = BottomGhost;
},
{
horizontal = 1;
place = (1374,-20);
target = down;
type = TopGhost;
},
{
place = (94,114);
type = Stem;
},
{
horizontal = 1;
place = (763,21);
target = up;
type = BottomGhost;
},
{
horizontal = 1;
place = (769,-20);
target = down;
type = TopGhost;
},
{
place = (115,0);
type = Stem;
}
);
layerId = "8CC24B71-6632-46E7-AD4C-7A03FCA973DC";
shapes = (
{
closed = 1;
nodes = (
(484,-429,l),
(583,-91,l),
(523,-91,l),
(451,-429,l)
);
},
{
closed = 1;
nodes = (
(1093,0,l),
(1093,60,l),
(233,60,l),
(1069,1400,l),
(999,1400,l),
(180,89,l),
(180,1400,l),
(120,1400,l),
(120,0,l)
);
}
);
width = 1213;
},
{
associatedMasterId = "8CC24B71-6632-46E7-AD4C-7A03FCA973DC";
layerId = "65FCF1C4-831F-49C7-9BF6-D3ADA4B58F42";
shapes = (
{
pos = (250,12);
ref = commaaccentcomb;
slant = (8,0);
},
{
pos = (-191,0);
ref = K;
slant = (8,0);
}
);
width = 1102;
}
);
metricLeft = I;
metricRight = I;
unicode = 310;
},
{
glyphname = L;
kernLeft = H;
kernRight = L;
lastChange = "2025-01-17 15:26:41 +0000";
layers = (
{
anchors = (
{
name = bottom;
pos = (512,0);
},
{
name = center;
pos = (502,700);
},
{
name = top;
pos = (553,1400);
},
{
name = topright;
pos = (903,1400);
}
);
hints = (
{
horizontal = 1;
origin = (0,5);
target = (0,2);
type = Stem;
},
{
horizontal = 1;
origin = (0,4);
target = down;
type = TopGhost;
},
{
origin = (0,5);
target = (0,2);
type = Stem;
}
);
layerId = "8CC24B71-6632-46E7-AD4C-7A03FCA973DC";
shapes = (
{
closed = 1;
nodes = (
(1011,0,l),
(1011,60,l),
(180,60,l),
(180,1400,l),
(120,1400,l),
(120,0,l)
);
}
);
width = 1071;
},
{
anchors = (
{
name = bottom;
pos = (320,0);
},
{
name = center;
pos = (409,700);
},
{
name = top;
pos = (558,1400);
},
{
name = topright;
pos = (908,1400);
}
);
associatedMasterId = "8CC24B71-6632-46E7-AD4C-7A03FCA973DC";
hints = (
{
horizontal = 1;
origin = (0,18);
target = (0,7);
type = Stem;
},
{
horizontal = 1;
origin = (0,14);
target = down;
type = TopGhost;
},
{
origin = (0,15);
target = (0,7);
type = Stem;
}
);
layerId = "65FCF1C4-831F-49C7-9BF6-D3ADA4B58F42";
shapes = (
{
closed = 1;
nodes = (
(684,0,ls),
(700,0,o),
(716,13,o),
(719,30,cs),
(721,47,o),
(709,60,o),
(693,60,cs),
(15,60,l),
(198,1364,ls),
(201,1385,o),
(187,1403,o),
(165,1403,cs),
(143,1403,o),
(123,1385,o),
(120,1364,cs),
(-67,32,ls),
(-70,12,o),
(-60,0,o),
(-40,0,cs)
);
}
);
width = 896;
}
);
metricLeft = I;
unicode = 76;
},
{
glyphname = Lacute;
kernLeft = L;
kernRight = L;
lastChange = "2025-01-17 15:26:41 +0000";
layers = (
{
anchors = (
{
name = bottom;
pos = (512,0);
},
{
name = center;
pos = (502,700);
},
{
name = top;
pos = (176,1465);
},
{
name = topright;
pos = (903,1400);
}
);
hints = (
{
horizontal = 1;
origin = (0,5);
target = (0,2);
type = Stem;
},
{
horizontal = 1;
origin = (0,4);
target = down;
type = TopGhost;
},
{
origin = (0,5);
target = (0,2);
type = Stem;
},
{
horizontal = 1;
place = (1856,-20);
target = down;
type = TopGhost;
},
{
place = (621,228);
type = Stem;
},
{
horizontal = 1;
origin = (1,3);
target = down;
type = TopGhost;
},
{
origin = (1,3);
target = (1,2);
type = Stem;
}
);
layerId = "8CC24B71-6632-46E7-AD4C-7A03FCA973DC";
shapes = (
{
closed = 1;
nodes = (
(1011,0,l),
(1011,60,l),
(180,60,l),
(180,1400,l),
(120,1400,l),
(120,0,l)
);
},
{
closed = 1;
nodes = (
(292,1863,l),
(209,1863,l),
(127,1575,l),
(166,1575,l)
);
}
);
width = 1071;
},
{
associatedMasterId = "8CC24B71-6632-46E7-AD4C-7A03FCA973DC";
layerId = "65FCF1C4-831F-49C7-9BF6-D3ADA4B58F42";
shapes = (
{
pos = (-167,0);
ref = L;
slant = (8,0);
},
{
pos = (-43,465);
ref = acutecomb;
slant = (8,0);
}
);
width = 871;
}
);
metricLeft = L;
unicode = 313;
},
{
glyphname = Lcaron;
kernLeft = L;
kernRight = L;
lastChange = "2025-01-17 15:26:41 +0000";
layers = (
{
anchors = (
{
name = bottom;
pos = (512,0);
},
{
name = center;
pos = (502,700);
},
{
name = top;
pos = (424,1402);
},
{
name = topright;
pos = (903,1400);
}
);
hints = (
{
horizontal = 1;
origin = (0,5);
target = (0,2);
type = Stem;
},
{
horizontal = 1;
origin = (0,4);
target = down;
type = TopGhost;
},
{
origin = (0,5);
target = (0,2);
type = Stem;
},
{
horizontal = 1;
place = (1393,-20);
target = down;
type = TopGhost;
},
{
place = (808,228);
type = Stem;
},
{
horizontal = 1;
origin = (1,3);
target = down;
type = TopGhost;
},
{
origin = (1,3);
target = (1,2);
type = Stem;
}
);
layerId = "8CC24B71-6632-46E7-AD4C-7A03FCA973DC";
shapes = (
{
closed = 1;
nodes = (
(1011,0,l),
(1011,60,l),
(180,60,l),
(180,1400,l),
(120,1400,l),
(120,0,l)
);
},
{
closed = 1;
nodes = (
(479,1400,l),
(396,1400,l),
(314,1112,l),
(353,1112,l)
);
}
);
width = 1071;
},
{
associatedMasterId = "8CC24B71-6632-46E7-AD4C-7A03FCA973DC";
layerId = "65FCF1C4-831F-49C7-9BF6-D3ADA4B58F42";
shapes = (
{
pos = (-167,0);
ref = L;
slant = (8,0);
},
{
pos = (150,2);
ref = caroncomb.alt;
slant = (8,0);
}
);
width = 871;
}
);
metricLeft = L;
unicode = 317;
},
{
glyphname = Lcommaaccent;
kernLeft = L;
kernRight = L;
lastChange = "2025-01-17 15:26:41 +0000";
layers = (
{
anchors = (
{
name = bottom;
pos = (512,0);
},
{
name = center;
pos = (502,700);
},
{
name = top;
pos = (553,1400);
},
{
name = topright;
pos = (903,1400);
}
);
hints = (
{
horizontal = 1;
origin = (0,5);
target = (0,2);
type = Stem;
},
{
horizontal = 1;
origin = (0,4);
target = down;
type = TopGhost;
},
{
origin = (0,5);
target = (0,2);
type = Stem;
}
);
layerId = "8CC24B71-6632-46E7-AD4C-7A03FCA973DC";
shapes = (
{
closed = 1;
nodes = (
(1011,0,l),
(1011,60,l),
(180,60,l),
(180,1400,l),
(120,1400,l),
(120,0,l)
);
},
{
closed = 1;
nodes = (
(403,-441,l),
(502,-103,l),
(442,-103,l),
(370,-441,l)
);
}
);
width = 1071;
},
{
associatedMasterId = "8CC24B71-6632-46E7-AD4C-7A03FCA973DC";
layerId = "65FCF1C4-831F-49C7-9BF6-D3ADA4B58F42";
shapes = (
{
pos = (-167,0);
ref = L;
slant = (8,0);
},
{
pos = (191,0);
ref = commaaccentcomb;
slant = (8,0);
}
);
width = 871;
}
);
metricLeft = L;
unicode = 315;
},
{
glyphname = Ldotbelow;
kernLeft = L;
kernRight = L;
lastChange = "2025-01-17 15:26:41 +0000";
layers = (
{
anchors = (
{
name = bottom;
pos = (512,0);
},
{
name = center;
pos = (502,700);
},
{
name = top;
pos = (553,1400);
},
{
name = topright;
pos = (903,1400);
}
);
hints = (
{
horizontal = 1;
origin = (0,5);
target = (0,2);
type = Stem;
},
{
horizontal = 1;
origin = (0,4);
target = down;
type = TopGhost;
},
{
origin = (0,5);
target = (0,2);
type = Stem;
},
{
horizontal = 1;
origin = (1,11);
target = (1,5);
type = Stem;
},
{
origin = (1,8);
target = (1,2);
type = Stem;
}
);
layerId = "8CC24B71-6632-46E7-AD4C-7A03FCA973DC";
shapes = (
{
closed = 1;
nodes = (
(1011,0,l),
(1011,60,l),
(180,60,l),
(180,1400,l),
(120,1400,l),
(120,0,l)
);
},
{
closed = 1;
nodes = (
(592,-346,o),
(611,-327,o),
(611,-301,cs),
(611,-275,o),
(591,-256,o),
(566,-256,cs),
(541,-256,o),
(521,-275,o),
(521,-301,cs),
(521,-327,o),
(541,-346,o),
(566,-346,cs)
);
}
);
width = 1071;
},
{
associatedMasterId = "8CC24B71-6632-46E7-AD4C-7A03FCA973DC";
layerId = "65FCF1C4-831F-49C7-9BF6-D3ADA4B58F42";
shapes = (
{
pos = (-167,0);
ref = L;
slant = (8,0);
},
{
pos = (212,0);
ref = dotbelowcomb;
slant = (8,0);
}
);
width = 871;
}
);
metricLeft = L;
unicode = 7734;
},
{
glyphname = M;
kernLeft = I;
kernRight = I;
lastChange = "2025-01-17 15:26:41 +0000";
layers = (
{
anchors = (
{
name = bottom;
pos = (718,0);
},
{
name = top;
pos = (718,1400);
}
);
hints = (
{
horizontal = 1;
place = (0,21);
target = up;
type = BottomGhost;
},
{
horizontal = 1;
place = (1400,-20);
target = down;
type = TopGhost;
}
);
layerId = "8CC24B71-6632-46E7-AD4C-7A03FCA973DC";
shapes = (
{
closed = 1;
nodes = (
(180,0,l),
(180,1278,l),
(697,381,l),
(741,381,l),
(1259,1280,l),
(1259,0,l),
(1319,0,l),
(1319,1400,l),
(1259,1400,l),
(718,456,l),
(180,1400,l),
(120,1400,l),
(120,0,l)
);
}
);
width = 1439;
},
{
anchors = (
{
name = bottom;
pos = (526,0);
},
{
name = top;
pos = (723,1400);
}
);
associatedMasterId = "8CC24B71-6632-46E7-AD4C-7A03FCA973DC";
hints = (
{
horizontal = 1;
place = (-141,21);
target = up;
type = BottomGhost;
},
{
horizontal = 1;
place = (1259,-20);
target = down;
type = TopGhost;
}
);
layerId = "65FCF1C4-831F-49C7-9BF6-D3ADA4B58F42";
shapes = (
{
closed = 1;
nodes = (
(14,37,cs),
(188,1278,l),
(573,396,ls),
(578,385,o),
(588,378,o),
(601,378,cs),
(614,378,o),
(626,385,o),
(633,396,cs),
(1267,1280,l),
(1090,17,ls),
(1088,6,o),
(1096,-3,o),
(1107,-3,cs),
(1118,-3,o),
(1128,6,o),
(1130,17,cs),
(1319,1366,ls),
(1322,1386,o),
(1308,1403,o),
(1288,1403,cs),
(1274,1403,o),
(1261,1395,o),
(1253,1384,cs),
(591,456,l),
(192,1384,ls),
(188,1395,o),
(177,1403,o),
(163,1403,cs),
(143,1403,o),
(123,1386,o),
(120,1366,cs),
(-66,37,ls),
(-69,15,o),
(-54,-3,o),
(-32,-3,cs),
(-10,-3,o),
(11,15,o)
);
}
);
width = 1337;
}
);
metricLeft = I;
metricRight = I;
unicode = 77;
},
{
glyphname = Macute;
kernLeft = I;
kernRight = I;
lastChange = "2025-01-17 15:26:41 +0000";
layers = (
{
anchors = (
{
name = _top;
pos = (753,1285);
},
{
name = bottom;
pos = (718,0);
},
{
name = top;
pos = (718,1400);
}
);
hints = (
{
horizontal = 1;
place = (1676,-20);
target = down;
type = TopGhost;
},
{
place = (1194,228);
type = Stem;
},
{
horizontal = 1;
origin = (0,3);
target = down;
type = TopGhost;
},
{
origin = (0,3);
target = (0,2);
type = Stem;
},
{
horizontal = 1;
place = (0,21);
target = up;
type = BottomGhost;
},
{
horizontal = 1;
place = (1400,-20);
target = down;
type = TopGhost;
}
);
layerId = "8CC24B71-6632-46E7-AD4C-7A03FCA973DC";
shapes = (
{
closed = 1;
nodes = (
(865,1683,l),
(782,1683,l),
(700,1395,l),
(739,1395,l)
);
},
{
closed = 1;
nodes = (
(180,0,l),
(180,1278,l),
(697,381,l),
(741,381,l),
(1259,1280,l),
(1259,0,l),
(1319,0,l),
(1319,1400,l),
(1259,1400,l),
(718,456,l),
(180,1400,l),
(120,1400,l),
(120,0,l)
);
}
);
width = 1439;
},
{
associatedMasterId = "8CC24B71-6632-46E7-AD4C-7A03FCA973DC";
layerId = "65FCF1C4-831F-49C7-9BF6-D3ADA4B58F42";
shapes = (
{
pos = (475,285);
ref = acutecomb;
slant = (8,0);
},
{
pos = (-141,0);
ref = M;
slant = (8,0);
}
);
width = 1337;
}
);
metricLeft = M;
metricRight = M;
unicode = 7742;
},
{
glyphname = Mdotaccent;
kernLeft = I;
kernRight = I;
lastChange = "2025-01-17 15:26:41 +0000";
layers = (
{
anchors = (
{
name = _top;
pos = (680,1259);
},
{
name = bottom;
pos = (718,0);
},
{
name = top;
pos = (718,1400);
}
);
hints = (
{
horizontal = 1;
origin = (0,11);
target = (0,5);
type = Stem;
},
{
origin = (0,8);
target = (0,2);
type = Stem;
},
{
horizontal = 1;
place = (0,21);
target = up;
type = BottomGhost;
},
{
horizontal = 1;
place = (1400,-20);
target = down;
type = TopGhost;
}
);
layerId = "8CC24B71-6632-46E7-AD4C-7A03FCA973DC";
shapes = (
{
closed = 1;
nodes = (
(706,1458,o),
(725,1477,o),
(725,1503,cs),
(725,1529,o),
(705,1548,o),
(680,1548,cs),
(655,1548,o),
(635,1529,o),
(635,1503,cs),
(635,1477,o),
(655,1458,o),
(680,1458,cs)
);
},
{
closed = 1;
nodes = (
(180,0,l),
(180,1278,l),
(697,381,l),
(741,381,l),
(1259,1280,l),
(1259,0,l),
(1319,0,l),
(1319,1400,l),
(1259,1400,l),
(718,456,l),
(180,1400,l),
(120,1400,l),
(120,0,l)
);
}
);
width = 1439;
},
{
associatedMasterId = "8CC24B71-6632-46E7-AD4C-7A03FCA973DC";
layerId = "65FCF1C4-831F-49C7-9BF6-D3ADA4B58F42";
shapes = (
{
pos = (516,307);
ref = dotaccentcomb;
slant = (8,0);
},
{
pos = (-141,0);
ref = M;
slant = (8,0);
}
);
width = 1337;
}
);
metricLeft = M;
metricRight = M;
unicode = 7744;
},
{
glyphname = Mdotbelow;
kernLeft = I;
kernRight = I;
lastChange = "2025-01-17 15:26:41 +0000";
layers = (
{
anchors = (
{
name = _bottom;
pos = (1401,0);
},
{
name = bottom;
pos = (718,0);
},
{
name = top;
pos = (718,1400);
}
);
hints = (
{
horizontal = 1;
origin = (0,11);
target = (0,5);
type = Stem;
},
{
origin = (0,8);
target = (0,2);
type = Stem;
},
{
horizontal = 1;
place = (0,21);
target = up;
type = BottomGhost;
},
{
horizontal = 1;
place = (1400,-20);
target = down;
type = TopGhost;
}
);
layerId = "8CC24B71-6632-46E7-AD4C-7A03FCA973DC";
shapes = (
{
closed = 1;
nodes = (
(696,-346,o),
(715,-327,o),
(715,-301,cs),
(715,-275,o),
(695,-256,o),
(670,-256,cs),
(645,-256,o),
(625,-275,o),
(625,-301,cs),
(625,-327,o),
(645,-346,o),
(670,-346,cs)
);
},
{
closed = 1;
nodes = (
(180,0,l),
(180,1278,l),
(697,381,l),
(741,381,l),
(1259,1280,l),
(1259,0,l),
(1319,0,l),
(1319,1400,l),
(1259,1400,l),
(718,456,l),
(180,1400,l),
(120,1400,l),
(120,0,l)
);
}
);
width = 1439;
},
{
associatedMasterId = "8CC24B71-6632-46E7-AD4C-7A03FCA973DC";
layerId = "65FCF1C4-831F-49C7-9BF6-D3ADA4B58F42";
shapes = (
{
pos = (472,0);
ref = dotbelowcomb;
slant = (8,0);
},
{
pos = (-141,0);
ref = M;
slant = (8,0);
}
);
width = 1337;
}
);
metricLeft = M;
metricRight = M;
unicode = 7746;
},
{
glyphname = N;
kernLeft = I;
kernRight = I;
lastChange = "2025-01-17 15:26:41 +0000";
layers = (
{
anchors = (
{
name = bottom;
pos = (635,0);
},
{
name = top;
pos = (635,1400);
}
);
hints = (
{
horizontal = 1;
origin = (0,9);
target = up;
type = BottomGhost;
},
{
horizontal = 1;
origin = (0,8);
target = down;
type = TopGhost;
},
{
origin = (0,9);
target = (0,0);
type = Stem;
},
{
origin = (0,6);
target = (0,3);
type = Stem;
}
);
layerId = "8CC24B71-6632-46E7-AD4C-7A03FCA973DC";
shapes = (
{
closed = 1;
nodes = (
(180,0,l),
(180,1297,l),
(1077,0,l),
(1137,0,l),
(1137,1400,l),
(1077,1400,l),
(1077,103,l),
(180,1400,l),
(120,1400,l),
(120,0,l)
);
}
);
width = 1257;
},
{
anchors = (
{
name = bottom;
pos = (443,0);
},
{
name = top;
pos = (640,1400);
}
);
associatedMasterId = "8CC24B71-6632-46E7-AD4C-7A03FCA973DC";
hints = (
{
horizontal = 1;
origin = (0,24);
target = up;
type = BottomGhost;
},
{
horizontal = 1;
origin = (0,23);
target = down;
type = TopGhost;
},
{
origin = (0,24);
target = (0,0);
type = Stem;
},
{
origin = (0,16);
target = (0,8);
type = Stem;
}
);
layerId = "65FCF1C4-831F-49C7-9BF6-D3ADA4B58F42";
shapes = (
{
closed = 1;
nodes = (
(14,37,cs),
(191,1297,l),
(901,8,ls),
(905,2,o),
(912,-3,o),
(920,-3,cs),
(934,-3,o),
(947,9,o),
(949,22,cs),
(1140,1383,ls),
(1141,1394,o),
(1134,1403,o),
(1123,1403,cs),
(1112,1403,o),
(1101,1394,o),
(1100,1383,cs),
(920,103,l),
(193,1387,ls),
(187,1396,o),
(177,1403,o),
(164,1403,cs),
(143,1403,o),
(123,1386,o),
(120,1365,cs),
(-66,37,ls),
(-69,15,o),
(-54,-3,o),
(-32,-3,cs),
(-10,-3,o),
(11,15,o)
);
}
);
width = 1155;
}
);
metricLeft = I;
metricRight = I;
unicode = 78;
},
{
glyphname = Nacute;
kernLeft = I;
kernRight = I;
lastChange = "2025-01-17 15:26:41 +0000";
layers = (
{
anchors = (
{
name = bottom;
pos = (635,0);
},
{
name = top;
pos = (610,1321);
}
);
hints = (
{
horizontal = 1;
origin = (0,9);
target = up;
type = BottomGhost;
},
{
horizontal = 1;
origin = (0,8);
target = down;
type = TopGhost;
},
{
origin = (0,9);
target = (0,0);
type = Stem;
},
{
origin = (0,6);
target = (0,3);
type = Stem;
},
{
horizontal = 1;
place = (1712,-20);
target = down;
type = TopGhost;
},
{
place = (1055,228);
type = Stem;
},
{
horizontal = 1;
origin = (1,3);
target = down;
type = TopGhost;
},
{
origin = (1,3);
target = (1,2);
type = Stem;
}
);
layerId = "8CC24B71-6632-46E7-AD4C-7A03FCA973DC";
shapes = (
{
closed = 1;
nodes = (
(180,0,l),
(180,1297,l),
(1077,0,l),
(1137,0,l),
(1137,1400,l),
(1077,1400,l),
(1077,103,l),
(180,1400,l),
(120,1400,l),
(120,0,l)
);
},
{
closed = 1;
nodes = (
(726,1719,l),
(643,1719,l),
(561,1431,l),
(600,1431,l)
);
}
);
width = 1257;
},
{
associatedMasterId = "8CC24B71-6632-46E7-AD4C-7A03FCA973DC";
layerId = "65FCF1C4-831F-49C7-9BF6-D3ADA4B58F42";
shapes = (
{
pos = (-141,0);
ref = N;
slant = (8,0);
},
{
pos = (449,288);
ref = acutecomb;
slant = (8,0);
}
);
width = 1156;
}
);
metricLeft = N;
metricRight = N;
unicode = 323;
},
{
glyphname = Ncaron;
kernLeft = I;
kernRight = I;
lastChange = "2025-01-17 15:26:41 +0000";
layers = (
{
anchors = (
{
name = bottom;
pos = (527,1476);
},
{
name = top;
pos = (683,1747);
}
);
hints = (
{
horizontal = 1;
place = (1345,-20);
target = down;
type = TopGhost;
},
{
horizontal = 1;
origin = (0,9);
target = up;
type = BottomGhost;
},
{
horizontal = 1;
origin = (0,8);
target = down;
type = TopGhost;
},
{
origin = (0,9);
target = (0,0);
type = Stem;
},
{
origin = (0,6);
target = (0,3);
type = Stem;
},
{
horizontal = 1;
place = (1909,21);
target = up;
type = BottomGhost;
},
{
horizontal = 1;
place = (1435,-8);
type = Stem;
}
);
layerId = "8CC24B71-6632-46E7-AD4C-7A03FCA973DC";
shapes = (
{
closed = 1;
nodes = (
(180,0,l),
(180,1297,l),
(1077,0,l),
(1137,0,l),
(1137,1400,l),
(1077,1400,l),
(1077,103,l),
(180,1400,l),
(120,1400,l),
(120,0,l)
);
},
{
closed = 1;
nodes = (
(760,1713,l),
(580,1504,l),
(397,1713,l),
(357,1713,l),
(549,1425,l),
(609,1425,l),
(800,1713,l)
);
}
);
width = 1257;
},
{
anchors = (
{
name = top;
pos = (788,1747);
}
);
associatedMasterId = "8CC24B71-6632-46E7-AD4C-7A03FCA973DC";
hints = (
{
horizontal = 1;
place = (1204,-20);
target = down;
type = TopGhost;
}
);
layerId = "65FCF1C4-831F-49C7-9BF6-D3ADA4B58F42";
shapes = (
{
pos = (-141,0);
ref = N;
slant = (8,0);
},
{
alignment = -1;
angle = 180;
pos = (1068,2823);
ref = circumflexcomb;
slant = (8,0);
}
);
width = 1155;
}
);
metricLeft = N;
metricRight = N;
unicode = 327;
},
{
glyphname = Ncommaaccent;
kernLeft = I;
kernRight = I;
lastChange = "2025-01-17 15:26:41 +0000";
layers = (
{
anchors = (
{
name = bottom;
pos = (635,0);
},
{
name = top;
pos = (635,1400);
}
);
hints = (
{
horizontal = 1;
origin = (0,9);
target = up;
type = BottomGhost;
},
{
horizontal = 1;
origin = (0,8);
target = down;
type = TopGhost;
},
{
origin = (0,9);
target = (0,0);
type = Stem;
},
{
origin = (0,6);
target = (0,3);
type = Stem;
}
);
layerId = "8CC24B71-6632-46E7-AD4C-7A03FCA973DC";
shapes = (
{
closed = 1;
nodes = (
(180,0,l),
(180,1297,l),
(1077,0,l),
(1137,0,l),
(1137,1400,l),
(1077,1400,l),
(1077,103,l),
(180,1400,l),
(120,1400,l),
(120,0,l)
);
},
{
closed = 1;
nodes = (
(546,-399,l),
(645,-61,l),
(585,-61,l),
(513,-399,l)
);
}
);
width = 1257;
},
{
associatedMasterId = "8CC24B71-6632-46E7-AD4C-7A03FCA973DC";
layerId = "65FCF1C4-831F-49C7-9BF6-D3ADA4B58F42";
shapes = (
{
pos = (-141,0);
ref = N;
slant = (8,0);
},
{
pos = (366,42);
ref = commaaccentcomb;
slant = (8,0);
}
);
width = 1155;
}
);
metricLeft = N;
metricRight = N;
unicode = 325;
},
{
glyphname = Ndotaccent;
kernLeft = I;
kernRight = I;
lastChange = "2025-01-17 15:26:41 +0000";
layers = (
{
anchors = (
{
name = bottom;
pos = (635,0);
},
{
name = top;
pos = (589,1261);
}
);
hints = (
{
horizontal = 1;
origin = (0,9);
target = up;
type = BottomGhost;
},
{
horizontal = 1;
origin = (0,8);
target = down;
type = TopGhost;
},
{
origin = (0,9);
target = (0,0);
type = Stem;
},
{
origin = (0,6);
target = (0,3);
type = Stem;
},
{
horizontal = 1;
origin = (1,11);
target = (1,5);
type = Stem;
},
{
origin = (1,8);
target = (1,2);
type = Stem;
}
);
layerId = "8CC24B71-6632-46E7-AD4C-7A03FCA973DC";
shapes = (
{
closed = 1;
nodes = (
(180,0,l),
(180,1297,l),
(1077,0,l),
(1137,0,l),
(1137,1400,l),
(1077,1400,l),
(1077,103,l),
(180,1400,l),
(120,1400,l),
(120,0,l)
);
},
{
closed = 1;
nodes = (
(615,1458,o),
(634,1477,o),
(634,1503,cs),
(634,1529,o),
(614,1548,o),
(589,1548,cs),
(564,1548,o),
(544,1529,o),
(544,1503,cs),
(544,1477,o),
(564,1458,o),
(589,1458,cs)
);
}
);
width = 1257;
},
{
associatedMasterId = "8CC24B71-6632-46E7-AD4C-7A03FCA973DC";
layerId = "65FCF1C4-831F-49C7-9BF6-D3ADA4B58F42";
shapes = (
{
pos = (-141,0);
ref = N;
slant = (8,0);
},
{
pos = (435,384);
ref = dotaccentcomb;
slant = (8,0);
}
);
width = 1155;
}
);
metricLeft = N;
metricRight = N;
unicode = 7748;
},
{
glyphname = Ndotbelow;
kernLeft = I;
kernRight = I;
lastChange = "2025-01-17 15:26:41 +0000";
layers = (
{
anchors = (
{
name = bottom;
pos = (635,0);
},
{
name = top;
pos = (589,-542);
}
);
hints = (
{
horizontal = 1;
origin = (0,9);
target = up;
type = BottomGhost;
},
{
horizontal = 1;
origin = (0,8);
target = down;
type = TopGhost;
},
{
origin = (0,9);
target = (0,0);
type = Stem;
},
{
origin = (0,6);
target = (0,3);
type = Stem;
},
{
horizontal = 1;
origin = (1,11);
target = (1,5);
type = Stem;
},
{
origin = (1,8);
target = (1,2);
type = Stem;
}
);
layerId = "8CC24B71-6632-46E7-AD4C-7A03FCA973DC";
shapes = (
{
closed = 1;
nodes = (
(180,0,l),
(180,1297,l),
(1077,0,l),
(1137,0,l),
(1137,1400,l),
(1077,1400,l),
(1077,103,l),
(180,1400,l),
(120,1400,l),
(120,0,l)
);
},
{
closed = 1;
nodes = (
(615,-345,o),
(634,-326,o),
(634,-300,cs),
(634,-274,o),
(614,-255,o),
(589,-255,cs),
(564,-255,o),
(544,-274,o),
(544,-300,cs),
(544,-326,o),
(564,-345,o),
(589,-345,cs)
);
}
);
width = 1257;
},
{
associatedMasterId = "8CC24B71-6632-46E7-AD4C-7A03FCA973DC";
layerId = "65FCF1C4-831F-49C7-9BF6-D3ADA4B58F42";
shapes = (
{
pos = (-141,0);
ref = N;
slant = (8,0);
},
{
alignment = -1;
pos = (160,-1575);
ref = dotaccentcomb;
slant = (8,0);
}
);
width = 1155;
}
);
metricLeft = N;
metricRight = N;
unicode = 7750;
},
{
glyphname = Ntilde;
kernLeft = I;
kernRight = I;
lastChange = "2025-01-17 15:26:41 +0000";
layers = (
{
anchors = (
{
name = bottom;
pos = (635,0);
},
{
name = top;
pos = (780,1743);
}
);
hints = (
{
horizontal = 1;
origin = (0,9);
target = up;
type = BottomGhost;
},
{
horizontal = 1;
origin = (0,8);
target = down;
type = TopGhost;
},
{
origin = (0,9);
target = (0,0);
type = Stem;
},
{
origin = (0,6);
target = (0,3);
type = Stem;
},
{
horizontal = 1;
place = (1504,139);
type = Stem;
},
{
horizontal = 1;
place = (1677,130);
type = Stem;
},
{
place = (744,99);
type = Stem;
},
{
place = (1155,48);
type = Stem;
}
);
layerId = "8CC24B71-6632-46E7-AD4C-7A03FCA973DC";
shapes = (
{
closed = 1;
nodes = (
(180,0,l),
(180,1297,l),
(1077,0,l),
(1137,0,l),
(1137,1400,l),
(1077,1400,l),
(1077,103,l),
(180,1400,l),
(120,1400,l),
(120,0,l)
);
},
{
closed = 1;
nodes = (
(832,1551,o),
(902,1649,o),
(874,1735,c),
(818,1717,l),
(830,1685,o),
(798,1611,o),
(750,1611,cs),
(664,1611,o),
(524,1757,o),
(422,1757,cs),
(326,1757,o),
(256,1657,o),
(284,1575,c),
(342,1591,l),
(328,1647,o),
(368,1697,o),
(416,1697,cs),
(508,1697,o),
(636,1551,o),
(734,1551,cs)
);
}
);
width = 1257;
},
{
associatedMasterId = "8CC24B71-6632-46E7-AD4C-7A03FCA973DC";
layerId = "65FCF1C4-831F-49C7-9BF6-D3ADA4B58F42";
shapes = (
{
pos = (-141,0);
ref = N;
slant = (8,0);
},
{
pos = (182,400);
ref = tildecomb;
slant = (8,0);
}
);
width = 1155;
}
);
metricLeft = N;
metricRight = N;
unicode = 209;
},
{
glyphname = O;
kernLeft = O;
kernRight = O;
lastChange = "2025-01-17 15:26:41 +0000";
layers = (
{
anchors = (
{
name = bottom;
pos = (721,-25);
},
{
name = center;
pos = (721,701);
},
{
name = ogonek;
pos = (721,-25);
},
{
name = top;
pos = (721,1427);
},
{
name = topleft;
pos = (-49,1401);
},
{
name = topright;
pos = (1294,1417);
}
);
hints = (
{
horizontal = 1;
origin = (0,11);
target = (1,11);
type = Stem;
},
{
horizontal = 1;
origin = (0,5);
target = (1,5);
type = Stem;
},
{
origin = (0,8);
target = (1,2);
type = Stem;
},
{
origin = (1,8);
target = (0,2);
type = Stem;
}
);
layerId = "8CC24B71-6632-46E7-AD4C-7A03FCA973DC";
shapes = (
{
closed = 1;
nodes = (
(1113,-32,o),
(1359,255,o),
(1359,701,cs),
(1359,1147,o),
(1113,1431,o),
(721,1431,cs),
(327,1431,o),
(80,1147,o),
(80,701,cs),
(80,255,o),
(327,-32,o),
(721,-32,cs)
);
},
{
closed = 1;
nodes = (
(356,28,o),
(140,308,o),
(140,701,cs),
(140,1096,o),
(356,1371,o),
(721,1371,cs),
(1083,1371,o),
(1299,1096,o),
(1299,701,cs),
(1299,308,o),
(1083,28,o),
(721,28,cs)
);
}
);
width = 1439;
},
{
anchors = (
{
name = bottom;
pos = (529,-25);
},
{
name = center;
pos = (631,701);
},
{
name = ogonek;
pos = (529,-25);
},
{
name = top;
pos = (733,1427);
},
{
name = topleft;
pos = (-41,1401);
},
{
name = topright;
pos = (1305,1417);
}
);
associatedMasterId = "8CC24B71-6632-46E7-AD4C-7A03FCA973DC";
hints = (
{
horizontal = 1;
origin = (0,11);
target = (1,11);
type = Stem;
},
{
horizontal = 1;
origin = (0,5);
target = (1,5);
type = Stem;
},
{
origin = (0,8);
target = (1,2);
type = Stem;
},
{
origin = (1,8);
target = (0,2);
type = Stem;
}
);
layerId = "65FCF1C4-831F-49C7-9BF6-D3ADA4B58F42";
shapes = (
{
closed = 1;
nodes = (
(921,-25,o),
(1206,255,o),
(1269,701,cs),
(1332,1147,o),
(1126,1431,o),
(734,1431,cs),
(340,1431,o),
(53,1147,o),
(-10,701,cs),
(-73,255,o),
(135,-25,o),
(529,-25,cs)
);
},
{
closed = 1;
nodes = (
(192,35,o),
(15,308,o),
(70,701,cs),
(125,1096,o),
(380,1371,o),
(745,1371,cs),
(1107,1371,o),
(1284,1096,o),
(1229,701,cs),
(1174,308,o),
(919,35,o),
(557,35,cs)
);
}
);
width = 1343;
}
);
unicode = 79;
},
{
glyphname = Oacute;
kernLeft = O;
kernRight = O;
lastChange = "2025-01-17 15:26:41 +0000";
layers = (
{
anchors = (
{
name = bottom;
pos = (721,-25);
},
{
name = center;
pos = (721,701);
},
{
name = ogonek;
pos = (721,-25);
},
{
name = top;
pos = (726,1489);
},
{
name = topleft;
pos = (-49,1401);
},
{
name = topright;
pos = (1294,1417);
}
);
hints = (
{
horizontal = 1;
origin = (0,11);
target = (1,11);
type = Stem;
},
{
horizontal = 1;
origin = (0,5);
target = (1,5);
type = Stem;
},
{
origin = (0,8);
target = (1,2);
type = Stem;
},
{
origin = (1,8);
target = (0,2);
type = Stem;
},
{
horizontal = 1;
place = (1880,-20);
target = down;
type = TopGhost;
},
{
place = (1171,228);
type = Stem;
},
{
horizontal = 1;
origin = (2,3);
target = down;
type = TopGhost;
},
{
origin = (2,3);
target = (2,2);
type = Stem;
}
);
layerId = "8CC24B71-6632-46E7-AD4C-7A03FCA973DC";
shapes = (
{
closed = 1;
nodes = (
(1113,-32,o),
(1359,255,o),
(1359,701,cs),
(1359,1147,o),
(1113,1431,o),
(721,1431,cs),
(327,1431,o),
(80,1147,o),
(80,701,cs),
(80,255,o),
(327,-32,o),
(721,-32,cs)
);
},
{
closed = 1;
nodes = (
(356,28,o),
(140,308,o),
(140,701,cs),
(140,1096,o),
(356,1371,o),
(721,1371,cs),
(1083,1371,o),
(1299,1096,o),
(1299,701,cs),
(1299,308,o),
(1083,28,o),
(721,28,cs)
);
},
{
closed = 1;
nodes = (
(842,1887,l),
(759,1887,l),
(677,1599,l),
(716,1599,l)
);
}
);
width = 1439;
},
{
associatedMasterId = "8CC24B71-6632-46E7-AD4C-7A03FCA973DC";
layerId = "65FCF1C4-831F-49C7-9BF6-D3ADA4B58F42";
shapes = (
{
pos = (-141,0);
ref = O;
slant = (8,0);
},
{
pos = (593,489);
ref = acutecomb;
slant = (8,0);
}
);
width = 1343;
}
);
metricLeft = O;
metricRight = O;
unicode = 211;
},
{
glyphname = Ocaron;
kernLeft = O;
kernRight = O;
lastChange = "2025-01-17 15:26:41 +0000";
layers = (
{
anchors = (
{
name = bottom;
pos = (648,1602);
},
{
name = center;
pos = (721,701);
},
{
name = ogonek;
pos = (721,-25);
},
{
name = top;
pos = (700,1774);
},
{
name = topleft;
pos = (-49,1401);
},
{
name = topright;
pos = (1294,1417);
}
);
hints = (
{
horizontal = 1;
place = (1372,-20);
target = down;
type = TopGhost;
},
{
horizontal = 1;
origin = (0,11);
target = (1,11);
type = Stem;
},
{
horizontal = 1;
origin = (0,5);
target = (1,5);
type = Stem;
},
{
origin = (0,8);
target = (1,2);
type = Stem;
},
{
origin = (1,8);
target = (0,2);
type = Stem;
},
{
horizontal = 1;
place = (2035,21);
target = up;
type = BottomGhost;
},
{
horizontal = 1;
place = (1561,-8);
type = Stem;
}
);
layerId = "8CC24B71-6632-46E7-AD4C-7A03FCA973DC";
shapes = (
{
closed = 1;
nodes = (
(1113,-32,o),
(1359,255,o),
(1359,701,cs),
(1359,1147,o),
(1113,1431,o),
(721,1431,cs),
(327,1431,o),
(80,1147,o),
(80,701,cs),
(80,255,o),
(327,-32,o),
(721,-32,cs)
);
},
{
closed = 1;
nodes = (
(356,28,o),
(140,308,o),
(140,701,cs),
(140,1096,o),
(356,1371,o),
(721,1371,cs),
(1083,1371,o),
(1299,1096,o),
(1299,701,cs),
(1299,308,o),
(1083,28,o),
(721,28,cs)
);
},
{
closed = 1;
nodes = (
(881,1839,l),
(701,1630,l),
(518,1839,l),
(478,1839,l),
(670,1551,l),
(730,1551,l),
(921,1839,l)
);
}
);
width = 1439;
},
{
anchors = (
{
name = top;
pos = (858,1774);
}
);
associatedMasterId = "8CC24B71-6632-46E7-AD4C-7A03FCA973DC";
hints = (
{
horizontal = 1;
place = (1231,-20);
target = down;
type = TopGhost;
}
);
layerId = "65FCF1C4-831F-49C7-9BF6-D3ADA4B58F42";
shapes = (
{
pos = (-141,0);
ref = O;
slant = (8,0);
},
{
alignment = -1;
angle = 180;
pos = (1185,2993);
ref = circumflexcomb;
slant = (8,0);
}
);
width = 1343;
}
);
metricLeft = O;
metricRight = O;
unicode = 465;
},
{
glyphname = Ocircumflex;
kernLeft = O;
kernRight = O;
lastChange = "2025-01-17 15:26:41 +0000";
layers = (
{
anchors = (
{
name = bottom;
pos = (721,-25);
},
{
name = center;
pos = (721,701);
},
{
name = ogonek;
pos = (721,-25);
},
{
name = top;
pos = (751,1742);
},
{
name = topleft;
pos = (-49,1401);
},
{
name = topright;
pos = (1294,1417);
}
);
hints = (
{
horizontal = 1;
origin = (0,11);
target = (1,11);
type = Stem;
},
{
horizontal = 1;
origin = (0,5);
target = (1,5);
type = Stem;
},
{
origin = (0,8);
target = (1,2);
type = Stem;
},
{
origin = (1,8);
target = (0,2);
type = Stem;
},
{
horizontal = 1;
place = (1309,-20);
target = down;
type = TopGhost;
},
{
horizontal = 1;
place = (1783,8);
type = Stem;
}
);
layerId = "8CC24B71-6632-46E7-AD4C-7A03FCA973DC";
shapes = (
{
closed = 1;
nodes = (
(1113,-32,o),
(1359,255,o),
(1359,701,cs),
(1359,1147,o),
(1113,1431,o),
(721,1431,cs),
(327,1431,o),
(80,1147,o),
(80,701,cs),
(80,255,o),
(327,-32,o),
(721,-32,cs)
);
},
{
closed = 1;
nodes = (
(356,28,o),
(140,308,o),
(140,701,cs),
(140,1096,o),
(356,1371,o),
(721,1371,cs),
(1083,1371,o),
(1299,1096,o),
(1299,701,cs),
(1299,308,o),
(1083,28,o),
(721,28,cs)
);
},
{
closed = 1;
nodes = (
(518,1505,l),
(698,1714,l),
(881,1505,l),
(921,1505,l),
(729,1793,l),
(669,1793,l),
(478,1505,l)
);
}
);
width = 1439;
},
{
associatedMasterId = "8CC24B71-6632-46E7-AD4C-7A03FCA973DC";
layerId = "65FCF1C4-831F-49C7-9BF6-D3ADA4B58F42";
shapes = (
{
pos = (-141,0);
ref = O;
slant = (8,0);
},
{
pos = (353,395);
ref = circumflexcomb;
slant = (8,0);
}
);
width = 1343;
}
);
metricLeft = O;
metricRight = O;
unicode = 212;
},
{
glyphname = Ocircumflexdotbelow;
kernLeft = O;
kernRight = O;
lastChange = "2025-01-17 15:26:41 +0000";
layers = (
{
anchors = (
{
name = bottom;
pos = (721,-25);
},
{
name = center;
pos = (721,701);
},
{
name = ogonek;
pos = (721,-25);
},
{
name = top;
pos = (700,1425);
},
{
name = topleft;
pos = (-49,1401);
},
{
name = topright;
pos = (1294,1417);
}
);
hints = (
{
horizontal = 1;
place = (-337,-20);
target = down;
type = TopGhost;
},
{
horizontal = 1;
place = (137,8);
type = Stem;
},
{
horizontal = 1;
origin = (0,11);
target = (1,11);
type = Stem;
},
{
horizontal = 1;
origin = (0,5);
target = (1,5);
type = Stem;
},
{
origin = (0,8);
target = (1,2);
type = Stem;
},
{
origin = (1,8);
target = (0,2);
type = Stem;
},
{
horizontal = 1;
origin = (2,11);
target = (2,5);
type = Stem;
},
{
origin = (2,8);
target = (2,2);
type = Stem;
},
{
horizontal = 1;
place = (1309,-20);
target = down;
type = TopGhost;
},
{
horizontal = 1;
place = (1783,8);
type = Stem;
}
);
layerId = "8CC24B71-6632-46E7-AD4C-7A03FCA973DC";
shapes = (
{
closed = 1;
nodes = (
(1113,-32,o),
(1359,255,o),
(1359,701,cs),
(1359,1147,o),
(1113,1431,o),
(721,1431,cs),
(327,1431,o),
(80,1147,o),
(80,701,cs),
(80,255,o),
(327,-32,o),
(721,-32,cs)
);
},
{
closed = 1;
nodes = (
(356,28,o),
(140,308,o),
(140,701,cs),
(140,1096,o),
(356,1371,o),
(721,1371,cs),
(1083,1371,o),
(1299,1096,o),
(1299,701,cs),
(1299,308,o),
(1083,28,o),
(721,28,cs)
);
},
{
closed = 1;
nodes = (
(726,-343,o),
(745,-324,o),
(745,-298,cs),
(745,-272,o),
(725,-253,o),
(700,-253,cs),
(675,-253,o),
(655,-272,o),
(655,-298,cs),
(655,-324,o),
(675,-343,o),
(700,-343,cs)
);
},
{
closed = 1;
nodes = (
(518,1505,l),
(698,1714,l),
(881,1505,l),
(921,1505,l),
(729,1793,l),
(669,1793,l),
(478,1505,l)
);
}
);
width = 1439;
},
{
anchors = (
{
name = top;
pos = (809,1425);
}
);
associatedMasterId = "8CC24B71-6632-46E7-AD4C-7A03FCA973DC";
hints = (
{
horizontal = 1;
place = (-478,-20);
target = down;
type = TopGhost;
},
{
horizontal = 1;
place = (-4,-133);
type = Stem;
}
);
layerId = "65FCF1C4-831F-49C7-9BF6-D3ADA4B58F42";
shapes = (
{
pos = (-141,0);
ref = O;
slant = (8,0);
},
{
alignment = -1;
pos = (253,-1573);
ref = dotaccentcomb;
slant = (8,0);
},
{
alignment = -1;
pos = (353,395);
ref = circumflexcomb;
slant = (8,0);
}
);
width = 1343;
}
);
metricLeft = O;
metricRight = O;
unicode = 7896;
},
{
glyphname = Odieresis;
kernLeft = O;
kernRight = O;
lastChange = "2025-01-17 15:26:41 +0000";
layers = (
{
anchors = (
{
name = bottom;
pos = (721,-25);
},
{
name = center;
pos = (721,701);
},
{
name = ogonek;
pos = (721,-25);
},
{
name = top;
pos = (746,1307);
},
{
name = topleft;
pos = (-49,1401);
},
{
name = topright;
pos = (1294,1417);
}
);
hints = (
{
horizontal = 1;
origin = (0,11);
target = (1,11);
type = Stem;
},
{
horizontal = 1;
origin = (0,5);
target = (1,5);
type = Stem;
},
{
origin = (0,8);
target = (1,2);
type = Stem;
},
{
origin = (1,8);
target = (0,2);
type = Stem;
},
{
horizontal = 1;
place = (1483,90);
type = Stem;
},
{
place = (656,90);
type = Stem;
},
{
place = (656,90);
type = Stem;
},
{
horizontal = 1;
origin = (2,11);
target = (2,5);
type = Stem;
},
{
origin = (2,8);
target = (2,2);
type = Stem;
},
{
horizontal = 1;
origin = (3,11);
target = (3,5);
type = Stem;
},
{
origin = (3,8);
target = (3,2);
type = Stem;
}
);
layerId = "8CC24B71-6632-46E7-AD4C-7A03FCA973DC";
shapes = (
{
closed = 1;
nodes = (
(1113,-32,o),
(1359,255,o),
(1359,701,cs),
(1359,1147,o),
(1113,1431,o),
(721,1431,cs),
(327,1431,o),
(80,1147,o),
(80,701,cs),
(80,255,o),
(327,-32,o),
(721,-32,cs)
);
},
{
closed = 1;
nodes = (
(356,28,o),
(140,308,o),
(140,701,cs),
(140,1096,o),
(356,1371,o),
(721,1371,cs),
(1083,1371,o),
(1299,1096,o),
(1299,701,cs),
(1299,308,o),
(1083,28,o),
(721,28,cs)
);
},
{
closed = 1;
nodes = (
(898,1537,o),
(917,1556,o),
(917,1582,cs),
(917,1608,o),
(897,1627,o),
(872,1627,cs),
(847,1627,o),
(827,1608,o),
(827,1582,cs),
(827,1556,o),
(847,1537,o),
(872,1537,cs)
);
},
{
closed = 1;
nodes = (
(554,1537,o),
(573,1556,o),
(573,1582,cs),
(573,1608,o),
(553,1627,o),
(528,1627,cs),
(503,1627,o),
(483,1608,o),
(483,1582,cs),
(483,1556,o),
(503,1537,o),
(528,1537,cs)
);
}
);
width = 1439;
},
{
associatedMasterId = "8CC24B71-6632-46E7-AD4C-7A03FCA973DC";
layerId = "65FCF1C4-831F-49C7-9BF6-D3ADA4B58F42";
shapes = (
{
pos = (-141,0);
ref = O;
slant = (8,0);
},
{
pos = (354,253);
ref = dieresis;
slant = (8,0);
}
);
width = 1343;
}
);
metricLeft = O;
metricRight = O;
unicode = 214;
},
{
glyphname = Odieresismacron;
kernLeft = O;
kernRight = O;
lastChange = "2025-01-17 15:26:41 +0000";
layers = (
{
anchors = (
{
name = bottom;
pos = (721,-25);
},
{
name = center;
pos = (721,701);
},
{
name = ogonek;
pos = (721,-25);
},
{
name = top;
pos = (766,1307);
},
{
name = topleft;
pos = (-49,1401);
},
{
name = topright;
pos = (1294,1417);
}
);
hints = (
{
horizontal = 1;
origin = (0,11);
target = (1,11);
type = Stem;
},
{
horizontal = 1;
origin = (0,5);
target = (1,5);
type = Stem;
},
{
origin = (0,8);
target = (1,2);
type = Stem;
},
{
origin = (1,8);
target = (0,2);
type = Stem;
},
{
horizontal = 1;
origin = (2,3);
target = (2,2);
type = Stem;
},
{
horizontal = 1;
place = (1483,90);
type = Stem;
},
{
place = (676,90);
type = Stem;
},
{
place = (676,90);
type = Stem;
},
{
horizontal = 1;
origin = (3,11);
target = (3,5);
type = Stem;
},
{
origin = (3,8);
target = (3,2);
type = Stem;
},
{
horizontal = 1;
origin = (4,11);
target = (4,5);
type = Stem;
},
{
origin = (4,8);
target = (4,2);
type = Stem;
}
);
layerId = "8CC24B71-6632-46E7-AD4C-7A03FCA973DC";
shapes = (
{
closed = 1;
nodes = (
(1113,-32,o),
(1359,255,o),
(1359,701,cs),
(1359,1147,o),
(1113,1431,o),
(721,1431,cs),
(327,1431,o),
(80,1147,o),
(80,701,cs),
(80,255,o),
(327,-32,o),
(721,-32,cs)
);
},
{
closed = 1;
nodes = (
(356,28,o),
(140,308,o),
(140,701,cs),
(140,1096,o),
(356,1371,o),
(721,1371,cs),
(1083,1371,o),
(1299,1096,o),
(1299,701,cs),
(1299,308,o),
(1083,28,o),
(721,28,cs)
);
},
{
closed = 1;
nodes = (
(1058,1747,l),
(1058,1807,l),
(382,1807,l),
(382,1747,l)
);
},
{
closed = 1;
nodes = (
(918,1537,o),
(937,1556,o),
(937,1582,cs),
(937,1608,o),
(917,1627,o),
(892,1627,cs),
(867,1627,o),
(847,1608,o),
(847,1582,cs),
(847,1556,o),
(867,1537,o),
(892,1537,cs)
);
},
{
closed = 1;
nodes = (
(574,1537,o),
(593,1556,o),
(593,1582,cs),
(593,1608,o),
(573,1627,o),
(548,1627,cs),
(523,1627,o),
(503,1608,o),
(503,1582,cs),
(503,1556,o),
(523,1537,o),
(548,1537,cs)
);
}
);
width = 1439;
},
{
associatedMasterId = "8CC24B71-6632-46E7-AD4C-7A03FCA973DC";
layerId = "65FCF1C4-831F-49C7-9BF6-D3ADA4B58F42";
shapes = (
{
pos = (-141,0);
ref = O;
slant = (8,0);
},
{
pos = (282,589);
ref = macroncomb;
slant = (8,0);
},
{
pos = (354,253);
ref = dieresis;
slant = (8,0);
}
);
width = 1343;
}
);
metricLeft = O;
metricRight = O;
unicode = 554;
},
{
glyphname = Odotbelow;
kernLeft = O;
kernRight = O;
lastChange = "2025-01-17 15:26:41 +0000";
layers = (
{
anchors = (
{
name = bottom;
pos = (721,-25);
},
{
name = center;
pos = (721,701);
},
{
name = ogonek;
pos = (721,-25);
},
{
name = top;
pos = (721,1427);
},
{
name = topleft;
pos = (-49,1401);
},
{
name = topright;
pos = (1294,1417);
}
);
hints = (
{
horizontal = 1;
origin = (0,11);
target = (1,11);
type = Stem;
},
{
horizontal = 1;
origin = (0,5);
target = (1,5);
type = Stem;
},
{
origin = (0,8);
target = (1,2);
type = Stem;
},
{
origin = (1,8);
target = (0,2);
type = Stem;
},
{
horizontal = 1;
origin = (2,11);
target = (2,5);
type = Stem;
},
{
origin = (2,8);
target = (2,2);
type = Stem;
}
);
layerId = "8CC24B71-6632-46E7-AD4C-7A03FCA973DC";
shapes = (
{
closed = 1;
nodes = (
(1113,-32,o),
(1359,255,o),
(1359,701,cs),
(1359,1147,o),
(1113,1431,o),
(721,1431,cs),
(327,1431,o),
(80,1147,o),
(80,701,cs),
(80,255,o),
(327,-32,o),
(721,-32,cs)
);
},
{
closed = 1;
nodes = (
(356,28,o),
(140,308,o),
(140,701,cs),
(140,1096,o),
(356,1371,o),
(721,1371,cs),
(1083,1371,o),
(1299,1096,o),
(1299,701,cs),
(1299,308,o),
(1083,28,o),
(721,28,cs)
);
},
{
closed = 1;
nodes = (
(726,-353,o),
(745,-334,o),
(745,-308,cs),
(745,-282,o),
(725,-263,o),
(700,-263,cs),
(675,-263,o),
(655,-282,o),
(655,-308,cs),
(655,-334,o),
(675,-353,o),
(700,-353,cs)
);
}
);
width = 1439;
},
{
associatedMasterId = "8CC24B71-6632-46E7-AD4C-7A03FCA973DC";
layerId = "65FCF1C4-831F-49C7-9BF6-D3ADA4B58F42";
shapes = (
{
pos = (-141,0);
ref = O;
slant = (8,0);
},
{
pos = (473,-7);
ref = dotbelowcomb;
slant = (8,0);
}
);
width = 1343;
}
);
metricLeft = O;
metricRight = O;
unicode = 7884;
},
{
glyphname = Ograve;
kernLeft = O;
kernRight = O;
lastChange = "2025-01-17 15:26:41 +0000";
layers = (
{
anchors = (
{
name = bottom;
pos = (721,-25);
},
{
name = center;
pos = (721,701);
},
{
name = ogonek;
pos = (721,-25);
},
{
name = top;
pos = (673,1786);
},
{
name = topleft;
pos = (-49,1401);
},
{
name = topright;
pos = (1294,1417);
}
);
hints = (
{
horizontal = 1;
origin = (0,11);
target = (1,11);
type = Stem;
},
{
horizontal = 1;
origin = (0,5);
target = (1,5);
type = Stem;
},
{
origin = (0,8);
target = (1,2);
type = Stem;
},
{
origin = (1,8);
target = (0,2);
type = Stem;
},
{
horizontal = 1;
origin = (2,2);
target = down;
type = TopGhost;
},
{
origin = (2,2);
target = (2,0);
type = Stem;
}
);
layerId = "8CC24B71-6632-46E7-AD4C-7A03FCA973DC";
shapes = (
{
closed = 1;
nodes = (
(1113,-32,o),
(1359,255,o),
(1359,701,cs),
(1359,1147,o),
(1113,1431,o),
(721,1431,cs),
(327,1431,o),
(80,1147,o),
(80,701,cs),
(80,255,o),
(327,-32,o),
(721,-32,cs)
);
},
{
closed = 1;
nodes = (
(356,28,o),
(140,308,o),
(140,701,cs),
(140,1096,o),
(356,1371,o),
(721,1371,cs),
(1083,1371,o),
(1299,1096,o),
(1299,701,cs),
(1299,308,o),
(1083,28,o),
(721,28,cs)
);
},
{
closed = 1;
nodes = (
(674,1549,l),
(592,1837,l),
(509,1837,l),
(635,1549,l)
);
}
);
width = 1439;
},
{
associatedMasterId = "8CC24B71-6632-46E7-AD4C-7A03FCA973DC";
layerId = "65FCF1C4-831F-49C7-9BF6-D3ADA4B58F42";
shapes = (
{
pos = (-141,0);
ref = O;
slant = (8,0);
},
{
pos = (504,386);
ref = gravecomb;
slant = (8,0);
}
);
width = 1343;
}
);
metricLeft = O;
metricRight = O;
unicode = 210;
},
{
glyphname = Ohungarumlaut;
kernLeft = O;
kernRight = O;
lastChange = "2025-01-17 15:26:41 +0000";
layers = (
{
anchors = (
{
name = bottom;
pos = (721,-25);
},
{
name = center;
pos = (721,701);
},
{
name = ogonek;
pos = (721,-25);
},
{
name = top;
pos = (721,1427);
},
{
name = topleft;
pos = (-49,1401);
},
{
name = topright;
pos = (1294,1417);
}
);
hints = (
{
horizontal = 1;
origin = (0,11);
target = (1,11);
type = Stem;
},
{
horizontal = 1;
origin = (0,5);
target = (1,5);
type = Stem;
},
{
origin = (0,8);
target = (1,2);
type = Stem;
},
{
origin = (1,8);
target = (0,2);
type = Stem;
},
{
horizontal = 1;
place = (1811,-20);
target = down;
type = TopGhost;
},
{
place = (1288,228);
type = Stem;
},
{
horizontal = 1;
origin = (2,3);
target = down;
type = TopGhost;
},
{
origin = (2,3);
target = (2,2);
type = Stem;
},
{
horizontal = 1;
place = (1811,-20);
target = down;
type = TopGhost;
},
{
place = (1288,228);
type = Stem;
},
{
horizontal = 1;
origin = (2,3);
target = down;
type = TopGhost;
},
{
origin = (2,3);
target = (2,2);
type = Stem;
},
{
horizontal = 1;
place = (1811,-20);
target = down;
type = TopGhost;
},
{
place = (1071,228);
type = Stem;
},
{
horizontal = 1;
origin = (3,3);
target = down;
type = TopGhost;
},
{
origin = (3,3);
target = (3,2);
type = Stem;
},
{
horizontal = 1;
place = (1811,-20);
target = down;
type = TopGhost;
},
{
place = (1071,228);
type = Stem;
},
{
horizontal = 1;
origin = (3,3);
target = down;
type = TopGhost;
},
{
origin = (3,3);
target = (3,2);
type = Stem;
}
);
layerId = "8CC24B71-6632-46E7-AD4C-7A03FCA973DC";
shapes = (
{
closed = 1;
nodes = (
(1113,-32,o),
(1359,255,o),
(1359,701,cs),
(1359,1147,o),
(1113,1431,o),
(721,1431,cs),
(327,1431,o),
(80,1147,o),
(80,701,cs),
(80,255,o),
(327,-32,o),
(721,-32,cs)
);
},
{
closed = 1;
nodes = (
(356,28,o),
(140,308,o),
(140,701,cs),
(140,1096,o),
(356,1371,o),
(721,1371,cs),
(1083,1371,o),
(1299,1096,o),
(1299,701,cs),
(1299,308,o),
(1083,28,o),
(721,28,cs)
);
},
{
closed = 1;
nodes = (
(959,1818,l),
(876,1818,l),
(794,1530,l),
(833,1530,l)
);
},
{
closed = 1;
nodes = (
(742,1818,l),
(659,1818,l),
(577,1530,l),
(616,1530,l)
);
}
);
width = 1439;
},
{
associatedMasterId = "8CC24B71-6632-46E7-AD4C-7A03FCA973DC";
layerId = "65FCF1C4-831F-49C7-9BF6-D3ADA4B58F42";
shapes = (
{
pos = (-141,0);
ref = O;
slant = (8,0);
},
{
alignment = -1;
pos = (495,420);
ref = hungarumlautcomb;
slant = (8,0);
}
);
width = 1343;
}
);
metricLeft = O;
metricRight = O;
unicode = 336;
},
{
glyphname = Omacron;
kernLeft = O;
kernRight = O;
lastChange = "2025-01-17 15:26:41 +0000";
layers = (
{
anchors = (
{
name = bottom;
pos = (721,-25);
},
{
name = center;
pos = (721,701);
},
{
name = ogonek;
pos = (721,-25);
},
{
name = top;
pos = (721,1427);
},
{
name = topleft;
pos = (-49,1401);
},
{
name = topright;
pos = (1294,1417);
}
);
hints = (
{
horizontal = 1;
origin = (0,11);
target = (1,11);
type = Stem;
},
{
horizontal = 1;
origin = (0,5);
target = (1,5);
type = Stem;
},
{
origin = (0,8);
target = (1,2);
type = Stem;
},
{
origin = (1,8);
target = (0,2);
type = Stem;
},
{
horizontal = 1;
origin = (2,3);
target = (2,2);
type = Stem;
}
);
layerId = "8CC24B71-6632-46E7-AD4C-7A03FCA973DC";
shapes = (
{
closed = 1;
nodes = (
(1113,-32,o),
(1359,255,o),
(1359,701,cs),
(1359,1147,o),
(1113,1431,o),
(721,1431,cs),
(327,1431,o),
(80,1147,o),
(80,701,cs),
(80,255,o),
(327,-32,o),
(721,-32,cs)
);
},
{
closed = 1;
nodes = (
(356,28,o),
(140,308,o),
(140,701,cs),
(140,1096,o),
(356,1371,o),
(721,1371,cs),
(1083,1371,o),
(1299,1096,o),
(1299,701,cs),
(1299,308,o),
(1083,28,o),
(721,28,cs)
);
},
{
closed = 1;
nodes = (
(1038,1548,l),
(1038,1608,l),
(362,1608,l),
(362,1548,l)
);
}
);
width = 1439;
},
{
associatedMasterId = "8CC24B71-6632-46E7-AD4C-7A03FCA973DC";
layerId = "65FCF1C4-831F-49C7-9BF6-D3ADA4B58F42";
shapes = (
{
pos = (-141,0);
ref = O;
slant = (8,0);
},
{
pos = (228,331);
ref = macron;
slant = (8,0);
}
);
width = 1343;
}
);
metricLeft = O;
metricRight = O;
unicode = 332;
},
{
glyphname = Oslash;
kernLeft = O;
kernRight = O;
lastChange = "2025-01-17 15:26:41 +0000";
layers = (
{
anchors = (
{
name = bottom;
pos = (745,0);
},
{
name = top;
pos = (745,1400);
}
);
hints = (
{
horizontal = 1;
place = (-27,160);
type = Stem;
},
{
horizontal = 1;
place = (1426,160);
type = Stem;
},
{
place = (141,155);
type = Stem;
},
{
place = (1366,155);
type = Stem;
}
);
layerId = "8CC24B71-6632-46E7-AD4C-7A03FCA973DC";
shapes = (
{
closed = 1;
nodes = (
(414,60,l),
(514,4,o),
(626,-30,o),
(746,-30,cs),
(1126,-30,o),
(1436,296,o),
(1436,696,cs),
(1436,948,o),
(1314,1170,o),
(1130,1300,c),
(1204,1428,l),
(1152,1458,l),
(1080,1332,l),
(980,1390,o),
(868,1422,o),
(746,1422,cs),
(366,1422,o),
(56,1096,o),
(56,696,cs),
(56,446,o),
(180,224,o),
(364,92,c),
(290,-36,l),
(342,-66,l)
);
},
{
closed = 1;
nodes = (
(226,266,o),
(116,468,o),
(116,696,cs),
(116,1056,o),
(394,1362,o),
(746,1362,cs),
(856,1362,o),
(960,1332,o),
(1050,1280,c),
(394,146,l)
);
},
{
closed = 1;
nodes = (
(637,30,o),
(533,60,o),
(443,112,c),
(1100,1249,l),
(1266,1127,o),
(1376,925,o),
(1376,697,cs),
(1376,337,o),
(1097,30,o),
(745,30,cs)
);
}
);
width = 1493;
},
{
anchors = (
{
name = bottom;
pos = (605,0);
},
{
name = top;
pos = (802,1400);
}
);
associatedMasterId = "8CC24B71-6632-46E7-AD4C-7A03FCA973DC";
hints = (
{
horizontal = 1;
place = (-168,19);
type = Stem;
},
{
horizontal = 1;
place = (1285,19);
type = Stem;
},
{
place = (0,14);
type = Stem;
},
{
place = (1225,14);
type = Stem;
}
);
layerId = "65FCF1C4-831F-49C7-9BF6-D3ADA4B58F42";
shapes = (
{
closed = 1;
nodes = (
(282,60,l),
(374,4,o),
(482,-30,o),
(602,-30,cs),
(982,-30,o),
(1337,296,o),
(1394,696,cs),
(1429,948,o),
(1338,1170,o),
(1172,1300,c),
(1247,1405,ls),
(1249,1409,o),
(1253,1414,o),
(1254,1420,cs),
(1256,1436,o),
(1244,1450,o),
(1228,1450,cs),
(1216,1450,o),
(1206,1443,o),
(1200,1434,cs),
(1127,1332,l),
(1035,1390,o),
(928,1422,o),
(806,1422,cs),
(426,1422,o),
(70,1096,o),
(14,696,cs),
(-22,446,o),
(71,224,o),
(237,92,c),
(161,-13,ls),
(159,-17,o),
(155,-22,o),
(155,-28,cs),
(152,-44,o),
(164,-58,o),
(180,-58,cs),
(192,-58,o),
(202,-51,o),
(209,-42,cs)
);
},
{
closed = 1;
nodes = (
(117,269,o),
(36,471,o),
(68,699,cs),
(118,1059,o),
(439,1365,o),
(791,1365,cs),
(901,1365,o),
(1001,1335,o),
(1084,1283,c),
(268,149,l)
);
},
{
closed = 1;
nodes = (
(498,29,o),
(399,59,o),
(316,111,c),
(1133,1248,l),
(1282,1126,o),
(1363,924,o),
(1331,696,cs),
(1281,336,o),
(958,29,o),
(606,29,cs)
);
}
);
width = 1493;
}
);
unicode = 216;
},
{
glyphname = Otilde;
kernLeft = O;
kernRight = O;
lastChange = "2025-01-17 15:26:41 +0000";
layers = (
{
anchors = (
{
name = bottom;
pos = (721,-25);
},
{
name = center;
pos = (721,701);
},
{
name = ogonek;
pos = (721,-25);
},
{
name = top;
pos = (901,1694);
},
{
name = topleft;
pos = (-49,1401);
},
{
name = topright;
pos = (1294,1417);
}
);
hints = (
{
horizontal = 1;
origin = (0,11);
target = (1,11);
type = Stem;
},
{
horizontal = 1;
origin = (0,5);
target = (1,5);
type = Stem;
},
{
origin = (0,8);
target = (1,2);
type = Stem;
},
{
origin = (1,8);
target = (0,2);
type = Stem;
},
{
horizontal = 1;
place = (1455,139);
type = Stem;
},
{
horizontal = 1;
place = (1628,130);
type = Stem;
},
{
place = (865,99);
type = Stem;
},
{
place = (1276,48);
type = Stem;
}
);
layerId = "8CC24B71-6632-46E7-AD4C-7A03FCA973DC";
shapes = (
{
closed = 1;
nodes = (
(1113,-32,o),
(1359,255,o),
(1359,701,cs),
(1359,1147,o),
(1113,1431,o),
(721,1431,cs),
(327,1431,o),
(80,1147,o),
(80,701,cs),
(80,255,o),
(327,-32,o),
(721,-32,cs)
);
},
{
closed = 1;
nodes = (
(356,28,o),
(140,308,o),
(140,701,cs),
(140,1096,o),
(356,1371,o),
(721,1371,cs),
(1083,1371,o),
(1299,1096,o),
(1299,701,cs),
(1299,308,o),
(1083,28,o),
(721,28,cs)
);
},
{
closed = 1;
nodes = (
(953,1502,o),
(1023,1600,o),
(995,1686,c),
(939,1668,l),
(951,1636,o),
(919,1562,o),
(871,1562,cs),
(785,1562,o),
(645,1708,o),
(543,1708,cs),
(447,1708,o),
(377,1608,o),
(405,1526,c),
(463,1542,l),
(449,1598,o),
(489,1648,o),
(537,1648,cs),
(629,1648,o),
(757,1502,o),
(855,1502,cs)
);
}
);
width = 1439;
},
{
associatedMasterId = "8CC24B71-6632-46E7-AD4C-7A03FCA973DC";
layerId = "65FCF1C4-831F-49C7-9BF6-D3ADA4B58F42";
shapes = (
{
pos = (-141,0);
ref = O;
slant = (8,0);
},
{
pos = (268,351);
ref = tildecomb;
slant = (8,0);
}
);
width = 1343;
}
);
metricLeft = O;
metricRight = O;
unicode = 213;
},
{
glyphname = OE;
kernLeft = O;
kernRight = E;
lastChange = "2025-01-17 15:26:41 +0000";
layers = (
{
anchors = (
{
name = bottom;
pos = (1130,0);
},
{
name = top;
pos = (1130,1400);
}
);
hints = (
{
horizontal = 1;
place = (-4,176);
type = Stem;
},
{
horizontal = 1;
place = (645,176);
type = Stem;
},
{
horizontal = 1;
place = (1422,176);
type = Stem;
},
{
horizontal = 1;
place = (22,176);
type = Stem;
},
{
horizontal = 1;
place = (1448,176);
type = Stem;
},
{
place = (164,176);
type = Stem;
},
{
place = (1405,162);
type = Stem;
}
);
layerId = "8CC24B71-6632-46E7-AD4C-7A03FCA973DC";
shapes = (
{
closed = 1;
nodes = (
(1018,-26,o),
(1260,152,o),
(1368,404,c),
(1368,0,l),
(2074,0,l),
(2074,60,l),
(1428,60,l),
(1428,670,l),
(1978,670,l),
(1978,730,l),
(1428,730,l),
(1428,1340,l),
(2074,1340,l),
(2074,1400,l),
(1368,1400,l),
(1368,996,l),
(1260,1248,o),
(1018,1426,o),
(738,1426,cs),
(358,1426,o),
(48,1100,o),
(48,700,cs),
(48,300,o),
(358,-26,o),
(738,-26,cs)
);
},
{
closed = 1;
nodes = (
(390,34,o),
(108,334,o),
(108,700,cs),
(108,1060,o),
(386,1366,o),
(738,1366,cs),
(1086,1366,o),
(1368,1064,o),
(1368,700,cs),
(1368,340,o),
(1090,34,o),
(738,34,cs)
);
}
);
width = 2122;
},
{
anchors = (
{
name = bottom;
pos = (989,0);
},
{
name = top;
pos = (1186,1400);
}
);
associatedMasterId = "8CC24B71-6632-46E7-AD4C-7A03FCA973DC";
hints = (
{
horizontal = 1;
place = (-145,35);
type = Stem;
},
{
horizontal = 1;
place = (504,35);
type = Stem;
},
{
horizontal = 1;
place = (1281,35);
type = Stem;
},
{
horizontal = 1;
place = (-119,35);
type = Stem;
},
{
horizontal = 1;
place = (1307,35);
type = Stem;
},
{
place = (23,35);
type = Stem;
},
{
place = (1264,21);
type = Stem;
}
);
layerId = "65FCF1C4-831F-49C7-9BF6-D3ADA4B58F42";
shapes = (
{
closed = 1;
nodes = (
(874,-26,o),
(1141,152,o),
(1284,404,c),
(1232,32,ls),
(1229,12,o),
(1239,0,o),
(1259,0,cs),
(1906,0,ls),
(1922,0,o),
(1938,13,o),
(1941,30,cs),
(1943,47,o),
(1931,60,o),
(1915,60,cs),
(1296,60,l),
(1382,670,l),
(1905,670,ls),
(1921,670,o),
(1936,683,o),
(1939,700,cs),
(1941,717,o),
(1929,730,o),
(1913,730,cs),
(1390,730,l),
(1476,1340,l),
(2095,1340,ls),
(2111,1340,o),
(2127,1353,o),
(2129,1370,cs),
(2131,1387,o),
(2119,1400,o),
(2103,1400,cs),
(1456,1400,ls),
(1436,1400,o),
(1423,1388,o),
(1420,1368,cs),
(1367,996,l),
(1295,1248,o),
(1078,1426,o),
(798,1426,cs),
(418,1426,o),
(62,1100,o),
(6,700,cs),
(-50,300,o),
(214,-26,o),
(594,-26,cs)
);
},
{
closed = 1;
nodes = (
(254,34,o),
(14,334,o),
(66,700,cs),
(116,1060,o),
(437,1366,o),
(789,1366,cs),
(1137,1366,o),
(1377,1064,o),
(1326,700,cs),
(1275,340,o),
(954,34,o),
(602,34,cs)
);
}
);
width = 2122;
}
);
unicode = 338;
},
{
glyphname = P;
kernLeft = H;
kernRight = A;
lastChange = "2025-01-17 15:26:41 +0000";
layers = (
{
anchors = (
{
name = bottom;
pos = (577,0);
},
{
name = top;
pos = (590,1400);
}
);
hints = (
{
horizontal = 1;
place = (-27,21);
target = up;
type = BottomGhost;
},
{
horizontal = 1;
place = (554,127);
type = Stem;
},
{
horizontal = 1;
place = (1373,127);
type = Stem;
},
{
place = (147,127);
type = Stem;
},
{
place = (847,127);
type = Stem;
}
);
layerId = "8CC24B71-6632-46E7-AD4C-7A03FCA973DC";
shapes = (
{
closed = 1;
nodes = (
(180,0,l),
(180,600,l),
(528,600,ls),
(742,600,o),
(920,770,o),
(920,1000,cs),
(920,1228,o),
(748,1400,o),
(528,1400,cs),
(120,1400,l),
(120,0,l)
);
},
{
closed = 1;
nodes = (
(180,1340,l),
(528,1340,ls),
(710,1340,o),
(860,1196,o),
(860,1000,cs),
(860,804,o),
(710,660,o),
(528,660,cs),
(180,660,l)
);
}
);
width = 940;
},
{
anchors = (
{
name = bottom;
pos = (385,0);
},
{
name = top;
pos = (595,1400);
}
);
associatedMasterId = "8CC24B71-6632-46E7-AD4C-7A03FCA973DC";
hints = (
{
horizontal = 1;
place = (-168,21);
target = up;
type = BottomGhost;
},
{
horizontal = 1;
place = (413,-14);
type = Stem;
},
{
horizontal = 1;
place = (1232,-14);
type = Stem;
},
{
place = (6,-14);
type = Stem;
},
{
place = (706,-14);
type = Stem;
}
);
layerId = "65FCF1C4-831F-49C7-9BF6-D3ADA4B58F42";
shapes = (
{
closed = 1;
nodes = (
(14,37,cs),
(93,600,l),
(421,600,ls),
(635,600,o),
(837,770,o),
(869,1000,cs),
(901,1228,o),
(753,1400,o),
(533,1400,cs),
(157,1400,ls),
(137,1400,o),
(124,1388,o),
(121,1368,cs),
(-66,37,ls),
(-69,15,o),
(-54,-3,o),
(-32,-3,cs),
(-10,-3,o),
(11,15,o)
);
},
{
closed = 1;
nodes = (
(197,1340,l),
(545,1340,ls),
(727,1340,o),
(857,1196,o),
(829,1000,cs),
(801,804,o),
(631,660,o),
(449,660,cs),
(101,660,l)
);
}
);
width = 912;
}
);
metricLeft = I;
unicode = 80;
},
{
glyphname = Thorn;
kernLeft = l;
kernRight = o;
lastChange = "2025-01-17 15:26:41 +0000";
layers = (
{
anchors = (
{
name = bottom;
pos = (500,0);
},
{
name = top;
pos = (500,1400);
}
);
hints = (
{
horizontal = 1;
place = (21,21);
target = up;
type = BottomGhost;
},
{
horizontal = 1;
place = (312,175);
type = Stem;
},
{
horizontal = 1;
place = (976,175);
type = Stem;
},
{
horizontal = 1;
place = (1421,-20);
target = down;
type = TopGhost;
},
{
place = (195,175);
type = Stem;
},
{
place = (888,175);
type = Stem;
}
);
layerId = "8CC24B71-6632-46E7-AD4C-7A03FCA973DC";
shapes = (
{
closed = 1;
nodes = (
(180,0,l),
(180,300,l),
(528,300,ls),
(742,300,o),
(920,470,o),
(920,700,cs),
(920,928,o),
(748,1100,o),
(528,1100,cs),
(180,1100,l),
(180,1400,l),
(120,1400,l),
(120,0,l)
);
},
{
closed = 1;
nodes = (
(180,1040,l),
(528,1040,ls),
(710,1040,o),
(860,896,o),
(860,700,cs),
(860,504,o),
(710,360,o),
(528,360,cs),
(180,360,l)
);
}
);
width = 1011;
},
{
anchors = (
{
name = bottom;
pos = (308,0);
},
{
name = top;
pos = (505,1400);
}
);
associatedMasterId = "8CC24B71-6632-46E7-AD4C-7A03FCA973DC";
hints = (
{
horizontal = 1;
place = (-120,21);
target = up;
type = BottomGhost;
},
{
horizontal = 1;
place = (171,34);
type = Stem;
},
{
horizontal = 1;
place = (835,34);
type = Stem;
},
{
horizontal = 1;
place = (1280,-20);
target = down;
type = TopGhost;
},
{
place = (54,34);
type = Stem;
},
{
place = (747,34);
type = Stem;
}
);
layerId = "65FCF1C4-831F-49C7-9BF6-D3ADA4B58F42";
shapes = (
{
closed = 1;
nodes = (
(-8,27,cs),
(31,300,l),
(379,300,ls),
(593,300,o),
(795,470,o),
(827,700,cs),
(859,928,o),
(711,1100,o),
(491,1100,cs),
(143,1100,l),
(181,1373,ls),
(184,1389,o),
(173,1403,o),
(156,1403,cs),
(139,1403,o),
(124,1389,o),
(121,1373,cs),
(-68,27,ls),
(-70,11,o),
(-59,-3,o),
(-42,-3,cs),
(-25,-3,o),
(-10,11,o)
);
},
{
closed = 1;
nodes = (
(135,1040,l),
(483,1040,ls),
(665,1040,o),
(794,896,o),
(767,700,cs),
(739,504,o),
(569,360,o),
(387,360,cs),
(39,360,l)
);
}
);
width = 960;
}
);
metricLeft = I;
unicode = 222;
},
{
glyphname = Q;
kernLeft = O;
kernRight = O;
lastChange = "2025-01-17 15:26:41 +0000";
layers = (
{
anchors = (
{
name = bottom;
pos = (661,-24);
},
{
name = center;
pos = (721,701);
},
{
name = ogonek;
pos = (721,-25);
},
{
name = top;
pos = (667,1416);
},
{
name = topleft;
pos = (-49,1401);
},
{
name = topright;
pos = (1294,1417);
}
);
hints = (
{
horizontal = 1;
place = (0,21);
target = up;
type = BottomGhost;
},
{
horizontal = 1;
place = (1431,60);
type = Stem;
},
{
horizontal = 1;
place = (-24,68);
type = Stem;
},
{
place = (32,60);
type = Stem;
},
{
place = (1304,7);
type = Stem;
},
{
horizontal = 1;
origin = (0,13);
target = (1,17);
type = Stem;
},
{
horizontal = 1;
origin = (0,7);
target = (1,5);
type = Stem;
},
{
origin = (0,10);
target = (1,2);
type = Stem;
},
{
origin = (1,8);
target = (0,4);
type = Stem;
}
);
layerId = "8CC24B71-6632-46E7-AD4C-7A03FCA973DC";
shapes = (
{
closed = 1;
nodes = (
(1305,0,l),
(1197,180,l),
(1301,306,o),
(1359,485,o),
(1359,701,cs),
(1359,1147,o),
(1113,1431,o),
(721,1431,cs),
(327,1431,o),
(80,1147,o),
(80,701,cs),
(80,255,o),
(327,-32,o),
(721,-32,cs),
(901,-32,o),
(1051,29,o),
(1160,138,c),
(1245,-2,l)
);
},
{
closed = 1;
nodes = (
(356,28,o),
(140,308,o),
(140,701,cs),
(140,1096,o),
(356,1371,o),
(721,1371,cs),
(1083,1371,o),
(1299,1096,o),
(1299,701,cs),
(1299,516,o),
(1251,356,o),
(1162,238,c),
(1043,437,l),
(978,437,l),
(1126,194,l),
(1028,90,o),
(890,28,o),
(721,28,cs)
);
}
);
width = 1439;
},
{
anchors = (
{
name = bottom;
pos = (517,-24);
},
{
name = top;
pos = (725,1416);
}
);
associatedMasterId = "8CC24B71-6632-46E7-AD4C-7A03FCA973DC";
hints = (
{
horizontal = 1;
origin = (0,11);
target = up;
type = BottomGhost;
},
{
horizontal = 1;
place = (1290,-81);
type = Stem;
},
{
horizontal = 1;
place = (-165,-73);
type = Stem;
},
{
place = (-109,-81);
type = Stem;
},
{
origin = (0,11);
place = (1132,-134);
type = Stem;
}
);
layerId = "65FCF1C4-831F-49C7-9BF6-D3ADA4B58F42";
shapes = (
{
closed = 1;
nodes = (
(1169,47,cs),
(1098,84,ls),
(1041,114,o),
(1021,174,o),
(1025,200,c),
(1063,268,o),
(884,147,o),
(962,147,c),
(956,113,o),
(1003,43,o),
(1064,15,cs),
(1132,-16,ls),
(1135,-18,o),
(1140,-19,o),
(1145,-19,cs),
(1164,-19,o),
(1182,-3,o),
(1185,16,cs),
(1187,29,o),
(1179,42,o)
);
},
{
pos = (-141,0);
ref = O;
slant = (8,0);
}
);
width = 1350;
}
);
metricLeft = O;
metricRight = O;
unicode = 81;
},
{
glyphname = R;
kernLeft = H;
kernRight = R;
lastChange = "2025-01-17 15:26:41 +0000";
layers = (
{
anchors = (
{
name = bottom;
pos = (602,0);
},
{
name = top;
pos = (558,1400);
}
);
hints = (
{
horizontal = 1;
place = (-23,21);
target = up;
type = BottomGhost;
},
{
horizontal = 1;
place = (551,131);
type = Stem;
},
{
horizontal = 1;
place = (1377,131);
type = Stem;
},
{
horizontal = 1;
place = (563,119);
type = Stem;
},
{
place = (151,131);
type = Stem;
},
{
place = (870,131);
type = Stem;
}
);
layerId = "8CC24B71-6632-46E7-AD4C-7A03FCA973DC";
shapes = (
{
closed = 1;
nodes = (
(180,0,l),
(180,640,l),
(512,640,l),
(860,0,l),
(930,0,l),
(582,642,l),
(780,658,o),
(940,782,o),
(940,1000,cs),
(940,1228,o),
(768,1400,o),
(548,1400,cs),
(120,1400,l),
(120,0,l)
);
},
{
closed = 1;
nodes = (
(180,1340,l),
(548,1340,ls),
(730,1340,o),
(880,1196,o),
(880,1000,cs),
(880,804,o),
(730,700,o),
(548,700,cs),
(180,700,l)
);
}
);
width = 987;
},
{
anchors = (
{
name = bottom;
pos = (410,0);
},
{
name = top;
pos = (563,1400);
}
);
associatedMasterId = "8CC24B71-6632-46E7-AD4C-7A03FCA973DC";
hints = (
{
horizontal = 1;
place = (-164,21);
target = up;
type = BottomGhost;
},
{
horizontal = 1;
place = (410,-10);
type = Stem;
},
{
horizontal = 1;
place = (1236,-10);
type = Stem;
},
{
horizontal = 1;
place = (422,-22);
type = Stem;
},
{
place = (10,-10);
type = Stem;
},
{
place = (729,-10);
type = Stem;
}
);
layerId = "65FCF1C4-831F-49C7-9BF6-D3ADA4B58F42";
shapes = (
{
closed = 1;
nodes = (
(14,37,cs),
(93,600,l),
(425,600,l),
(685,8,ls),
(688,1,o),
(694,-3,o),
(702,-3,cs),
(714,-3,o),
(725,7,o),
(727,19,cs),
(728,23,o),
(727,25,o),
(726,29,cs),
(475,602,l),
(675,618,o),
(858,782,o),
(889,1000,cs),
(921,1228,o),
(773,1400,o),
(553,1400,cs),
(157,1400,ls),
(137,1400,o),
(124,1388,o),
(121,1368,cs),
(-66,37,ls),
(-69,15,o),
(-54,-3,o),
(-32,-3,cs),
(-10,-3,o),
(11,15,o)
);
},
{
closed = 1;
nodes = (
(197,1340,l),
(565,1340,ls),
(747,1340,o),
(877,1196,o),
(849,1000,cs),
(821,804,o),
(651,660,o),
(469,660,cs),
(101,660,l)
);
}
);
width = 936;
}
);
metricLeft = I;
unicode = 82;
},
{
glyphname = Racute;
kernLeft = H;
kernRight = R;
lastChange = "2025-01-17 15:26:41 +0000";
layers = (
{
anchors = (
{
name = bottom;
pos = (602,0);
},
{
name = top;
pos = (424,1401);
}
);
hints = (
{
horizontal = 1;
place = (-23,21);
target = up;
type = BottomGhost;
},
{
horizontal = 1;
place = (551,131);
type = Stem;
},
{
horizontal = 1;
place = (1377,131);
type = Stem;
},
{
horizontal = 1;
place = (563,119);
type = Stem;
},
{
place = (151,131);
type = Stem;
},
{
place = (870,131);
type = Stem;
},
{
horizontal = 1;
place = (1792,-20);
target = down;
type = TopGhost;
},
{
place = (869,228);
type = Stem;
},
{
horizontal = 1;
origin = (2,3);
target = down;
type = TopGhost;
},
{
origin = (2,3);
target = (2,2);
type = Stem;
}
);
layerId = "8CC24B71-6632-46E7-AD4C-7A03FCA973DC";
shapes = (
{
closed = 1;
nodes = (
(180,0,l),
(180,640,l),
(512,640,l),
(860,0,l),
(930,0,l),
(582,642,l),
(780,658,o),
(940,782,o),
(940,1000,cs),
(940,1228,o),
(768,1400,o),
(548,1400,cs),
(120,1400,l),
(120,0,l)
);
},
{
closed = 1;
nodes = (
(180,1340,l),
(548,1340,ls),
(730,1340,o),
(880,1196,o),
(880,1000,cs),
(880,804,o),
(730,700,o),
(548,700,cs),
(180,700,l)
);
},
{
closed = 1;
nodes = (
(540,1799,l),
(457,1799,l),
(375,1511,l),
(414,1511,l)
);
}
);
width = 987;
},
{
associatedMasterId = "8CC24B71-6632-46E7-AD4C-7A03FCA973DC";
layerId = "65FCF1C4-831F-49C7-9BF6-D3ADA4B58F42";
shapes = (
{
pos = (-141,0);
ref = R;
slant = (8,0);
},
{
pos = (279,401);
ref = acutecomb;
slant = (8,0);
}
);
width = 936;
}
);
metricLeft = R;
metricRight = R;
unicode = 340;
},
{
glyphname = Rcaron;
kernLeft = H;
kernRight = R;
lastChange = "2025-01-17 15:26:41 +0000";
layers = (
{
anchors = (
{
name = bottom;
pos = (336,1534);
},
{
name = top;
pos = (584,1747);
}
);
hints = (
{
horizontal = 1;
place = (1322,-20);
target = down;
type = TopGhost;
},
{
horizontal = 1;
place = (-23,21);
target = up;
type = BottomGhost;
},
{
horizontal = 1;
place = (551,131);
type = Stem;
},
{
horizontal = 1;
place = (1377,131);
type = Stem;
},
{
horizontal = 1;
place = (563,119);
type = Stem;
},
{
place = (151,131);
type = Stem;
},
{
place = (870,131);
type = Stem;
},
{
horizontal = 1;
place = (1967,21);
target = up;
type = BottomGhost;
},
{
horizontal = 1;
place = (1493,-8);
type = Stem;
}
);
layerId = "8CC24B71-6632-46E7-AD4C-7A03FCA973DC";
shapes = (
{
closed = 1;
nodes = (
(180,0,l),
(180,640,l),
(512,640,l),
(860,0,l),
(930,0,l),
(582,642,l),
(780,658,o),
(940,782,o),
(940,1000,cs),
(940,1228,o),
(768,1400,o),
(548,1400,cs),
(120,1400,l),
(120,0,l)
);
},
{
closed = 1;
nodes = (
(180,1340,l),
(548,1340,ls),
(730,1340,o),
(880,1196,o),
(880,1000,cs),
(880,804,o),
(730,700,o),
(548,700,cs),
(180,700,l)
);
},
{
closed = 1;
nodes = (
(569,1771,l),
(389,1562,l),
(206,1771,l),
(166,1771,l),
(358,1483,l),
(418,1483,l),
(609,1771,l)
);
}
);
width = 987;
},
{
anchors = (
{
name = top;
pos = (689,1747);
}
);
associatedMasterId = "8CC24B71-6632-46E7-AD4C-7A03FCA973DC";
hints = (
{
horizontal = 1;
place = (1181,-20);
target = down;
type = TopGhost;
}
);
layerId = "65FCF1C4-831F-49C7-9BF6-D3ADA4B58F42";
shapes = (
{
pos = (-141,0);
ref = R;
slant = (8,0);
},
{
alignment = -1;
angle = 180;
pos = (955,2881);
ref = circumflexcomb;
slant = (8,0);
}
);
width = 936;
}
);
metricLeft = R;
metricRight = R;
unicode = 344;
},
{
glyphname = Rcommaaccent;
kernLeft = H;
kernRight = R;
lastChange = "2025-01-17 15:26:41 +0000";
layers = (
{
anchors = (
{
name = bottom;
pos = (602,0);
},
{
name = top;
pos = (558,1400);
}
);
hints = (
{
horizontal = 1;
place = (-23,21);
target = up;
type = BottomGhost;
},
{
horizontal = 1;
place = (551,131);
type = Stem;
},
{
horizontal = 1;
place = (1377,131);
type = Stem;
},
{
horizontal = 1;
place = (563,119);
type = Stem;
},
{
place = (151,131);
type = Stem;
},
{
place = (870,131);
type = Stem;
}
);
layerId = "8CC24B71-6632-46E7-AD4C-7A03FCA973DC";
shapes = (
{
closed = 1;
nodes = (
(180,0,l),
(180,640,l),
(512,640,l),
(860,0,l),
(930,0,l),
(582,642,l),
(780,658,o),
(940,782,o),
(940,1000,cs),
(940,1228,o),
(768,1400,o),
(548,1400,cs),
(120,1400,l),
(120,0,l)
);
},
{
closed = 1;
nodes = (
(180,1340,l),
(548,1340,ls),
(730,1340,o),
(880,1196,o),
(880,1000,cs),
(880,804,o),
(730,700,o),
(548,700,cs),
(180,700,l)
);
},
{
closed = 1;
nodes = (
(424,-441,l),
(523,-103,l),
(463,-103,l),
(391,-441,l)
);
}
);
width = 987;
},
{
associatedMasterId = "8CC24B71-6632-46E7-AD4C-7A03FCA973DC";
layerId = "65FCF1C4-831F-49C7-9BF6-D3ADA4B58F42";
shapes = (
{
pos = (-141,0);
ref = R;
slant = (8,0);
},
{
pos = (238,0);
ref = commaaccentcomb;
slant = (8,0);
}
);
width = 936;
}
);
metricLeft = R;
metricRight = R;
unicode = 342;
},
{
glyphname = S;
kernLeft = S;
kernRight = S;
lastChange = "2025-01-17 15:26:41 +0000";
layers = (
{
anchors = (
{
name = bottom;
pos = (536,-31);
},
{
name = top;
pos = (536,1432);
}
);
hints = (
{
horizontal = 1;
origin = (0,37);
target = (0,30);
type = Stem;
},
{
horizontal = 1;
origin = (0,18);
target = (0,11);
type = Stem;
},
{
origin = (0,34);
target = (0,33);
type = Stem;
},
{
origin = (0,27);
target = (0,2);
type = Stem;
},
{
origin = (0,21);
target = (0,8);
type = Stem;
}
);
layerId = "8CC24B71-6632-46E7-AD4C-7A03FCA973DC";
shapes = (
{
closed = 1;
nodes = (
(798,-35,o),
(1020,113,o),
(1020,347,cs),
(1020,576,o),
(796,684,o),
(546,733,cs),
(309,779,o),
(133,830,o),
(133,1050,cs),
(133,1242,o),
(326,1371,o),
(546,1371,cs),
(723,1371,o),
(876,1288,o),
(917,1222,c),
(974,1242,l),
(918,1332,o),
(747,1431,o),
(546,1431,cs),
(298,1431,o),
(75,1283,o),
(75,1050,cs),
(75,793,o),
(278,721,o),
(546,668,cs),
(755,627,o),
(962,546,o),
(962,347,cs),
(962,153,o),
(765,27,o),
(546,27,cs),
(338,27,o),
(111,118,o),
(111,270,c),
(53,270,l),
(53,71,o),
(306,-35,o),
(546,-35,cs)
);
}
);
width = 1072;
},
{
anchors = (
{
name = bottom;
pos = (391,-31);
},
{
name = top;
pos = (596,1432);
}
);
associatedMasterId = "8CC24B71-6632-46E7-AD4C-7A03FCA973DC";
hints = (
{
horizontal = 1;
origin = (0,50);
target = (0,38);
type = Stem;
},
{
horizontal = 1;
origin = (0,26);
target = (0,11);
type = Stem;
},
{
origin = (0,47);
target = (0,41);
type = Stem;
},
{
origin = (0,35);
target = (0,2);
type = Stem;
},
{
origin = (0,29);
target = (0,8);
type = Stem;
}
);
layerId = "65FCF1C4-831F-49C7-9BF6-D3ADA4B58F42";
shapes = (
{
closed = 1;
nodes = (
(652,-35,o),
(895,113,o),
(928,347,cs),
(960,576,o),
(771,684,o),
(528,733,cs),
(298,779,o),
(129,830,o),
(160,1050,cs),
(187,1242,o),
(398,1371,o),
(618,1371,cs),
(783,1371,o),
(917,1299,o),
(961,1233,cs),
(964,1229,o),
(970,1226,o),
(977,1226,cs),
(988,1226,o),
(999,1235,o),
(1001,1247,cs),
(1001,1251,o),
(1000,1257,o),
(998,1260,cs),
(942,1346,o),
(793,1431,o),
(606,1431,cs),
(358,1431,o),
(114,1283,o),
(82,1050,cs),
(46,793,o),
(258,721,o),
(519,668,cs),
(722,627,o),
(918,546,o),
(890,347,cs),
(863,153,o),
(648,27,o),
(429,27,cs),
(236,27,o),
(36,106,o),
(28,242,cs),
(26,259,o),
(13,273,o),
(-6,273,cs),
(-31,273,o),
(-52,250,o),
(-51,226,cs),
(-39,55,o),
(180,-35,o),
(400,-35,cs)
);
}
);
width = 1072;
}
);
unicode = 83;
},
{
glyphname = Sacute;
kernLeft = S;
kernRight = S;
lastChange = "2025-01-17 15:26:41 +0000";
layers = (
{
anchors = (
{
name = bottom;
pos = (537,-31);
},
{
name = top;
pos = (567,1491);
}
);
hints = (
{
horizontal = 1;
origin = (0,37);
target = (0,30);
type = Stem;
},
{
horizontal = 1;
origin = (0,18);
target = (0,11);
type = Stem;
},
{
origin = (0,34);
target = (0,33);
type = Stem;
},
{
origin = (0,27);
target = (0,2);
type = Stem;
},
{
origin = (0,21);
target = (0,8);
type = Stem;
},
{
horizontal = 1;
place = (1882,-20);
target = down;
type = TopGhost;
},
{
place = (1012,228);
type = Stem;
},
{
horizontal = 1;
origin = (1,3);
target = down;
type = TopGhost;
},
{
origin = (1,3);
target = (1,2);
type = Stem;
}
);
layerId = "8CC24B71-6632-46E7-AD4C-7A03FCA973DC";
shapes = (
{
closed = 1;
nodes = (
(799,-35,o),
(1021,113,o),
(1021,347,cs),
(1021,576,o),
(797,684,o),
(547,733,cs),
(310,779,o),
(134,830,o),
(134,1050,cs),
(134,1242,o),
(327,1371,o),
(547,1371,cs),
(724,1371,o),
(877,1288,o),
(918,1222,c),
(975,1242,l),
(919,1332,o),
(748,1431,o),
(547,1431,cs),
(299,1431,o),
(76,1283,o),
(76,1050,cs),
(76,793,o),
(279,721,o),
(547,668,cs),
(756,627,o),
(963,546,o),
(963,347,cs),
(963,153,o),
(766,27,o),
(547,27,cs),
(339,27,o),
(112,118,o),
(112,270,c),
(54,270,l),
(54,71,o),
(307,-35,o),
(547,-35,cs)
);
},
{
closed = 1;
nodes = (
(683,1889,l),
(600,1889,l),
(518,1601,l),
(557,1601,l)
);
}
);
width = 1071;
},
{
associatedMasterId = "8CC24B71-6632-46E7-AD4C-7A03FCA973DC";
layerId = "65FCF1C4-831F-49C7-9BF6-D3ADA4B58F42";
shapes = (
{
pos = (-140,0);
ref = S;
slant = (8,0);
},
{
pos = (371,491);
ref = acutecomb;
slant = (8,0);
}
);
width = 1071;
}
);
unicode = 346;
},
{
glyphname = Scaron;
kernLeft = S;
kernRight = S;
lastChange = "2025-01-17 15:26:41 +0000";
layers = (
{
anchors = (
{
name = bottom;
pos = (486,1570);
},
{
name = top;
pos = (538,1779);
}
);
hints = (
{
horizontal = 1;
place = (1409,-20);
target = down;
type = TopGhost;
},
{
horizontal = 1;
origin = (0,37);
target = (0,30);
type = Stem;
},
{
horizontal = 1;
origin = (0,18);
target = (0,11);
type = Stem;
},
{
origin = (0,34);
target = (0,33);
type = Stem;
},
{
origin = (0,27);
target = (0,2);
type = Stem;
},
{
origin = (0,21);
target = (0,8);
type = Stem;
},
{
horizontal = 1;
place = (2003,21);
target = up;
type = BottomGhost;
},
{
horizontal = 1;
place = (1529,-8);
type = Stem;
}
);
layerId = "8CC24B71-6632-46E7-AD4C-7A03FCA973DC";
shapes = (
{
closed = 1;
nodes = (
(799,-35,o),
(1021,113,o),
(1021,347,cs),
(1021,576,o),
(797,684,o),
(547,733,cs),
(310,779,o),
(134,830,o),
(134,1050,cs),
(134,1242,o),
(327,1371,o),
(547,1371,cs),
(724,1371,o),
(877,1288,o),
(918,1222,c),
(975,1242,l),
(919,1332,o),
(748,1431,o),
(547,1431,cs),
(299,1431,o),
(76,1283,o),
(76,1050,cs),
(76,793,o),
(279,721,o),
(547,668,cs),
(756,627,o),
(963,546,o),
(963,347,cs),
(963,153,o),
(766,27,o),
(547,27,cs),
(339,27,o),
(112,118,o),
(112,270,c),
(54,270,l),
(54,71,o),
(307,-35,o),
(547,-35,cs)
);
},
{
closed = 1;
nodes = (
(719,1807,l),
(539,1598,l),
(356,1807,l),
(316,1807,l),
(508,1519,l),
(568,1519,l),
(759,1807,l)
);
}
);
width = 1071;
},
{
anchors = (
{
name = top;
pos = (722,1779);
}
);
associatedMasterId = "8CC24B71-6632-46E7-AD4C-7A03FCA973DC";
hints = (
{
horizontal = 1;
place = (1268,-20);
target = down;
type = TopGhost;
}
);
layerId = "65FCF1C4-831F-49C7-9BF6-D3ADA4B58F42";
shapes = (
{
pos = (-140,0);
ref = S;
slant = (8,0);
},
{
alignment = -1;
angle = 180;
pos = (1040,2917);
ref = circumflexcomb;
slant = (8,0);
}
);
width = 1071;
}
);
unicode = 352;
},
{
glyphname = Scedilla;
kernLeft = S;
kernRight = S;
lastChange = "2025-01-17 15:26:41 +0000";
layers = (
{
anchors = (
{
name = bottom;
pos = (558,-31);
},
{
name = top;
pos = (537,1432);
}
);
hints = (
{
horizontal = 1;
origin = (0,44);
target = (0,37);
type = Stem;
},
{
horizontal = 1;
origin = (0,25);
target = (0,18);
type = Stem;
},
{
origin = (0,41);
target = (0,40);
type = Stem;
},
{
origin = (0,34);
target = (0,9);
type = Stem;
},
{
origin = (0,28);
target = (0,15);
type = Stem;
},
{
horizontal = 1;
place = (-337,113);
type = Stem;
},
{
place = (1091,113);
type = Stem;
}
);
layerId = "8CC24B71-6632-46E7-AD4C-7A03FCA973DC";
shapes = (
{
closed = 1;
nodes = (
(649,-371,o),
(695,-291,o),
(674,-214,cs),
(659,-158,o),
(613,-118,o),
(559,-109,c),
(603,-33,l),
(832,-12,o),
(1021,131,o),
(1021,347,cs),
(1021,576,o),
(797,684,o),
(547,733,cs),
(310,779,o),
(134,830,o),
(134,1050,cs),
(134,1242,o),
(327,1371,o),
(547,1371,cs),
(724,1371,o),
(877,1288,o),
(918,1222,c),
(975,1242,l),
(919,1332,o),
(748,1431,o),
(547,1431,cs),
(299,1431,o),
(76,1283,o),
(76,1050,cs),
(76,793,o),
(279,721,o),
(547,668,cs),
(756,627,o),
(963,546,o),
(963,347,cs),
(963,153,o),
(766,27,o),
(547,27,cs),
(339,27,o),
(112,118,o),
(112,270,c),
(54,270,l),
(54,75,o),
(298,-31,o),
(532,-35,c),
(443,-189,l),
(513,-170,ls),
(558,-158,o),
(604,-185,o),
(616,-230,cs),
(629,-275,o),
(602,-321,o),
(557,-333,cs),
(512,-345,o),
(466,-318,o),
(454,-274,c),
(396,-289,l),
(416,-366,o),
(496,-412,o),
(572,-391,cs)
);
}
);
width = 1071;
},
{
associatedMasterId = "8CC24B71-6632-46E7-AD4C-7A03FCA973DC";
layerId = "65FCF1C4-831F-49C7-9BF6-D3ADA4B58F42";
shapes = (
{
pos = (-140,0);
ref = S;
slant = (8,0);
},
{
pos = (239,-31);
ref = cedillacomb;
slant = (8,0);
}
);
width = 1071;
}
);
unicode = 350;
},
{
glyphname = Scircumflex;
kernLeft = S;
kernRight = S;
lastChange = "2025-01-17 15:26:41 +0000";
layers = (
{
anchors = (
{
name = bottom;
pos = (536,-31);
},
{
name = top;
pos = (588,1728);
}
);
hints = (
{
horizontal = 1;
origin = (0,37);
target = (0,30);
type = Stem;
},
{
horizontal = 1;
origin = (0,18);
target = (0,11);
type = Stem;
},
{
origin = (0,34);
target = (0,33);
type = Stem;
},
{
origin = (0,27);
target = (0,2);
type = Stem;
},
{
origin = (0,21);
target = (0,8);
type = Stem;
},
{
horizontal = 1;
place = (1295,-20);
target = down;
type = TopGhost;
},
{
horizontal = 1;
place = (1769,8);
type = Stem;
}
);
layerId = "8CC24B71-6632-46E7-AD4C-7A03FCA973DC";
shapes = (
{
closed = 1;
nodes = (
(798,-35,o),
(1020,113,o),
(1020,347,cs),
(1020,576,o),
(796,684,o),
(546,733,cs),
(309,779,o),
(133,830,o),
(133,1050,cs),
(133,1242,o),
(326,1371,o),
(546,1371,cs),
(723,1371,o),
(876,1288,o),
(917,1222,c),
(974,1242,l),
(918,1332,o),
(747,1431,o),
(546,1431,cs),
(298,1431,o),
(75,1283,o),
(75,1050,cs),
(75,793,o),
(278,721,o),
(546,668,cs),
(755,627,o),
(962,546,o),
(962,347,cs),
(962,153,o),
(765,27,o),
(546,27,cs),
(338,27,o),
(111,118,o),
(111,270,c),
(53,270,l),
(53,71,o),
(306,-35,o),
(546,-35,cs)
);
},
{
closed = 1;
nodes = (
(355,1491,l),
(535,1700,l),
(718,1491,l),
(758,1491,l),
(566,1779,l),
(506,1779,l),
(315,1491,l)
);
}
);
width = 1072;
},
{
associatedMasterId = "8CC24B71-6632-46E7-AD4C-7A03FCA973DC";
layerId = "65FCF1C4-831F-49C7-9BF6-D3ADA4B58F42";
shapes = (
{
pos = (-141,0);
ref = S;
slant = (8,0);
},
{
pos = (216,381);
ref = circumflexcomb;
slant = (8,0);
}
);
width = 1072;
}
);
metricLeft = S;
metricRight = S;
unicode = 348;
},
{
glyphname = Scommaaccent;
kernLeft = S;
kernRight = S;
lastChange = "2025-01-17 15:26:41 +0000";
layers = (
{
anchors = (
{
name = bottom;
pos = (536,-31);
},
{
name = top;
pos = (536,1432);
}
);
hints = (
{
horizontal = 1;
origin = (0,37);
target = (0,30);
type = Stem;
},
{
horizontal = 1;
origin = (0,18);
target = (0,11);
type = Stem;
},
{
origin = (0,34);
target = (0,33);
type = Stem;
},
{
origin = (0,27);
target = (0,2);
type = Stem;
},
{
origin = (0,21);
target = (0,8);
type = Stem;
}
);
layerId = "8CC24B71-6632-46E7-AD4C-7A03FCA973DC";
shapes = (
{
closed = 1;
nodes = (
(798,-35,o),
(1020,113,o),
(1020,347,cs),
(1020,576,o),
(796,684,o),
(546,733,cs),
(309,779,o),
(133,830,o),
(133,1050,cs),
(133,1242,o),
(326,1371,o),
(546,1371,cs),
(723,1371,o),
(876,1288,o),
(917,1222,c),
(974,1242,l),
(918,1332,o),
(747,1431,o),
(546,1431,cs),
(298,1431,o),
(75,1283,o),
(75,1050,cs),
(75,793,o),
(278,721,o),
(546,668,cs),
(755,627,o),
(962,546,o),
(962,347,cs),
(962,153,o),
(765,27,o),
(546,27,cs),
(338,27,o),
(111,118,o),
(111,270,c),
(53,270,l),
(53,71,o),
(306,-35,o),
(546,-35,cs)
);
},
{
closed = 1;
nodes = (
(504,-430,l),
(603,-92,l),
(543,-92,l),
(471,-430,l)
);
}
);
width = 1072;
},
{
associatedMasterId = "8CC24B71-6632-46E7-AD4C-7A03FCA973DC";
layerId = "65FCF1C4-831F-49C7-9BF6-D3ADA4B58F42";
shapes = (
{
pos = (-141,0);
ref = S;
slant = (8,0);
},
{
pos = (320,11);
ref = commaaccentcomb;
slant = (8,0);
}
);
width = 1072;
}
);
metricLeft = S;
metricRight = S;
unicode = 536;
},
{
glyphname = Sdotbelow;
kernLeft = S;
kernRight = S;
lastChange = "2025-01-17 15:26:41 +0000";
layers = (
{
anchors = (
{
name = bottom;
pos = (536,-31);
},
{
name = top;
pos = (536,1432);
}
);
hints = (
{
horizontal = 1;
origin = (0,37);
target = (0,30);
type = Stem;
},
{
horizontal = 1;
origin = (0,18);
target = (0,11);
type = Stem;
},
{
origin = (0,34);
target = (0,33);
type = Stem;
},
{
origin = (0,27);
target = (0,2);
type = Stem;
},
{
origin = (0,21);
target = (0,8);
type = Stem;
},
{
horizontal = 1;
origin = (1,11);
target = (1,5);
type = Stem;
},
{
origin = (1,8);
target = (1,2);
type = Stem;
}
);
layerId = "8CC24B71-6632-46E7-AD4C-7A03FCA973DC";
shapes = (
{
closed = 1;
nodes = (
(798,-35,o),
(1020,113,o),
(1020,347,cs),
(1020,576,o),
(796,684,o),
(546,733,cs),
(309,779,o),
(133,830,o),
(133,1050,cs),
(133,1242,o),
(326,1371,o),
(546,1371,cs),
(723,1371,o),
(876,1288,o),
(917,1222,c),
(974,1242,l),
(918,1332,o),
(747,1431,o),
(546,1431,cs),
(298,1431,o),
(75,1283,o),
(75,1050,cs),
(75,793,o),
(278,721,o),
(546,668,cs),
(755,627,o),
(962,546,o),
(962,347,cs),
(962,153,o),
(765,27,o),
(546,27,cs),
(338,27,o),
(111,118,o),
(111,270,c),
(53,270,l),
(53,71,o),
(306,-35,o),
(546,-35,cs)
);
},
{
closed = 1;
nodes = (
(563,-354,o),
(582,-335,o),
(582,-309,cs),
(582,-283,o),
(562,-264,o),
(537,-264,cs),
(512,-264,o),
(492,-283,o),
(492,-309,cs),
(492,-335,o),
(512,-354,o),
(537,-354,cs)
);
}
);
width = 1072;
},
{
associatedMasterId = "8CC24B71-6632-46E7-AD4C-7A03FCA973DC";
layerId = "65FCF1C4-831F-49C7-9BF6-D3ADA4B58F42";
shapes = (
{
pos = (-141,0);
ref = S;
slant = (8,0);
},
{
pos = (338,-8);
ref = dotbelowcomb;
slant = (8,0);
}
);
width = 1072;
}
);
metricLeft = S;
metricRight = S;
unicode = 7778;
},
{
glyphname = Germandbls;
kernLeft = Germandbls;
kernRight = Germandbls;
lastChange = "2025-01-17 15:26:41 +0000";
layers = (
{
anchors = (
{
name = bottom;
pos = (618,0);
},
{
name = top;
pos = (618,1400);
}
);
hints = (
{
horizontal = 1;
place = (9,163);
type = Stem;
},
{
horizontal = 1;
place = (648,122);
type = Stem;
},
{
horizontal = 1;
place = (1254,163);
type = Stem;
},
{
place = (183,163);
type = Stem;
},
{
place = (846,163);
type = Stem;
},
{
place = (978,163);
type = Stem;
}
);
layerId = "8CC24B71-6632-46E7-AD4C-7A03FCA973DC";
shapes = (
{
closed = 1;
nodes = (
(180,0,l),
(180,994,ls),
(180,1184,o),
(332,1338,o),
(522,1338,cs),
(672,1338,o),
(804,1282,o),
(806,1152,cs),
(808,1032,o),
(522,720,o),
(522,720,c),
(522,662,l),
(588,662,ls),
(754,662,o),
(950,568,o),
(950,364,cs),
(950,156,o),
(756,60,o),
(590,60,cs),
(333,60,l),
(333,0,l),
(590,0,ls),
(788,0,o),
(1010,122,o),
(1010,362,cs),
(1010,588,o),
(802,740,o),
(602,720,c),
(801,937,o),
(876,1070,o),
(876,1152,cs),
(876,1320,o),
(716,1398,o),
(526,1398,cs),
(302,1398,o),
(120,1216,o),
(120,992,cs),
(120,0,l)
);
}
);
width = 1089;
},
{
anchors = (
{
name = bottom;
pos = (426,0);
},
{
name = top;
pos = (623,1400);
}
);
associatedMasterId = "8CC24B71-6632-46E7-AD4C-7A03FCA973DC";
hints = (
{
horizontal = 1;
place = (-132,22);
type = Stem;
},
{
horizontal = 1;
place = (507,-19);
type = Stem;
},
{
horizontal = 1;
place = (1113,22);
type = Stem;
},
{
place = (42,22);
type = Stem;
},
{
place = (705,22);
type = Stem;
},
{
place = (837,22);
type = Stem;
}
);
layerId = "65FCF1C4-831F-49C7-9BF6-D3ADA4B58F42";
shapes = (
{
closed = 1;
nodes = (
(14,37,cs),
(148,994,ls),
(175,1184,o),
(349,1338,o),
(539,1338,cs),
(689,1338,o),
(813,1282,o),
(796,1152,cs),
(783,1046,o),
(522,788,o),
(461,731,cs),
(453,723,o),
(448,714,o),
(446,703,cs),
(443,680,o),
(459,662,o),
(482,662,cs),
(509,662,ls),
(675,662,o),
(858,568,o),
(830,364,cs),
(800,156,o),
(593,60,o),
(427,60,cs),
(188,60,ls),
(172,60,o),
(156,47,o),
(154,30,cs),
(151,13,o),
(163,0,o),
(180,0,cs),
(398,0,ls),
(596,0,o),
(836,122,o),
(869,362,cs),
(901,588,o),
(714,740,o),
(512,720,c),
(741,937,o),
(835,1070,o),
(846,1152,cs),
(870,1320,o),
(721,1398,o),
(531,1398,cs),
(307,1398,o),
(99,1216,o),
(68,992,cs),
(-66,37,ls),
(-69,15,o),
(-54,-3,o),
(-32,-3,cs),
(-10,-3,o),
(11,15,o)
);
}
);
width = 1038;
}
);
metricLeft = I;
unicode = 7838;
},
{
glyphname = T;
kernLeft = T;
kernRight = T;
lastChange = "2025-01-17 15:26:41 +0000";
layers = (
{
anchors = (
{
name = bottom;
pos = (534,0);
},
{
name = center;
pos = (534,700);
},
{
name = top;
pos = (534,1400);
}
);
hints = (
{
horizontal = 1;
place = (0,21);
target = up;
type = BottomGhost;
},
{
horizontal = 1;
place = (1400,151);
type = Stem;
},
{
place = (467,154);
type = Stem;
}
);
layerId = "8CC24B71-6632-46E7-AD4C-7A03FCA973DC";
shapes = (
{
closed = 1;
nodes = (
(567,0,l),
(567,1340,l),
(1066,1340,l),
(1066,1400,l),
(8,1400,l),
(8,1340,l),
(507,1340,l),
(507,0,l)
);
}
);
width = 1074;
},
{
anchors = (
{
name = bottom;
pos = (393,0);
},
{
name = center;
pos = (491,700);
},
{
name = top;
pos = (589,1400);
}
);
associatedMasterId = "8CC24B71-6632-46E7-AD4C-7A03FCA973DC";
hints = (
{
horizontal = 1;
place = (-141,21);
target = up;
type = BottomGhost;
},
{
horizontal = 1;
place = (1259,10);
type = Stem;
},
{
place = (326,13);
type = Stem;
}
);
layerId = "65FCF1C4-831F-49C7-9BF6-D3ADA4B58F42";
shapes = (
{
closed = 1;
nodes = (
(90,1400,ls),
(74,1400,o),
(58,1387,o),
(56,1370,cs),
(54,1353,o),
(66,1340,o),
(82,1340,cs),
(554,1340,l),
(371,36,ls),
(368,15,o),
(382,-3,o),
(404,-3,cs),
(426,-3,o),
(446,15,o),
(449,36,cs),
(632,1340,l),
(1086,1340,ls),
(1102,1340,o),
(1118,1353,o),
(1120,1370,cs),
(1122,1387,o),
(1110,1400,o),
(1094,1400,cs)
);
}
);
width = 1072;
}
);
unicode = 84;
},
{
glyphname = Tcaron;
kernLeft = T;
kernRight = T;
lastChange = "2025-01-17 15:26:41 +0000";
layers = (
{
anchors = (
{
name = bottom;
pos = (485,-347);
},
{
name = center;
pos = (534,700);
},
{
name = top;
pos = (534,1400);
}
);
hints = (
{
horizontal = 1;
place = (0,21);
target = up;
type = BottomGhost;
},
{
horizontal = 1;
place = (1400,151);
type = Stem;
},
{
place = (467,154);
type = Stem;
},
{
horizontal = 1;
place = (86,21);
target = up;
type = BottomGhost;
},
{
horizontal = 1;
place = (-388,-8);
type = Stem;
}
);
layerId = "8CC24B71-6632-46E7-AD4C-7A03FCA973DC";
shapes = (
{
closed = 1;
nodes = (
(567,0,l),
(567,1340,l),
(1066,1340,l),
(1066,1400,l),
(8,1400,l),
(8,1340,l),
(507,1340,l),
(507,0,l)
);
},
{
closed = 1;
nodes = (
(718,-110,l),
(538,-319,l),
(355,-110,l),
(315,-110,l),
(507,-398,l),
(567,-398,l),
(758,-110,l)
);
}
);
width = 1074;
},
{
associatedMasterId = "8CC24B71-6632-46E7-AD4C-7A03FCA973DC";
layerId = "65FCF1C4-831F-49C7-9BF6-D3ADA4B58F42";
shapes = (
{
pos = (-141,0);
ref = T;
slant = (8,0);
},
{
pos = (-50,-1509);
ref = caroncomb;
slant = (8,0);
}
);
width = 1072;
}
);
metricLeft = T;
metricRight = T;
unicode = 356;
},
{
glyphname = Tcedilla;
kernLeft = T;
kernRight = T;
lastChange = "2025-01-17 15:26:41 +0000";
layers = (
{
anchors = (
{
name = bottom;
pos = (519,0);
},
{
name = center;
pos = (534,700);
},
{
name = top;
pos = (534,1400);
}
);
hints = (
{
horizontal = 1;
place = (0,21);
target = up;
type = BottomGhost;
},
{
horizontal = 1;
place = (1400,151);
type = Stem;
},
{
place = (467,154);
type = Stem;
},
{
horizontal = 1;
place = (-306,113);
type = Stem;
},
{
place = (1052,113);
type = Stem;
}
);
layerId = "8CC24B71-6632-46E7-AD4C-7A03FCA973DC";
shapes = (
{
closed = 1;
nodes = (
(610,-340,o),
(656,-260,o),
(635,-183,cs),
(620,-127,o),
(574,-87,o),
(520,-78,c),
(565,0,l),
(567,0,l),
(567,1340,l),
(1066,1340,l),
(1066,1400,l),
(8,1400,l),
(8,1340,l),
(507,1340,l),
(507,20,l),
(404,-158,l),
(474,-139,ls),
(519,-127,o),
(565,-154,o),
(577,-199,cs),
(590,-244,o),
(563,-290,o),
(518,-302,cs),
(473,-314,o),
(427,-287,o),
(415,-243,c),
(357,-258,l),
(377,-335,o),
(457,-381,o),
(533,-360,cs)
);
}
);
width = 1074;
},
{
associatedMasterId = "8CC24B71-6632-46E7-AD4C-7A03FCA973DC";
layerId = "65FCF1C4-831F-49C7-9BF6-D3ADA4B58F42";
shapes = (
{
pos = (-141,0);
ref = T;
slant = (8,0);
},
{
pos = (241,0);
ref = cedillacomb;
slant = (8,0);
}
);
width = 1072;
}
);
metricLeft = T;
metricRight = T;
unicode = 354;
},
{
glyphname = Tcommaaccent;
kernLeft = T;
kernRight = T;
lastChange = "2025-01-17 15:26:41 +0000";
layers = (
{
anchors = (
{
name = bottom;
pos = (534,0);
},
{
name = center;
pos = (534,700);
},
{
name = top;
pos = (534,1400);
}
);
hints = (
{
horizontal = 1;
place = (0,21);
target = up;
type = BottomGhost;
},
{
horizontal = 1;
place = (1400,151);
type = Stem;
},
{
place = (467,154);
type = Stem;
}
);
layerId = "8CC24B71-6632-46E7-AD4C-7A03FCA973DC";
shapes = (
{
closed = 1;
nodes = (
(567,0,l),
(567,1340,l),
(1066,1340,l),
(1066,1400,l),
(8,1400,l),
(8,1340,l),
(507,1340,l),
(507,0,l)
);
},
{
closed = 1;
nodes = (
(463,-429,l),
(562,-91,l),
(502,-91,l),
(430,-429,l)
);
}
);
width = 1074;
},
{
associatedMasterId = "8CC24B71-6632-46E7-AD4C-7A03FCA973DC";
layerId = "65FCF1C4-831F-49C7-9BF6-D3ADA4B58F42";
shapes = (
{
pos = (-141,0);
ref = T;
slant = (8,0);
},
{
pos = (317,0);
ref = commaaccentcomb;
slant = (8,0);
}
);
width = 1072;
}
);
metricLeft = T;
metricRight = T;
unicode = 538;
},
{
glyphname = Tdotbelow;
kernLeft = T;
kernRight = T;
lastChange = "2025-01-17 15:26:41 +0000";
layers = (
{
anchors = (
{
name = bottom;
pos = (534,0);
},
{
name = center;
pos = (534,700);
},
{
name = top;
pos = (534,1400);
}
);
hints = (
{
horizontal = 1;
place = (0,21);
target = up;
type = BottomGhost;
},
{
horizontal = 1;
place = (1400,151);
type = Stem;
},
{
place = (467,154);
type = Stem;
},
{
horizontal = 1;
origin = (1,11);
target = (1,5);
type = Stem;
},
{
origin = (1,8);
target = (1,2);
type = Stem;
}
);
layerId = "8CC24B71-6632-46E7-AD4C-7A03FCA973DC";
shapes = (
{
closed = 1;
nodes = (
(567,0,l),
(567,1340,l),
(1066,1340,l),
(1066,1400,l),
(8,1400,l),
(8,1340,l),
(507,1340,l),
(507,0,l)
);
},
{
closed = 1;
nodes = (
(562,-346,o),
(581,-327,o),
(581,-301,cs),
(581,-275,o),
(561,-256,o),
(536,-256,cs),
(511,-256,o),
(491,-275,o),
(491,-301,cs),
(491,-327,o),
(511,-346,o),
(536,-346,cs)
);
}
);
width = 1074;
},
{
associatedMasterId = "8CC24B71-6632-46E7-AD4C-7A03FCA973DC";
layerId = "65FCF1C4-831F-49C7-9BF6-D3ADA4B58F42";
shapes = (
{
pos = (-141,0);
ref = T;
slant = (8,0);
},
{
alignment = -1;
pos = (338,0);
ref = dotbelowcomb;
slant = (8,0);
}
);
width = 1072;
}
);
metricLeft = T;
metricRight = T;
unicode = 7788;
},
{
glyphname = U;
kernLeft = I;
kernRight = I;
lastChange = "2025-01-17 15:26:41 +0000";
layers = (
{
anchors = (
{
name = bottom;
pos = (633,-26);
},
{
name = ogonek;
pos = (633,-26);
},
{
name = top;
pos = (633,1400);
},
{
name = topright;
pos = (1176,1400);
}
);
hints = (
{
horizontal = 1;
place = (-26,154);
type = Stem;
},
{
horizontal = 1;
place = (1400,-20);
target = down;
type = TopGhost;
},
{
place = (162,154);
type = Stem;
},
{
place = (1094,154);
type = Stem;
}
);
layerId = "8CC24B71-6632-46E7-AD4C-7A03FCA973DC";
shapes = (
{
closed = 1;
nodes = (
(914,-26,o),
(1108,246,o),
(1108,584,cs),
(1108,1400,l),
(1048,1400,l),
(1048,584,ls),
(1048,288,o),
(886,34,o),
(578,34,cs),
(274,34,o),
(108,284,o),
(108,584,cs),
(108,1400,l),
(48,1400,l),
(48,584,ls),
(48,246,o),
(242,-26,o),
(578,-26,cs)
);
}
);
width = 1156;
},
{
anchors = (
{
name = bottom;
pos = (489,-26);
},
{
name = ogonek;
pos = (489,-26);
},
{
name = top;
pos = (689,1400);
},
{
name = topright;
pos = (1232,1400);
}
);
associatedMasterId = "8CC24B71-6632-46E7-AD4C-7A03FCA973DC";
hints = (
{
horizontal = 1;
place = (-167,13);
type = Stem;
},
{
horizontal = 1;
place = (1259,-20);
target = down;
type = TopGhost;
},
{
place = (21,13);
type = Stem;
},
{
place = (953,13);
type = Stem;
}
);
layerId = "65FCF1C4-831F-49C7-9BF6-D3ADA4B58F42";
shapes = (
{
closed = 1;
nodes = (
(770,-26,o),
(1002,246,o),
(1050,584,cs),
(1162,1383,ls),
(1163,1394,o),
(1156,1403,o),
(1145,1403,cs),
(1134,1403,o),
(1123,1394,o),
(1122,1383,cs),
(1010,584,ls),
(968,288,o),
(770,34,o),
(462,34,cs),
(158,34,o),
(27,284,o),
(70,584,cs),
(179,1363,ls),
(182,1385,o),
(167,1403,o),
(145,1403,cs),
(123,1403,o),
(102,1385,o),
(99,1363,cs),
(-10,584,ls),
(-58,246,o),
(98,-26,o),
(434,-26,cs)
);
}
);
width = 1156;
}
);
metricRight = "=|";
unicode = 85;
},
{
glyphname = Uacute;
kernLeft = I;
kernRight = I;
lastChange = "2025-01-17 15:26:41 +0000";
layers = (
{
anchors = (
{
name = bottom;
pos = (633,-26);
},
{
name = ogonek;
pos = (633,-26);
},
{
name = top;
pos = (619,1322);
},
{
name = topright;
pos = (1176,1400);
}
);
hints = (
{
horizontal = 1;
place = (-26,154);
type = Stem;
},
{
horizontal = 1;
place = (1400,-20);
target = down;
type = TopGhost;
},
{
place = (162,154);
type = Stem;
},
{
place = (1094,154);
type = Stem;
},
{
horizontal = 1;
place = (1713,-20);
target = down;
type = TopGhost;
},
{
place = (1064,228);
type = Stem;
},
{
horizontal = 1;
origin = (1,3);
target = down;
type = TopGhost;
},
{
origin = (1,3);
target = (1,2);
type = Stem;
}
);
layerId = "8CC24B71-6632-46E7-AD4C-7A03FCA973DC";
shapes = (
{
closed = 1;
nodes = (
(914,-26,o),
(1108,246,o),
(1108,584,cs),
(1108,1400,l),
(1048,1400,l),
(1048,584,ls),
(1048,288,o),
(886,34,o),
(578,34,cs),
(274,34,o),
(108,284,o),
(108,584,cs),
(108,1400,l),
(48,1400,l),
(48,584,ls),
(48,246,o),
(242,-26,o),
(578,-26,cs)
);
},
{
closed = 1;
nodes = (
(735,1720,l),
(652,1720,l),
(570,1432,l),
(609,1432,l)
);
}
);
width = 1156;
},
{
associatedMasterId = "8CC24B71-6632-46E7-AD4C-7A03FCA973DC";
layerId = "65FCF1C4-831F-49C7-9BF6-D3ADA4B58F42";
shapes = (
{
pos = (-141,0);
ref = U;
slant = (8,0);
},
{
alignment = -1;
pos = (399,393);
ref = acutecomb;
slant = (8,0);
}
);
width = 1156;
}
);
metricLeft = U;
metricRight = U;
unicode = 218;
},
{
glyphname = Ubreve;
kernLeft = I;
kernRight = I;
lastChange = "2025-01-17 15:26:41 +0000";
layers = (
{
anchors = (
{
name = bottom;
pos = (633,-26);
},
{
name = ogonek;
pos = (633,-26);
},
{
name = top;
pos = (633,1400);
},
{
name = topright;
pos = (1176,1400);
}
);
hints = (
{
horizontal = 1;
place = (-26,154);
type = Stem;
},
{
horizontal = 1;
place = (1400,-20);
target = down;
type = TopGhost;
},
{
place = (162,154);
type = Stem;
},
{
place = (1094,154);
type = Stem;
},
{
horizontal = 1;
place = (1453,154);
type = Stem;
},
{
place = (361,154);
type = Stem;
},
{
place = (925,154);
type = Stem;
}
);
layerId = "8CC24B71-6632-46E7-AD4C-7A03FCA973DC";
shapes = (
{
closed = 1;
nodes = (
(914,-26,o),
(1108,246,o),
(1108,584,cs),
(1108,1400,l),
(1048,1400,l),
(1048,584,ls),
(1048,288,o),
(886,34,o),
(578,34,cs),
(274,34,o),
(108,284,o),
(108,584,cs),
(108,1400,l),
(48,1400,l),
(48,584,ls),
(48,246,o),
(242,-26,o),
(578,-26,cs)
);
},
{
closed = 1;
nodes = (
(754,1453,o),
(910,1597,o),
(910,1785,c),
(850,1785,l),
(850,1635,o),
(726,1513,o),
(578,1513,cs),
(436,1513,o),
(306,1631,o),
(306,1785,c),
(246,1785,l),
(246,1603,o),
(396,1453,o),
(578,1453,cs)
);
}
);
width = 1156;
},
{
associatedMasterId = "8CC24B71-6632-46E7-AD4C-7A03FCA973DC";
layerId = "65FCF1C4-831F-49C7-9BF6-D3ADA4B58F42";
shapes = (
{
pos = (-141,0);
ref = U;
slant = (8,0);
},
{
alignment = -1;
pos = (145,365);
ref = breve;
slant = (8,0);
}
);
width = 1156;
}
);
metricLeft = U;
metricRight = U;
unicode = 364;
},
{
glyphname = Ucaron;
kernLeft = I;
kernRight = I;
lastChange = "2025-01-17 15:26:41 +0000";
layers = (
{
anchors = (
{
name = bottom;
pos = (527,1486);
},
{
name = ogonek;
pos = (633,-26);
},
{
name = top;
pos = (578,1416);
},
{
name = topright;
pos = (1176,1400);
}
);
hints = (
{
horizontal = 1;
place = (1345,-20);
target = down;
type = TopGhost;
},
{
horizontal = 1;
place = (-26,154);
type = Stem;
},
{
horizontal = 1;
place = (1400,-20);
target = down;
type = TopGhost;
},
{
place = (162,154);
type = Stem;
},
{
place = (1094,154);
type = Stem;
},
{
horizontal = 1;
place = (1919,21);
target = up;
type = BottomGhost;
},
{
horizontal = 1;
place = (1445,-8);
type = Stem;
}
);
layerId = "8CC24B71-6632-46E7-AD4C-7A03FCA973DC";
shapes = (
{
closed = 1;
nodes = (
(914,-26,o),
(1108,246,o),
(1108,584,cs),
(1108,1400,l),
(1048,1400,l),
(1048,584,ls),
(1048,288,o),
(886,34,o),
(578,34,cs),
(274,34,o),
(108,284,o),
(108,584,cs),
(108,1400,l),
(48,1400,l),
(48,584,ls),
(48,246,o),
(242,-26,o),
(578,-26,cs)
);
},
{
closed = 1;
nodes = (
(760,1723,l),
(580,1514,l),
(397,1723,l),
(357,1723,l),
(549,1435,l),
(609,1435,l),
(800,1723,l)
);
}
);
width = 1156;
},
{
anchors = (
{
name = top;
pos = (708,1416);
}
);
associatedMasterId = "8CC24B71-6632-46E7-AD4C-7A03FCA973DC";
hints = (
{
horizontal = 1;
place = (1204,-20);
target = down;
type = TopGhost;
}
);
layerId = "65FCF1C4-831F-49C7-9BF6-D3ADA4B58F42";
shapes = (
{
pos = (-141,0);
ref = U;
slant = (8,0);
},
{
alignment = -1;
angle = 180;
pos = (1070,2833);
ref = circumflexcomb;
slant = (8,0);
}
);
width = 1156;
}
);
metricLeft = U;
metricRight = U;
unicode = 467;
},
{
glyphname = Ucircumflex;
kernLeft = I;
kernRight = I;
lastChange = "2025-01-17 15:26:41 +0000";
layers = (
{
anchors = (
{
name = bottom;
pos = (633,-26);
},
{
name = ogonek;
pos = (633,-26);
},
{
name = top;
pos = (630,1737);
},
{
name = topright;
pos = (1176,1400);
}
);
hints = (
{
horizontal = 1;
place = (-26,154);
type = Stem;
},
{
horizontal = 1;
place = (1400,-20);
target = down;
type = TopGhost;
},
{
place = (162,154);
type = Stem;
},
{
place = (1094,154);
type = Stem;
},
{
horizontal = 1;
place = (1304,-20);
target = down;
type = TopGhost;
},
{
horizontal = 1;
place = (1778,8);
type = Stem;
}
);
layerId = "8CC24B71-6632-46E7-AD4C-7A03FCA973DC";
shapes = (
{
closed = 1;
nodes = (
(914,-26,o),
(1108,246,o),
(1108,584,cs),
(1108,1400,l),
(1048,1400,l),
(1048,584,ls),
(1048,288,o),
(886,34,o),
(578,34,cs),
(274,34,o),
(108,284,o),
(108,584,cs),
(108,1400,l),
(48,1400,l),
(48,584,ls),
(48,246,o),
(242,-26,o),
(578,-26,cs)
);
},
{
closed = 1;
nodes = (
(397,1500,l),
(577,1709,l),
(760,1500,l),
(800,1500,l),
(608,1788,l),
(548,1788,l),
(357,1500,l)
);
}
);
width = 1156;
},
{
associatedMasterId = "8CC24B71-6632-46E7-AD4C-7A03FCA973DC";
layerId = "65FCF1C4-831F-49C7-9BF6-D3ADA4B58F42";
shapes = (
{
pos = (-141,0);
ref = U;
slant = (8,0);
},
{
alignment = -1;
pos = (259,390);
ref = circumflexcomb;
slant = (8,0);
}
);
width = 1156;
}
);
metricLeft = U;
metricRight = U;
unicode = 219;
},
